STARTFONT 2.1
FONT -16x16-±½ÀºµÕ±Ù¸ð-medium-r-normal--16-120-96-96-m-160-iso10646-1
SIZE 16 96 96
FONTBOUNDINGBOX 16 16 0 0
STARTPROPERTIES 18
FOUNDRY "16x16"
FAMILY_NAME "±½ÀºµÕ±Ù¸ð"
WEIGHT_NAME "medium"
SLANT "r"
SETWIDTH_NAME "normal"
ADD_STYLE_NAME ""
PIXEL_SIZE 16
POINT_SIZE 120
RESOLUTION_X 96
RESOLUTION_Y 96
SPACING "m"
AVERAGE_WIDTH 160
CHARSET_REGISTRY "iso10646"
CHARSET_ENCODING "1"
DEFAULT_CHAR 12288
FONT_ASCENT 16
FONT_DESCENT 0
COPYRIGHT "±½ÀºµÕ±Ù¸ð.HAN"
ENDPROPERTIES
CHARS 11223
STARTCHAR char0x3131
ENCODING 12593
SWIDTH 1333 0
DWIDTH 16 0
BBX 16 16 0 0
BITMAP
0000
0000
7F00
0700
0700
0700
0700
0700
0700
0700
0700
0E00
3C00
0000
0000
0000
ENDCHAR
STARTCHAR char0x3132
ENCODING 12594
SWIDTH 1333 0
DWIDTH 16 0
BBX 16 16 0 0
BITMAP
0000
0000
7F80
1B80
1B80
1B80
1B80
1B80
1B80
1B80
1B80
3380
6700
0000
0000
0000
ENDCHAR
STARTCHAR char0x3133
ENCODING 12595
SWIDTH 1333 0
DWIDTH 16 0
BBX 16 16 0 0
BITMAP
0000
0000
0000
0000
0000
0000
0000
0000
0000
3F9C
039C
039C
03BE
0377
0000
0000
ENDCHAR
STARTCHAR char0x3134
ENCODING 12596
SWIDTH 1333 0
DWIDTH 16 0
BBX 16 16 0 0
BITMAP
0000
0000
7000
7000
7000
7000
7000
7000
7000
7000
7000
71C0
3F80
0000
0000
0000
ENDCHAR
STARTCHAR char0x3135
ENCODING 12597
SWIDTH 1333 0
DWIDTH 16 0
BBX 16 16 0 0
BITMAP
0000
0000
0000
0000
0000
0000
0000
0000
0000
39FC
3870
3870
38F8
1FDC
0000
0000
ENDCHAR
STARTCHAR char0x3136
ENCODING 12598
SWIDTH 1333 0
DWIDTH 16 0
BBX 16 16 0 0
BITMAP
0000
0000
0000
0000
0000
0000
0000
0000
0000
3870
39FC
38F8
39DC
1EF8
0000
0000
ENDCHAR
STARTCHAR char0x3137
ENCODING 12599
SWIDTH 1333 0
DWIDTH 16 0
BBX 16 16 0 0
BITMAP
0000
0000
7F80
7000
7000
7000
7000
7000
7000
7000
7000
7380
3F00
0000
0000
0000
ENDCHAR
STARTCHAR char0x3138
ENCODING 12600
SWIDTH 1333 0
DWIDTH 16 0
BBX 16 16 0 0
BITMAP
0000
0000
7FC0
7600
7600
7600
7600
7600
7600
7600
7600
76C0
3F80
0000
0000
0000
ENDCHAR
STARTCHAR char0x3139
ENCODING 12601
SWIDTH 1333 0
DWIDTH 16 0
BBX 16 16 0 0
BITMAP
0000
0000
7F80
0380
0380
0380
7F80
7000
7000
7000
7000
7380
3F00
0000
0000
0000
ENDCHAR
STARTCHAR char0x313A
ENCODING 12602
SWIDTH 1333 0
DWIDTH 16 0
BBX 16 16 0 0
BITMAP
0000
0000
0000
0000
0000
0000
0000
0000
0000
3FFC
071C
3F1C
381C
1F18
0000
0000
ENDCHAR
STARTCHAR char0x313B
ENCODING 12603
SWIDTH 1333 0
DWIDTH 16 0
BBX 16 16 0 0
BITMAP
0000
0000
0000
0000
0000
0000
0000
0000
0000
3EFC
0EDC
3EDC
38DC
1E78
0000
0000
ENDCHAR
STARTCHAR char0x313C
ENCODING 12604
SWIDTH 1333 0
DWIDTH 16 0
BBX 16 16 0 0
BITMAP
0000
0000
0000
0000
0000
0000
0000
0000
0000
3EDC
0EDC
3EFC
38DC
1E78
0000
0000
ENDCHAR
STARTCHAR char0x313D
ENCODING 12605
SWIDTH 1333 0
DWIDTH 16 0
BBX 16 16 0 0
BITMAP
0000
0000
0000
0000
0000
0000
0000
0000
0000
3F38
0738
3F38
387C
1FEE
0000
0000
ENDCHAR
STARTCHAR char0x313E
ENCODING 12606
SWIDTH 1333 0
DWIDTH 16 0
BBX 16 16 0 0
BITMAP
0000
0000
0000
0000
0000
0000
0000
0000
0000
3EFC
0EE0
3EFC
38E0
1EFC
0000
0000
ENDCHAR
STARTCHAR char0x313F
ENCODING 12607
SWIDTH 1333 0
DWIDTH 16 0
BBX 16 16 0 0
BITMAP
0000
0000
0000
0000
0000
0000
0000
0000
0000
3FFC
0ED8
3ED8
38D8
1FFC
0000
0000
ENDCHAR
STARTCHAR char0x3140
ENCODING 12608
SWIDTH 1333 0
DWIDTH 16 0
BBX 16 16 0 0
BITMAP
0000
0000
0000
0000
0000
0000
0000
0000
0000
3E70
0FFC
3EF8
39DC
1EF8
0000
0000
ENDCHAR
STARTCHAR char0x3141
ENCODING 12609
SWIDTH 1333 0
DWIDTH 16 0
BBX 16 16 0 0
BITMAP
0000
0000
7F80
7380
7380
7380
7380
7380
7380
7380
7380
7380
3F00
0000
0000
0000
ENDCHAR
STARTCHAR char0x3142
ENCODING 12610
SWIDTH 1333 0
DWIDTH 16 0
BBX 16 16 0 0
BITMAP
0000
0000
7380
7380
7380
7380
7380
7F80
7380
7380
7380
7380
3F00
0000
0000
0000
ENDCHAR
STARTCHAR char0x3143
ENCODING 12611
SWIDTH 1333 0
DWIDTH 16 0
BBX 16 16 0 0
BITMAP
0000
0000
DB80
DB80
DB80
DB80
DB80
FF80
DB80
DB80
DB80
DB80
7F00
0000
0000
0000
ENDCHAR
STARTCHAR char0x3144
ENCODING 12612
SWIDTH 1333 0
DWIDTH 16 0
BBX 16 16 0 0
BITMAP
0000
0000
0000
0000
0000
0000
0000
0000
0000
3FFC
381C
381C
381C
1FF8
0000
0000
ENDCHAR
STARTCHAR char0x3145
ENCODING 12613
SWIDTH 1333 0
DWIDTH 16 0
BBX 16 16 0 0
BITMAP
0000
0000
0E00
0E00
0E00
0E00
0E00
0E00
0E00
0E00
1F00
3B80
71C0
0000
0000
0000
ENDCHAR
STARTCHAR char0x3146
ENCODING 12614
SWIDTH 1333 0
DWIDTH 16 0
BBX 16 16 0 0
BITMAP
0000
0000
3700
3700
3700
3700
3700
3700
3700
3700
3F00
6F80
DDC0
0000
0000
0000
ENDCHAR
STARTCHAR char0x3147
ENCODING 12615
SWIDTH 1333 0
DWIDTH 16 0
BBX 16 16 0 0
BITMAP
0000
0000
1E00
3300
7380
7380
7380
7380
7380
7380
7380
3300
1E00
0000
0000
0000
ENDCHAR
STARTCHAR char0x3148
ENCODING 12616
SWIDTH 1333 0
DWIDTH 16 0
BBX 16 16 0 0
BITMAP
0000
0000
7FC0
0E00
0E00
0E00
0E00
0E00
0E00
0E00
1F00
3B80
71C0
0000
0000
0000
ENDCHAR
STARTCHAR char0x3149
ENCODING 12617
SWIDTH 1333 0
DWIDTH 16 0
BBX 16 16 0 0
BITMAP
0000
0000
FFC0
3700
3700
3700
3700
3700
3700
3700
3F00
6F80
DDC0
0000
0000
0000
ENDCHAR
STARTCHAR char0x314A
ENCODING 12618
SWIDTH 1333 0
DWIDTH 16 0
BBX 16 16 0 0
BITMAP
0000
0E00
7FC0
0E00
0E00
0E00
0E00
0E00
0E00
0E00
1F00
3B80
71C0
0000
0000
0000
ENDCHAR
STARTCHAR char0x314B
ENCODING 12619
SWIDTH 1333 0
DWIDTH 16 0
BBX 16 16 0 0
BITMAP
0000
0000
7F00
0700
0700
0700
7F00
0700
0700
0700
0700
0E00
3C00
0000
0000
0000
ENDCHAR
STARTCHAR char0x314C
ENCODING 12620
SWIDTH 1333 0
DWIDTH 16 0
BBX 16 16 0 0
BITMAP
0000
0000
7F80
7000
7000
7000
7F80
7000
7000
7000
7000
7380
3F00
0000
0000
0000
ENDCHAR
STARTCHAR char0x314D
ENCODING 12621
SWIDTH 1333 0
DWIDTH 16 0
BBX 16 16 0 0
BITMAP
0000
0000
7F80
3700
3700
3700
3700
3700
3700
3700
3700
3700
7F80
0000
0000
0000
ENDCHAR
STARTCHAR char0x314E
ENCODING 12622
SWIDTH 1333 0
DWIDTH 16 0
BBX 16 16 0 0
BITMAP
0000
0C00
7F80
0000
3F00
7380
7380
7380
7380
7380
7380
7380
3F00
0000
0000
0000
ENDCHAR
STARTCHAR char0x314F
ENCODING 12623
SWIDTH 1333 0
DWIDTH 16 0
BBX 16 16 0 0
BITMAP
0000
001C
001C
001C
001C
001C
001C
001F
001C
001C
001C
001C
001C
001C
0000
0000
ENDCHAR
STARTCHAR char0x3150
ENCODING 12624
SWIDTH 1333 0
DWIDTH 16 0
BBX 16 16 0 0
BITMAP
0000
0037
0037
0037
0037
0037
0037
003F
0037
0037
0037
0037
0037
0037
0000
0000
ENDCHAR
STARTCHAR char0x3151
ENCODING 12625
SWIDTH 1333 0
DWIDTH 16 0
BBX 16 16 0 0
BITMAP
0000
001C
001C
001C
001C
001F
001C
001C
001C
001F
001C
001C
001C
001C
0000
0000
ENDCHAR
STARTCHAR char0x3152
ENCODING 12626
SWIDTH 1333 0
DWIDTH 16 0
BBX 16 16 0 0
BITMAP
0000
0037
0037
0037
0037
003F
0037
0037
0037
003F
0037
0037
0037
0037
0000
0000
ENDCHAR
STARTCHAR char0x3153
ENCODING 12627
SWIDTH 1333 0
DWIDTH 16 0
BBX 16 16 0 0
BITMAP
0000
000E
000E
000E
000E
000E
000E
007E
000E
000E
000E
000E
000E
000E
0000
0000
ENDCHAR
STARTCHAR char0x3154
ENCODING 12628
SWIDTH 1333 0
DWIDTH 16 0
BBX 16 16 0 0
BITMAP
0000
0037
0037
0037
0037
0037
0037
00F7
0037
0037
0037
0037
0037
0037
0000
0000
ENDCHAR
STARTCHAR char0x3155
ENCODING 12629
SWIDTH 1333 0
DWIDTH 16 0
BBX 16 16 0 0
BITMAP
0000
000E
000E
000E
000E
007E
000E
000E
000E
007E
000E
000E
000E
000E
0000
0000
ENDCHAR
STARTCHAR char0x3156
ENCODING 12630
SWIDTH 1333 0
DWIDTH 16 0
BBX 16 16 0 0
BITMAP
0000
0037
0037
0037
0037
00F7
0037
0037
0037
00F7
0037
0037
0037
0037
0000
0000
ENDCHAR
STARTCHAR char0x3157
ENCODING 12631
SWIDTH 1333 0
DWIDTH 16 0
BBX 16 16 0 0
BITMAP
0000
0000
0000
0000
0000
0000
0000
01C0
01C0
01C0
01C0
01C0
7FFF
0000
0000
0000
ENDCHAR
STARTCHAR char0x3158
ENCODING 12632
SWIDTH 1333 0
DWIDTH 16 0
BBX 16 16 0 0
BITMAP
0000
001C
001C
001C
001C
001C
001C
0E1F
0E1C
0E1C
0E1C
0E1C
7FFC
001C
0000
0000
ENDCHAR
STARTCHAR char0x3159
ENCODING 12633
SWIDTH 1333 0
DWIDTH 16 0
BBX 16 16 0 0
BITMAP
0000
0037
0037
0037
0037
0037
0037
0E3F
0E37
0E37
0E37
0E37
7FF7
0037
0000
0000
ENDCHAR
STARTCHAR char0x315A
ENCODING 12634
SWIDTH 1333 0
DWIDTH 16 0
BBX 16 16 0 0
BITMAP
0000
000E
000E
000E
000E
000E
000E
0E0E
0E0E
0E0E
0E0E
0E0E
7FFE
000E
0000
0000
ENDCHAR
STARTCHAR char0x315B
ENCODING 12635
SWIDTH 1333 0
DWIDTH 16 0
BBX 16 16 0 0
BITMAP
0000
0000
0000
0000
0000
0000
0000
0EE0
0EE0
0EE0
0EE0
0EE0
7FFF
0000
0000
0000
ENDCHAR
STARTCHAR char0x315C
ENCODING 12636
SWIDTH 1333 0
DWIDTH 16 0
BBX 16 16 0 0
BITMAP
0000
0000
0000
0000
0000
0000
0000
0000
0000
7FFF
01C0
01C0
01C0
01C0
0000
0000
ENDCHAR
STARTCHAR char0x315D
ENCODING 12637
SWIDTH 1333 0
DWIDTH 16 0
BBX 16 16 0 0
BITMAP
0000
000E
000E
000E
000E
000E
000E
000E
7FFE
0E0E
0EFE
0E0E
0E0E
0E0E
0000
0000
ENDCHAR
STARTCHAR char0x315E
ENCODING 12638
SWIDTH 1333 0
DWIDTH 16 0
BBX 16 16 0 0
BITMAP
0000
0037
0037
0037
0037
0037
0037
0037
7FF7
0E37
0EF7
0E37
0E37
0E37
0000
0000
ENDCHAR
STARTCHAR char0x315F
ENCODING 12639
SWIDTH 1333 0
DWIDTH 16 0
BBX 16 16 0 0
BITMAP
0000
000E
000E
000E
000E
000E
000E
000E
7FFE
0E0E
0E0E
0E0E
0E0E
0E0E
0000
0000
ENDCHAR
STARTCHAR char0x3160
ENCODING 12640
SWIDTH 1333 0
DWIDTH 16 0
BBX 16 16 0 0
BITMAP
0000
0000
0000
0000
0000
0000
0000
0000
0000
7FFF
0E38
0E38
0E38
0E38
0000
0000
ENDCHAR
STARTCHAR char0x3161
ENCODING 12641
SWIDTH 1333 0
DWIDTH 16 0
BBX 16 16 0 0
BITMAP
0000
0000
0000
0000
0000
0000
0000
0000
0000
0000
0000
0000
7FFF
0000
0000
0000
ENDCHAR
STARTCHAR char0x3162
ENCODING 12642
SWIDTH 1333 0
DWIDTH 16 0
BBX 16 16 0 0
BITMAP
0000
000E
000E
000E
000E
000E
000E
000E
000E
000E
000E
000E
7FFE
000E
0000
0000
ENDCHAR
STARTCHAR char0x3163
ENCODING 12643
SWIDTH 1333 0
DWIDTH 16 0
BBX 16 16 0 0
BITMAP
0000
000E
000E
000E
000E
000E
000E
000E
000E
000E
000E
000E
000E
000E
0000
0000
ENDCHAR
STARTCHAR char0xAC00
ENCODING 44032
SWIDTH 1333 0
DWIDTH 16 0
BBX 16 16 0 0
BITMAP
0000
001C
7F1C
071C
071C
071C
071C
071F
071C
071C
071C
0E1C
3C1C
001C
0000
0000
ENDCHAR
STARTCHAR char0xAC01
ENCODING 44033
SWIDTH 1333 0
DWIDTH 16 0
BBX 16 16 0 0
BITMAP
0000
7F1C
071C
071C
071F
071C
071C
3E1C
0000
3FFC
001C
001C
001C
0018
0000
0000
ENDCHAR
STARTCHAR char0xAC02
ENCODING 44034
SWIDTH 1333 0
DWIDTH 16 0
BBX 16 16 0 0
BITMAP
0000
7F1C
071C
071C
071F
071C
071C
3E1C
0000
3FFC
039C
039C
039C
0318
0000
0000
ENDCHAR
STARTCHAR char0xAC03
ENCODING 44035
SWIDTH 1333 0
DWIDTH 16 0
BBX 16 16 0 0
BITMAP
0000
7F1C
071C
071C
071F
071C
071C
3E1C
0000
3F9C
039C
039C
03BE
0377
0000
0000
ENDCHAR
STARTCHAR char0xAC04
ENCODING 44036
SWIDTH 1333 0
DWIDTH 16 0
BBX 16 16 0 0
BITMAP
0000
7F1C
071C
071C
071F
071C
071C
3E1C
0000
3800
3800
3800
3800
1FFC
0000
0000
ENDCHAR
STARTCHAR char0xAC05
ENCODING 44037
SWIDTH 1333 0
DWIDTH 16 0
BBX 16 16 0 0
BITMAP
0000
7F1C
071C
071C
071F
071C
071C
3E1C
0000
39FC
3870
3870
38F8
1FDC
0000
0000
ENDCHAR
STARTCHAR char0xAC06
ENCODING 44038
SWIDTH 1333 0
DWIDTH 16 0
BBX 16 16 0 0
BITMAP
0000
7F1C
071C
071C
071F
071C
071C
3E1C
0000
3870
39FC
38F8
39DC
1EF8
0000
0000
ENDCHAR
STARTCHAR char0xAC07
ENCODING 44039
SWIDTH 1333 0
DWIDTH 16 0
BBX 16 16 0 0
BITMAP
0000
7F1C
071C
071C
071F
071C
071C
3E1C
0000
3FFC
3800
3800
3800
1FFC
0000
0000
ENDCHAR
STARTCHAR char0xAC08
ENCODING 44040
SWIDTH 1333 0
DWIDTH 16 0
BBX 16 16 0 0
BITMAP
0000
7F1C
071C
071C
071F
071C
071C
3E1C
0000
3FFC
001C
3FFC
3800
1FFC
0000
0000
ENDCHAR
STARTCHAR char0xAC09
ENCODING 44041
SWIDTH 1333 0
DWIDTH 16 0
BBX 16 16 0 0
BITMAP
0000
7F1C
071C
071C
071F
071C
071C
3E1C
0000
3FFC
071C
3F1C
381C
1F18
0000
0000
ENDCHAR
STARTCHAR char0xAC0A
ENCODING 44042
SWIDTH 1333 0
DWIDTH 16 0
BBX 16 16 0 0
BITMAP
0000
7F1C
071C
071C
071F
071C
071C
3E1C
0000
3EFC
0EDC
3EDC
38DC
1E78
0000
0000
ENDCHAR
STARTCHAR char0xAC0B
ENCODING 44043
SWIDTH 1333 0
DWIDTH 16 0
BBX 16 16 0 0
BITMAP
0000
7F1C
071C
071C
071F
071C
071C
3E1C
0000
3EDC
0EDC
3EFC
38DC
1E78
0000
0000
ENDCHAR
STARTCHAR char0xAC0C
ENCODING 44044
SWIDTH 1333 0
DWIDTH 16 0
BBX 16 16 0 0
BITMAP
0000
7F1C
071C
071C
071F
071C
071C
3E1C
0000
3F38
0738
3F38
387C
1FEE
0000
0000
ENDCHAR
STARTCHAR char0xAC0D
ENCODING 44045
SWIDTH 1333 0
DWIDTH 16 0
BBX 16 16 0 0
BITMAP
0000
7F1C
071C
071C
071F
071C
071C
3E1C
0000
3EFC
0EE0
3EFC
38E0
1EFC
0000
0000
ENDCHAR
STARTCHAR char0xAC0E
ENCODING 44046
SWIDTH 1333 0
DWIDTH 16 0
BBX 16 16 0 0
BITMAP
0000
7F1C
071C
071C
071F
071C
071C
3E1C
0000
3FFC
0ED8
3ED8
38D8
1FFC
0000
0000
ENDCHAR
STARTCHAR char0xAC0F
ENCODING 44047
SWIDTH 1333 0
DWIDTH 16 0
BBX 16 16 0 0
BITMAP
0000
7F1C
071C
071C
071F
071C
071C
3E1C
0000
3E70
0FFC
3EF8
39DC
1EF8
0000
0000
ENDCHAR
STARTCHAR char0xAC10
ENCODING 44048
SWIDTH 1333 0
DWIDTH 16 0
BBX 16 16 0 0
BITMAP
0000
7F1C
071C
071C
071F
071C
071C
3E1C
0000
3FFC
381C
381C
381C
1FF8
0000
0000
ENDCHAR
STARTCHAR char0xAC11
ENCODING 44049
SWIDTH 1333 0
DWIDTH 16 0
BBX 16 16 0 0
BITMAP
0000
7F1C
071C
071C
071F
071C
071C
3E1C
0000
381C
381C
3FFC
381C
1FF8
0000
0000
ENDCHAR
STARTCHAR char0xAC12
ENCODING 44050
SWIDTH 1333 0
DWIDTH 16 0
BBX 16 16 0 0
BITMAP
0000
7F1C
071C
071C
071F
071C
071C
3E1C
0000
3738
3738
3F38
377C
1EEE
0000
0000
ENDCHAR
STARTCHAR char0xAC13
ENCODING 44051
SWIDTH 1333 0
DWIDTH 16 0
BBX 16 16 0 0
BITMAP
0000
7F1C
071C
071C
071F
071C
071C
3E1C
0000
0380
0380
07C0
0EE0
7C7C
0000
0000
ENDCHAR
STARTCHAR char0xAC14
ENCODING 44052
SWIDTH 1333 0
DWIDTH 16 0
BBX 16 16 0 0
BITMAP
0000
7F1C
071C
071C
071F
071C
071C
3E1C
0000
0E38
0E38
0E38
1F7C
3BEE
0000
0000
ENDCHAR
STARTCHAR char0xAC15
ENCODING 44053
SWIDTH 1333 0
DWIDTH 16 0
BBX 16 16 0 0
BITMAP
0000
7F1C
071C
071C
071F
071C
071C
3E1C
0000
1FF8
381C
381C
381C
1FF8
0000
0000
ENDCHAR
STARTCHAR char0xAC16
ENCODING 44054
SWIDTH 1333 0
DWIDTH 16 0
BBX 16 16 0 0
BITMAP
0000
7F1C
071C
071C
071F
071C
071C
3E1C
0000
7FFC
0380
07C0
0EE0
7C7C
0000
0000
ENDCHAR
STARTCHAR char0xAC17
ENCODING 44055
SWIDTH 1333 0
DWIDTH 16 0
BBX 16 16 0 0
BITMAP
0000
7F1C
071C
071C
071F
071C
071C
3E1C
0380
7FFC
0380
07C0
0EE0
7C7C
0000
0000
ENDCHAR
STARTCHAR char0xAC18
ENCODING 44056
SWIDTH 1333 0
DWIDTH 16 0
BBX 16 16 0 0
BITMAP
0000
7F1C
071C
071C
071F
071C
071C
3E1C
0000
3FFC
001C
3FFC
001C
0018
0000
0000
ENDCHAR
STARTCHAR char0xAC19
ENCODING 44057
SWIDTH 1333 0
DWIDTH 16 0
BBX 16 16 0 0
BITMAP
0000
7F1C
071C
071C
071F
071C
071C
3E1C
0000
3FFC
3800
3FFC
3800
1FFC
0000
0000
ENDCHAR
STARTCHAR char0xAC1A
ENCODING 44058
SWIDTH 1333 0
DWIDTH 16 0
BBX 16 16 0 0
BITMAP
0000
7F1C
071C
071C
071F
071C
071C
3E1C
0000
3FFC
0E70
0E70
0E70
3FFC
0000
0000
ENDCHAR
STARTCHAR char0xAC1B
ENCODING 44059
SWIDTH 1333 0
DWIDTH 16 0
BBX 16 16 0 0
BITMAP
0000
7F1C
071C
071C
071F
071C
071C
3E1C
03C0
3FFC
1FF8
381C
381C
1FF8
0000
0000
ENDCHAR
STARTCHAR char0xAC1C
ENCODING 44060
SWIDTH 1333 0
DWIDTH 16 0
BBX 16 16 0 0
BITMAP
0000
0037
7F37
0737
0737
0737
0737
073F
0737
0737
0737
0E37
3C37
0037
0000
0000
ENDCHAR
STARTCHAR char0xAC1D
ENCODING 44061
SWIDTH 1333 0
DWIDTH 16 0
BBX 16 16 0 0
BITMAP
0000
7F37
0737
0737
073F
0737
0737
3E37
0000
3FFF
0007
0007
0007
0006
0000
0000
ENDCHAR
STARTCHAR char0xAC1E
ENCODING 44062
SWIDTH 1333 0
DWIDTH 16 0
BBX 16 16 0 0
BITMAP
0000
7F37
0737
0737
073F
0737
0737
3E37
0000
3FFF
0387
0387
0387
0306
0000
0000
ENDCHAR
STARTCHAR char0xAC1F
ENCODING 44063
SWIDTH 1333 0
DWIDTH 16 0
BBX 16 16 0 0
BITMAP
0000
7F37
0737
0737
073F
0737
0737
3E37
0000
3F9C
039C
039C
03BE
0367
0000
0000
ENDCHAR
STARTCHAR char0xAC20
ENCODING 44064
SWIDTH 1333 0
DWIDTH 16 0
BBX 16 16 0 0
BITMAP
0000
7F37
0737
0737
073F
0737
0737
3E37
0000
3800
3800
3800
3800
1FFF
0000
0000
ENDCHAR
STARTCHAR char0xAC21
ENCODING 44065
SWIDTH 1333 0
DWIDTH 16 0
BBX 16 16 0 0
BITMAP
0000
7F37
0737
0737
073F
0737
0737
3E37
0000
387F
381C
381C
383E
1FF7
0000
0000
ENDCHAR
STARTCHAR char0xAC22
ENCODING 44066
SWIDTH 1333 0
DWIDTH 16 0
BBX 16 16 0 0
BITMAP
0000
7F37
0737
0737
073F
0737
0737
3E37
0000
383C
38FF
387E
38E7
1F7E
0000
0000
ENDCHAR
STARTCHAR char0xAC23
ENCODING 44067
SWIDTH 1333 0
DWIDTH 16 0
BBX 16 16 0 0
BITMAP
0000
7F37
0737
0737
073F
0737
0737
3E37
0000
3FFF
3800
3800
3800
1FFF
0000
0000
ENDCHAR
STARTCHAR char0xAC24
ENCODING 44068
SWIDTH 1333 0
DWIDTH 16 0
BBX 16 16 0 0
BITMAP
0000
7F37
0737
0737
073F
0737
0737
3E37
0000
3FFF
0007
3FFF
3800
1FFF
0000
0000
ENDCHAR
STARTCHAR char0xAC25
ENCODING 44069
SWIDTH 1333 0
DWIDTH 16 0
BBX 16 16 0 0
BITMAP
0000
7F37
0737
0737
073F
0737
0737
3E37
0000
3F7F
0707
3F07
3807
1F06
0000
0000
ENDCHAR
STARTCHAR char0xAC26
ENCODING 44070
SWIDTH 1333 0
DWIDTH 16 0
BBX 16 16 0 0
BITMAP
0000
7F37
0737
0737
073F
0737
0737
3E37
0000
3F7F
0777
3F77
3877
1F3E
0000
0000
ENDCHAR
STARTCHAR char0xAC27
ENCODING 44071
SWIDTH 1333 0
DWIDTH 16 0
BBX 16 16 0 0
BITMAP
0000
7F37
0737
0737
073F
0737
0737
3E37
0000
3F77
0777
3F7F
3877
1F3E
0000
0000
ENDCHAR
STARTCHAR char0xAC28
ENCODING 44072
SWIDTH 1333 0
DWIDTH 16 0
BBX 16 16 0 0
BITMAP
0000
7F37
0737
0737
073F
0737
0737
3E37
0000
3F9C
039C
3F9C
383E
1FF7
0000
0000
ENDCHAR
STARTCHAR char0xAC29
ENCODING 44073
SWIDTH 1333 0
DWIDTH 16 0
BBX 16 16 0 0
BITMAP
0000
7F37
0737
0737
073F
0737
0737
3E37
0000
3F7F
0770
3F7F
3870
1F7F
0000
0000
ENDCHAR
STARTCHAR char0xAC2A
ENCODING 44074
SWIDTH 1333 0
DWIDTH 16 0
BBX 16 16 0 0
BITMAP
0000
7F37
0737
0737
073F
0737
0737
3E37
0000
3F7F
0736
3F36
3836
1F7F
0000
0000
ENDCHAR
STARTCHAR char0xAC2B
ENCODING 44075
SWIDTH 1333 0
DWIDTH 16 0
BBX 16 16 0 0
BITMAP
0000
7F37
0737
0737
073F
0737
0737
3E37
0000
3F3C
07FF
3F7E
38E7
1F7E
0000
0000
ENDCHAR
STARTCHAR char0xAC2C
ENCODING 44076
SWIDTH 1333 0
DWIDTH 16 0
BBX 16 16 0 0
BITMAP
0000
7F37
0737
0737
073F
0737
0737
3E37
0000
3FFF
3807
3807
3807
1FFE
0000
0000
ENDCHAR
STARTCHAR char0xAC2D
ENCODING 44077
SWIDTH 1333 0
DWIDTH 16 0
BBX 16 16 0 0
BITMAP
0000
7F37
0737
0737
073F
0737
0737
3E37
0000
3807
3807
3FFF
3807
1FFE
0000
0000
ENDCHAR
STARTCHAR char0xAC2E
ENCODING 44078
SWIDTH 1333 0
DWIDTH 16 0
BBX 16 16 0 0
BITMAP
0000
7F37
0737
0737
073F
0737
0737
3E37
0000
3B9C
3B9C
3F9C
3BBE
1F77
0000
0000
ENDCHAR
STARTCHAR char0xAC2F
ENCODING 44079
SWIDTH 1333 0
DWIDTH 16 0
BBX 16 16 0 0
BITMAP
0000
7F37
0737
0737
073F
0737
0737
3E37
0000
01E0
01E0
03F0
0738
3E1F
0000
0000
ENDCHAR
STARTCHAR char0xAC30
ENCODING 44080
SWIDTH 1333 0
DWIDTH 16 0
BBX 16 16 0 0
BITMAP
0000
7F37
0737
0737
073F
0737
0737
3E37
0000
0E1C
0E1C
0E1C
1F3E
3BF7
0000
0000
ENDCHAR
STARTCHAR char0xAC31
ENCODING 44081
SWIDTH 1333 0
DWIDTH 16 0
BBX 16 16 0 0
BITMAP
0000
7F37
0737
0737
073F
0737
0737
3E37
0000
1FFE
3807
3807
3807
1FFE
0000
0000
ENDCHAR
STARTCHAR char0xAC32
ENCODING 44082
SWIDTH 1333 0
DWIDTH 16 0
BBX 16 16 0 0
BITMAP
0000
7F37
0737
0737
073F
0737
0737
3E37
0000
3FFF
01E0
03F0
0738
3E1F
0000
0000
ENDCHAR
STARTCHAR char0xAC33
ENCODING 44083
SWIDTH 1333 0
DWIDTH 16 0
BBX 16 16 0 0
BITMAP
0000
7F37
0737
0737
073F
0737
0737
3E37
0000
01E0
3FFF
03F0
0738
3E1F
0000
0000
ENDCHAR
STARTCHAR char0xAC34
ENCODING 44084
SWIDTH 1333 0
DWIDTH 16 0
BBX 16 16 0 0
BITMAP
0000
7F37
0737
0737
073F
0737
0737
3E37
0000
3FFF
0007
3FFF
0007
0006
0000
0000
ENDCHAR
STARTCHAR char0xAC35
ENCODING 44085
SWIDTH 1333 0
DWIDTH 16 0
BBX 16 16 0 0
BITMAP
0000
7F37
0737
0737
073F
0737
0737
3E37
0000
3FFF
3800
3FFF
3800
1FFF
0000
0000
ENDCHAR
STARTCHAR char0xAC36
ENCODING 44086
SWIDTH 1333 0
DWIDTH 16 0
BBX 16 16 0 0
BITMAP
0000
7F37
0737
0737
073F
0737
0737
3E37
0000
3FFF
0E1C
0E1C
0E1C
3FFF
0000
0000
ENDCHAR
STARTCHAR char0xAC37
ENCODING 44087
SWIDTH 1333 0
DWIDTH 16 0
BBX 16 16 0 0
BITMAP
0000
7F37
0737
0737
073F
0737
0737
3E37
0000
01E0
3FFF
1FFE
3807
1FFE
0000
0000
ENDCHAR
STARTCHAR char0xAC38
ENCODING 44088
SWIDTH 1333 0
DWIDTH 16 0
BBX 16 16 0 0
BITMAP
0000
001C
7F1C
071C
071C
071F
071C
071C
071C
071F
071C
0E1C
3C1C
001C
0000
0000
ENDCHAR
STARTCHAR char0xAC39
ENCODING 44089
SWIDTH 1333 0
DWIDTH 16 0
BBX 16 16 0 0
BITMAP
0000
7F1C
071C
071F
071C
071F
071C
3E1C
0000
3FFC
001C
001C
001C
0018
0000
0000
ENDCHAR
STARTCHAR char0xAC3A
ENCODING 44090
SWIDTH 1333 0
DWIDTH 16 0
BBX 16 16 0 0
BITMAP
0000
7F1C
071C
071F
071C
071F
071C
3E1C
0000
3FFC
039C
039C
039C
0318
0000
0000
ENDCHAR
STARTCHAR char0xAC3B
ENCODING 44091
SWIDTH 1333 0
DWIDTH 16 0
BBX 16 16 0 0
BITMAP
0000
7F1C
071C
071F
071C
071F
071C
3E1C
0000
3F9C
039C
039C
03BE
0377
0000
0000
ENDCHAR
STARTCHAR char0xAC3C
ENCODING 44092
SWIDTH 1333 0
DWIDTH 16 0
BBX 16 16 0 0
BITMAP
0000
7F1C
071C
071F
071C
071F
071C
3E1C
0000
3800
3800
3800
3800
1FFC
0000
0000
ENDCHAR
STARTCHAR char0xAC3D
ENCODING 44093
SWIDTH 1333 0
DWIDTH 16 0
BBX 16 16 0 0
BITMAP
0000
7F1C
071C
071F
071C
071F
071C
3E1C
0000
39FC
3870
3870
38F8
1FDC
0000
0000
ENDCHAR
STARTCHAR char0xAC3E
ENCODING 44094
SWIDTH 1333 0
DWIDTH 16 0
BBX 16 16 0 0
BITMAP
0000
7F1C
071C
071F
071C
071F
071C
3E1C
0000
3870
39FC
38F8
39DC
1EF8
0000
0000
ENDCHAR
STARTCHAR char0xAC3F
ENCODING 44095
SWIDTH 1333 0
DWIDTH 16 0
BBX 16 16 0 0
BITMAP
0000
7F1C
071C
071F
071C
071F
071C
3E1C
0000
3FFC
3800
3800
3800
1FFC
0000
0000
ENDCHAR
STARTCHAR char0xAC40
ENCODING 44096
SWIDTH 1333 0
DWIDTH 16 0
BBX 16 16 0 0
BITMAP
0000
7F1C
071C
071F
071C
071F
071C
3E1C
0000
3FFC
001C
3FFC
3800
1FFC
0000
0000
ENDCHAR
STARTCHAR char0xAC41
ENCODING 44097
SWIDTH 1333 0
DWIDTH 16 0
BBX 16 16 0 0
BITMAP
0000
7F1C
071C
071F
071C
071F
071C
3E1C
0000
3FFC
071C
3F1C
381C
1F18
0000
0000
ENDCHAR
STARTCHAR char0xAC42
ENCODING 44098
SWIDTH 1333 0
DWIDTH 16 0
BBX 16 16 0 0
BITMAP
0000
7F1C
071C
071F
071C
071F
071C
3E1C
0000
3EFC
0EDC
3EDC
38DC
1E78
0000
0000
ENDCHAR
STARTCHAR char0xAC43
ENCODING 44099
SWIDTH 1333 0
DWIDTH 16 0
BBX 16 16 0 0
BITMAP
0000
7F1C
071C
071F
071C
071F
071C
3E1C
0000
3EDC
0EDC
3EFC
38DC
1E78
0000
0000
ENDCHAR
STARTCHAR char0xAC44
ENCODING 44100
SWIDTH 1333 0
DWIDTH 16 0
BBX 16 16 0 0
BITMAP
0000
7F1C
071C
071F
071C
071F
071C
3E1C
0000
3F38
0738
3F38
387C
1FEE
0000
0000
ENDCHAR
STARTCHAR char0xAC45
ENCODING 44101
SWIDTH 1333 0
DWIDTH 16 0
BBX 16 16 0 0
BITMAP
0000
7F1C
071C
071F
071C
071F
071C
3E1C
0000
3EFC
0EE0
3EFC
38E0
1EFC
0000
0000
ENDCHAR
STARTCHAR char0xAC46
ENCODING 44102
SWIDTH 1333 0
DWIDTH 16 0
BBX 16 16 0 0
BITMAP
0000
7F1C
071C
071F
071C
071F
071C
3E1C
0000
3FFC
0ED8
3ED8
38D8
1FFC
0000
0000
ENDCHAR
STARTCHAR char0xAC47
ENCODING 44103
SWIDTH 1333 0
DWIDTH 16 0
BBX 16 16 0 0
BITMAP
0000
7F1C
071C
071F
071C
071F
071C
3E1C
0000
3E70
0FFC
3EF8
39DC
1EF8
0000
0000
ENDCHAR
STARTCHAR char0xAC48
ENCODING 44104
SWIDTH 1333 0
DWIDTH 16 0
BBX 16 16 0 0
BITMAP
0000
7F1C
071C
071F
071C
071F
071C
3E1C
0000
3FFC
381C
381C
381C
1FF8
0000
0000
ENDCHAR
STARTCHAR char0xAC49
ENCODING 44105
SWIDTH 1333 0
DWIDTH 16 0
BBX 16 16 0 0
BITMAP
0000
7F1C
071C
071F
071C
071F
071C
3E1C
0000
381C
381C
3FFC
381C
1FF8
0000
0000
ENDCHAR
STARTCHAR char0xAC4A
ENCODING 44106
SWIDTH 1333 0
DWIDTH 16 0
BBX 16 16 0 0
BITMAP
0000
7F1C
071C
071F
071C
071F
071C
3E1C
0000
3738
3738
3F38
377C
1EEE
0000
0000
ENDCHAR
STARTCHAR char0xAC4B
ENCODING 44107
SWIDTH 1333 0
DWIDTH 16 0
BBX 16 16 0 0
BITMAP
0000
7F1C
071C
071F
071C
071F
071C
3E1C
0000
0380
0380
07C0
0EE0
7C7C
0000
0000
ENDCHAR
STARTCHAR char0xAC4C
ENCODING 44108
SWIDTH 1333 0
DWIDTH 16 0
BBX 16 16 0 0
BITMAP
0000
7F1C
071C
071F
071C
071F
071C
3E1C
0000
0E38
0E38
0E38
1F7C
3BEE
0000
0000
ENDCHAR
STARTCHAR char0xAC4D
ENCODING 44109
SWIDTH 1333 0
DWIDTH 16 0
BBX 16 16 0 0
BITMAP
0000
7F1C
071C
071F
071C
071F
071C
3E1C
0000
1FF8
381C
381C
381C
1FF8
0000
0000
ENDCHAR
STARTCHAR char0xAC4E
ENCODING 44110
SWIDTH 1333 0
DWIDTH 16 0
BBX 16 16 0 0
BITMAP
0000
7F1C
071C
071F
071C
071F
071C
3E1C
0000
7FFC
0380
07C0
0EE0
7C7C
0000
0000
ENDCHAR
STARTCHAR char0xAC4F
ENCODING 44111
SWIDTH 1333 0
DWIDTH 16 0
BBX 16 16 0 0
BITMAP
0000
7F1C
071C
071F
071C
071F
071C
3E1C
0380
7FFC
0380
07C0
0EE0
7C7C
0000
0000
ENDCHAR
STARTCHAR char0xAC50
ENCODING 44112
SWIDTH 1333 0
DWIDTH 16 0
BBX 16 16 0 0
BITMAP
0000
7F1C
071C
071F
071C
071F
071C
3E1C
0000
3FFC
001C
3FFC
001C
0018
0000
0000
ENDCHAR
STARTCHAR char0xAC51
ENCODING 44113
SWIDTH 1333 0
DWIDTH 16 0
BBX 16 16 0 0
BITMAP
0000
7F1C
071C
071F
071C
071F
071C
3E1C
0000
3FFC
3800
3FFC
3800
1FFC
0000
0000
ENDCHAR
STARTCHAR char0xAC52
ENCODING 44114
SWIDTH 1333 0
DWIDTH 16 0
BBX 16 16 0 0
BITMAP
0000
7F1C
071C
071F
071C
071F
071C
3E1C
0000
3FFC
0E70
0E70
0E70
3FFC
0000
0000
ENDCHAR
STARTCHAR char0xAC53
ENCODING 44115
SWIDTH 1333 0
DWIDTH 16 0
BBX 16 16 0 0
BITMAP
0000
7F1C
071C
071F
071C
071F
071C
3E1C
03C0
3FFC
1FF8
381C
381C
1FF8
0000
0000
ENDCHAR
STARTCHAR char0xAC54
ENCODING 44116
SWIDTH 1333 0
DWIDTH 16 0
BBX 16 16 0 0
BITMAP
0000
0037
7F37
0737
0737
073F
0737
0737
0737
073F
0737
0E37
3C37
0037
0000
0000
ENDCHAR
STARTCHAR char0xAC55
ENCODING 44117
SWIDTH 1333 0
DWIDTH 16 0
BBX 16 16 0 0
BITMAP
0000
7F37
0737
073F
0737
073F
0737
3E37
0000
3FFF
0007
0007
0007
0006
0000
0000
ENDCHAR
STARTCHAR char0xAC56
ENCODING 44118
SWIDTH 1333 0
DWIDTH 16 0
BBX 16 16 0 0
BITMAP
0000
7F37
0737
073F
0737
073F
0737
3E37
0000
3FFF
0387
0387
0387
0306
0000
0000
ENDCHAR
STARTCHAR char0xAC57
ENCODING 44119
SWIDTH 1333 0
DWIDTH 16 0
BBX 16 16 0 0
BITMAP
0000
7F37
0737
073F
0737
073F
0737
3E37
0000
3F9C
039C
039C
03BE
0367
0000
0000
ENDCHAR
STARTCHAR char0xAC58
ENCODING 44120
SWIDTH 1333 0
DWIDTH 16 0
BBX 16 16 0 0
BITMAP
0000
7F37
0737
073F
0737
073F
0737
3E37
0000
3800
3800
3800
3800
1FFF
0000
0000
ENDCHAR
STARTCHAR char0xAC59
ENCODING 44121
SWIDTH 1333 0
DWIDTH 16 0
BBX 16 16 0 0
BITMAP
0000
7F37
0737
073F
0737
073F
0737
3E37
0000
387F
381C
381C
383E
1FF7
0000
0000
ENDCHAR
STARTCHAR char0xAC5A
ENCODING 44122
SWIDTH 1333 0
DWIDTH 16 0
BBX 16 16 0 0
BITMAP
0000
7F37
0737
073F
0737
073F
0737
3E37
0000
383C
38FF
387E
38E7
1F7E
0000
0000
ENDCHAR
STARTCHAR char0xAC5B
ENCODING 44123
SWIDTH 1333 0
DWIDTH 16 0
BBX 16 16 0 0
BITMAP
0000
7F37
0737
073F
0737
073F
0737
3E37
0000
3FFF
3800
3800
3800
1FFF
0000
0000
ENDCHAR
STARTCHAR char0xAC5C
ENCODING 44124
SWIDTH 1333 0
DWIDTH 16 0
BBX 16 16 0 0
BITMAP
0000
7F37
0737
073F
0737
073F
0737
3E37
0000
3FFF
0007
3FFF
3800
1FFF
0000
0000
ENDCHAR
STARTCHAR char0xAC5D
ENCODING 44125
SWIDTH 1333 0
DWIDTH 16 0
BBX 16 16 0 0
BITMAP
0000
7F37
0737
073F
0737
073F
0737
3E37
0000
3F7F
0707
3F07
3807
1F06
0000
0000
ENDCHAR
STARTCHAR char0xAC5E
ENCODING 44126
SWIDTH 1333 0
DWIDTH 16 0
BBX 16 16 0 0
BITMAP
0000
7F37
0737
073F
0737
073F
0737
3E37
0000
3F7F
0777
3F77
3877
1F3E
0000
0000
ENDCHAR
STARTCHAR char0xAC5F
ENCODING 44127
SWIDTH 1333 0
DWIDTH 16 0
BBX 16 16 0 0
BITMAP
0000
7F37
0737
073F
0737
073F
0737
3E37
0000
3F77
0777
3F7F
3877
1F3E
0000
0000
ENDCHAR
STARTCHAR char0xAC60
ENCODING 44128
SWIDTH 1333 0
DWIDTH 16 0
BBX 16 16 0 0
BITMAP
0000
7F37
0737
073F
0737
073F
0737
3E37
0000
3F9C
039C
3F9C
383E
1FF7
0000
0000
ENDCHAR
STARTCHAR char0xAC61
ENCODING 44129
SWIDTH 1333 0
DWIDTH 16 0
BBX 16 16 0 0
BITMAP
0000
7F37
0737
073F
0737
073F
0737
3E37
0000
3F7F
0770
3F7F
3870
1F7F
0000
0000
ENDCHAR
STARTCHAR char0xAC62
ENCODING 44130
SWIDTH 1333 0
DWIDTH 16 0
BBX 16 16 0 0
BITMAP
0000
7F37
0737
073F
0737
073F
0737
3E37
0000
3F7F
0736
3F36
3836
1F7F
0000
0000
ENDCHAR
STARTCHAR char0xAC63
ENCODING 44131
SWIDTH 1333 0
DWIDTH 16 0
BBX 16 16 0 0
BITMAP
0000
7F37
0737
073F
0737
073F
0737
3E37
0000
3F3C
07FF
3F7E
38E7
1F7E
0000
0000
ENDCHAR
STARTCHAR char0xAC64
ENCODING 44132
SWIDTH 1333 0
DWIDTH 16 0
BBX 16 16 0 0
BITMAP
0000
7F37
0737
073F
0737
073F
0737
3E37
0000
3FFF
3807
3807
3807
1FFE
0000
0000
ENDCHAR
STARTCHAR char0xAC65
ENCODING 44133
SWIDTH 1333 0
DWIDTH 16 0
BBX 16 16 0 0
BITMAP
0000
7F37
0737
073F
0737
073F
0737
3E37
0000
3807
3807
3FFF
3807
1FFE
0000
0000
ENDCHAR
STARTCHAR char0xAC66
ENCODING 44134
SWIDTH 1333 0
DWIDTH 16 0
BBX 16 16 0 0
BITMAP
0000
7F37
0737
073F
0737
073F
0737
3E37
0000
3B9C
3B9C
3F9C
3BBE
1F77
0000
0000
ENDCHAR
STARTCHAR char0xAC67
ENCODING 44135
SWIDTH 1333 0
DWIDTH 16 0
BBX 16 16 0 0
BITMAP
0000
7F37
0737
073F
0737
073F
0737
3E37
0000
01E0
01E0
03F0
0738
3E1F
0000
0000
ENDCHAR
STARTCHAR char0xAC68
ENCODING 44136
SWIDTH 1333 0
DWIDTH 16 0
BBX 16 16 0 0
BITMAP
0000
7F37
0737
073F
0737
073F
0737
3E37
0000
0E1C
0E1C
0E1C
1F3E
3BF7
0000
0000
ENDCHAR
STARTCHAR char0xAC69
ENCODING 44137
SWIDTH 1333 0
DWIDTH 16 0
BBX 16 16 0 0
BITMAP
0000
7F37
0737
073F
0737
073F
0737
3E37
0000
1FFE
3807
3807
3807
1FFE
0000
0000
ENDCHAR
STARTCHAR char0xAC6A
ENCODING 44138
SWIDTH 1333 0
DWIDTH 16 0
BBX 16 16 0 0
BITMAP
0000
7F37
0737
073F
0737
073F
0737
3E37
0000
3FFF
01E0
03F0
0738
3E1F
0000
0000
ENDCHAR
STARTCHAR char0xAC6B
ENCODING 44139
SWIDTH 1333 0
DWIDTH 16 0
BBX 16 16 0 0
BITMAP
0000
7F37
0737
073F
0737
073F
0737
3E37
0000
01E0
3FFF
03F0
0738
3E1F
0000
0000
ENDCHAR
STARTCHAR char0xAC6C
ENCODING 44140
SWIDTH 1333 0
DWIDTH 16 0
BBX 16 16 0 0
BITMAP
0000
7F37
0737
073F
0737
073F
0737
3E37
0000
3FFF
0007
3FFF
0007
0006
0000
0000
ENDCHAR
STARTCHAR char0xAC6D
ENCODING 44141
SWIDTH 1333 0
DWIDTH 16 0
BBX 16 16 0 0
BITMAP
0000
7F37
0737
073F
0737
073F
0737
3E37
0000
3FFF
3800
3FFF
3800
1FFF
0000
0000
ENDCHAR
STARTCHAR char0xAC6E
ENCODING 44142
SWIDTH 1333 0
DWIDTH 16 0
BBX 16 16 0 0
BITMAP
0000
7F37
0737
073F
0737
073F
0737
3E37
0000
3FFF
0E1C
0E1C
0E1C
3FFF
0000
0000
ENDCHAR
STARTCHAR char0xAC6F
ENCODING 44143
SWIDTH 1333 0
DWIDTH 16 0
BBX 16 16 0 0
BITMAP
0000
7F37
0737
073F
0737
073F
0737
3E37
0000
01E0
3FFF
1FFE
3807
1FFE
0000
0000
ENDCHAR
STARTCHAR char0xAC70
ENCODING 44144
SWIDTH 1333 0
DWIDTH 16 0
BBX 16 16 0 0
BITMAP
0000
000E
7F0E
070E
070E
070E
070E
077E
070E
070E
070E
0E0E
3C0E
000E
0000
0000
ENDCHAR
STARTCHAR char0xAC71
ENCODING 44145
SWIDTH 1333 0
DWIDTH 16 0
BBX 16 16 0 0
BITMAP
0000
7F0E
070E
070E
077E
070E
070E
3E0E
0000
3FFE
000E
000E
000E
000C
0000
0000
ENDCHAR
STARTCHAR char0xAC72
ENCODING 44146
SWIDTH 1333 0
DWIDTH 16 0
BBX 16 16 0 0
BITMAP
0000
7F0E
070E
070E
077E
070E
070E
3E0E
0000
3FFE
038E
038E
038E
030C
0000
0000
ENDCHAR
STARTCHAR char0xAC73
ENCODING 44147
SWIDTH 1333 0
DWIDTH 16 0
BBX 16 16 0 0
BITMAP
0000
7F0E
070E
070E
077E
070E
070E
3E0E
0000
3F9C
039C
039C
03BE
0377
0000
0000
ENDCHAR
STARTCHAR char0xAC74
ENCODING 44148
SWIDTH 1333 0
DWIDTH 16 0
BBX 16 16 0 0
BITMAP
0000
7F0E
070E
070E
077E
070E
070E
3E0E
0000
3800
3800
3800
3800
1FFE
0000
0000
ENDCHAR
STARTCHAR char0xAC75
ENCODING 44149
SWIDTH 1333 0
DWIDTH 16 0
BBX 16 16 0 0
BITMAP
0000
7F0E
070E
070E
077E
070E
070E
3E0E
0000
38FE
3838
3838
387C
1FEE
0000
0000
ENDCHAR
STARTCHAR char0xAC76
ENCODING 44150
SWIDTH 1333 0
DWIDTH 16 0
BBX 16 16 0 0
BITMAP
0000
7F0E
070E
070E
077E
070E
070E
3E0E
0000
3878
39FE
38FC
39CE
1EFC
0000
0000
ENDCHAR
STARTCHAR char0xAC77
ENCODING 44151
SWIDTH 1333 0
DWIDTH 16 0
BBX 16 16 0 0
BITMAP
0000
7F0E
070E
070E
077E
070E
070E
3E0E
0000
3FFE
3800
3800
3800
1FFE
0000
0000
ENDCHAR
STARTCHAR char0xAC78
ENCODING 44152
SWIDTH 1333 0
DWIDTH 16 0
BBX 16 16 0 0
BITMAP
0000
7F0E
070E
070E
077E
070E
070E
3E0E
0000
3FFE
000E
3FFE
3800
1FFE
0000
0000
ENDCHAR
STARTCHAR char0xAC79
ENCODING 44153
SWIDTH 1333 0
DWIDTH 16 0
BBX 16 16 0 0
BITMAP
0000
7F0E
070E
070E
077E
070E
070E
3E0E
0000
3F7E
070E
3F0E
380E
1F0C
0000
0000
ENDCHAR
STARTCHAR char0xAC7A
ENCODING 44154
SWIDTH 1333 0
DWIDTH 16 0
BBX 16 16 0 0
BITMAP
0000
7F0E
070E
070E
077E
070E
070E
3E0E
0000
3EFE
0EEE
3EEE
38EE
1E7C
0000
0000
ENDCHAR
STARTCHAR char0xAC7B
ENCODING 44155
SWIDTH 1333 0
DWIDTH 16 0
BBX 16 16 0 0
BITMAP
0000
7F0E
070E
070E
077E
070E
070E
3E0E
0000
3EEE
0EEE
3EFE
38EE
1E7C
0000
0000
ENDCHAR
STARTCHAR char0xAC7C
ENCODING 44156
SWIDTH 1333 0
DWIDTH 16 0
BBX 16 16 0 0
BITMAP
0000
7F0E
070E
070E
077E
070E
070E
3E0E
0000
3F9C
039C
3F9C
383E
1FF7
0000
0000
ENDCHAR
STARTCHAR char0xAC7D
ENCODING 44157
SWIDTH 1333 0
DWIDTH 16 0
BBX 16 16 0 0
BITMAP
0000
7F0E
070E
070E
077E
070E
070E
3E0E
0000
3F7E
0770
3F7E
3870
1F7E
0000
0000
ENDCHAR
STARTCHAR char0xAC7E
ENCODING 44158
SWIDTH 1333 0
DWIDTH 16 0
BBX 16 16 0 0
BITMAP
0000
7F0E
070E
070E
077E
070E
070E
3E0E
0000
3EFE
0E6C
3E6C
386C
1EFE
0000
0000
ENDCHAR
STARTCHAR char0xAC7F
ENCODING 44159
SWIDTH 1333 0
DWIDTH 16 0
BBX 16 16 0 0
BITMAP
0000
7F0E
070E
070E
077E
070E
070E
3E0E
0000
3F38
07FE
3F7C
38EE
1F7C
0000
0000
ENDCHAR
STARTCHAR char0xAC80
ENCODING 44160
SWIDTH 1333 0
DWIDTH 16 0
BBX 16 16 0 0
BITMAP
0000
7F0E
070E
070E
077E
070E
070E
3E0E
0000
3FFE
380E
380E
380E
1FFC
0000
0000
ENDCHAR
STARTCHAR char0xAC81
ENCODING 44161
SWIDTH 1333 0
DWIDTH 16 0
BBX 16 16 0 0
BITMAP
0000
7F0E
070E
070E
077E
070E
070E
3E0E
0000
380E
380E
3FFE
380E
1FFC
0000
0000
ENDCHAR
STARTCHAR char0xAC82
ENCODING 44162
SWIDTH 1333 0
DWIDTH 16 0
BBX 16 16 0 0
BITMAP
0000
7F0E
070E
070E
077E
070E
070E
3E0E
0000
3B9C
3B9C
3F9C
3BBE
1F77
0000
0000
ENDCHAR
STARTCHAR char0xAC83
ENCODING 44163
SWIDTH 1333 0
DWIDTH 16 0
BBX 16 16 0 0
BITMAP
0000
7F0E
070E
070E
077E
070E
070E
3E0E
0000
01C0
01C0
03E0
0F78
380E
0000
0000
ENDCHAR
STARTCHAR char0xAC84
ENCODING 44164
SWIDTH 1333 0
DWIDTH 16 0
BBX 16 16 0 0
BITMAP
0000
7F0E
070E
070E
077E
070E
070E
3E0E
0000
0E1C
0E1C
0E1C
1F3E
3BF7
0000
0000
ENDCHAR
STARTCHAR char0xAC85
ENCODING 44165
SWIDTH 1333 0
DWIDTH 16 0
BBX 16 16 0 0
BITMAP
0000
7F0E
070E
070E
077E
070E
070E
3E0E
0000
1FFC
380E
380E
380E
1FFC
0000
0000
ENDCHAR
STARTCHAR char0xAC86
ENCODING 44166
SWIDTH 1333 0
DWIDTH 16 0
BBX 16 16 0 0
BITMAP
0000
7F0E
070E
070E
077E
070E
070E
3E0E
0000
3FFE
01C0
03E0
0770
3E3E
0000
0000
ENDCHAR
STARTCHAR char0xAC87
ENCODING 44167
SWIDTH 1333 0
DWIDTH 16 0
BBX 16 16 0 0
BITMAP
0000
7F0E
070E
070E
077E
070E
070E
3E0E
0000
03E0
3FFE
03E0
0770
3E3E
0000
0000
ENDCHAR
STARTCHAR char0xAC88
ENCODING 44168
SWIDTH 1333 0
DWIDTH 16 0
BBX 16 16 0 0
BITMAP
0000
7F0E
070E
070E
077E
070E
070E
3E0E
0000
3FFE
000E
3FFE
000E
000C
0000
0000
ENDCHAR
STARTCHAR char0xAC89
ENCODING 44169
SWIDTH 1333 0
DWIDTH 16 0
BBX 16 16 0 0
BITMAP
0000
7F0E
070E
070E
077E
070E
070E
3E0E
0000
3FFE
3800
3FFC
3800
1FFE
0000
0000
ENDCHAR
STARTCHAR char0xAC8A
ENCODING 44170
SWIDTH 1333 0
DWIDTH 16 0
BBX 16 16 0 0
BITMAP
0000
7F0E
070E
070E
077E
070E
070E
3E0E
0000
3FFE
0E38
0E38
0E38
3FFE
0000
0000
ENDCHAR
STARTCHAR char0xAC8B
ENCODING 44171
SWIDTH 1333 0
DWIDTH 16 0
BBX 16 16 0 0
BITMAP
0000
7F0E
070E
070E
077E
070E
070E
3E0E
0000
01C0
3FFE
1FFC
380E
1FFC
0000
0000
ENDCHAR
STARTCHAR char0xAC8C
ENCODING 44172
SWIDTH 1333 0
DWIDTH 16 0
BBX 16 16 0 0
BITMAP
0000
0037
7F37
0737
0737
0737
0737
07F7
0737
0737
0737
0E37
3C37
0037
0000
0000
ENDCHAR
STARTCHAR char0xAC8D
ENCODING 44173
SWIDTH 1333 0
DWIDTH 16 0
BBX 16 16 0 0
BITMAP
0000
7F37
0737
0737
07F7
0737
0737
3E37
0000
3FFF
0007
0007
0007
0006
0000
0000
ENDCHAR
STARTCHAR char0xAC8E
ENCODING 44174
SWIDTH 1333 0
DWIDTH 16 0
BBX 16 16 0 0
BITMAP
0000
7F37
0737
0737
07F7
0737
0737
3E37
0000
3FFF
0387
0387
0387
0306
0000
0000
ENDCHAR
STARTCHAR char0xAC8F
ENCODING 44175
SWIDTH 1333 0
DWIDTH 16 0
BBX 16 16 0 0
BITMAP
0000
7F37
0737
0737
07F7
0737
0737
3E37
0000
3F9C
039C
039C
03BE
0367
0000
0000
ENDCHAR
STARTCHAR char0xAC90
ENCODING 44176
SWIDTH 1333 0
DWIDTH 16 0
BBX 16 16 0 0
BITMAP
0000
7F37
0737
0737
07F7
0737
0737
3E37
0000
3800
3800
3800
3800
1FFF
0000
0000
ENDCHAR
STARTCHAR char0xAC91
ENCODING 44177
SWIDTH 1333 0
DWIDTH 16 0
BBX 16 16 0 0
BITMAP
0000
7F37
0737
0737
07F7
0737
0737
3E37
0000
387F
381C
381C
383E
1FF7
0000
0000
ENDCHAR
STARTCHAR char0xAC92
ENCODING 44178
SWIDTH 1333 0
DWIDTH 16 0
BBX 16 16 0 0
BITMAP
0000
7F37
0737
0737
07F7
0737
0737
3E37
0000
383C
38FF
387E
38E7
1F7E
0000
0000
ENDCHAR
STARTCHAR char0xAC93
ENCODING 44179
SWIDTH 1333 0
DWIDTH 16 0
BBX 16 16 0 0
BITMAP
0000
7F37
0737
0737
07F7
0737
0737
3E37
0000
3FFF
3800
3800
3800
1FFF
0000
0000
ENDCHAR
STARTCHAR char0xAC94
ENCODING 44180
SWIDTH 1333 0
DWIDTH 16 0
BBX 16 16 0 0
BITMAP
0000
7F37
0737
0737
07F7
0737
0737
3E37
0000
3FFF
0007
3FFF
3800
1FFF
0000
0000
ENDCHAR
STARTCHAR char0xAC95
ENCODING 44181
SWIDTH 1333 0
DWIDTH 16 0
BBX 16 16 0 0
BITMAP
0000
7F37
0737
0737
07F7
0737
0737
3E37
0000
3F7F
0707
3F07
3807
1F06
0000
0000
ENDCHAR
STARTCHAR char0xAC96
ENCODING 44182
SWIDTH 1333 0
DWIDTH 16 0
BBX 16 16 0 0
BITMAP
0000
7F37
0737
0737
07F7
0737
0737
3E37
0000
3F7F
0777
3F77
3877
1F3E
0000
0000
ENDCHAR
STARTCHAR char0xAC97
ENCODING 44183
SWIDTH 1333 0
DWIDTH 16 0
BBX 16 16 0 0
BITMAP
0000
7F37
0737
0737
07F7
0737
0737
3E37
0000
3F77
0777
3F7F
3877
1F3E
0000
0000
ENDCHAR
STARTCHAR char0xAC98
ENCODING 44184
SWIDTH 1333 0
DWIDTH 16 0
BBX 16 16 0 0
BITMAP
0000
7F37
0737
0737
07F7
0737
0737
3E37
0000
3F9C
039C
3F9C
383E
1FF7
0000
0000
ENDCHAR
STARTCHAR char0xAC99
ENCODING 44185
SWIDTH 1333 0
DWIDTH 16 0
BBX 16 16 0 0
BITMAP
0000
7F37
0737
0737
07F7
0737
0737
3E37
0000
3F7F
0770
3F7F
3870
1F7F
0000
0000
ENDCHAR
STARTCHAR char0xAC9A
ENCODING 44186
SWIDTH 1333 0
DWIDTH 16 0
BBX 16 16 0 0
BITMAP
0000
7F37
0737
0737
07F7
0737
0737
3E37
0000
3F7F
0736
3F36
3836
1F7F
0000
0000
ENDCHAR
STARTCHAR char0xAC9B
ENCODING 44187
SWIDTH 1333 0
DWIDTH 16 0
BBX 16 16 0 0
BITMAP
0000
7F37
0737
0737
07F7
0737
0737
3E37
0000
3F3C
07FF
3F7E
38E7
1F7E
0000
0000
ENDCHAR
STARTCHAR char0xAC9C
ENCODING 44188
SWIDTH 1333 0
DWIDTH 16 0
BBX 16 16 0 0
BITMAP
0000
7F37
0737
0737
07F7
0737
0737
3E37
0000
3FFF
3807
3807
3807
1FFE
0000
0000
ENDCHAR
STARTCHAR char0xAC9D
ENCODING 44189
SWIDTH 1333 0
DWIDTH 16 0
BBX 16 16 0 0
BITMAP
0000
7F37
0737
0737
07F7
0737
0737
3E37
0000
3807
3807
3FFF
3807
1FFE
0000
0000
ENDCHAR
STARTCHAR char0xAC9E
ENCODING 44190
SWIDTH 1333 0
DWIDTH 16 0
BBX 16 16 0 0
BITMAP
0000
7F37
0737
0737
07F7
0737
0737
3E37
0000
3B9C
3B9C
3F9C
3BBE
1F77
0000
0000
ENDCHAR
STARTCHAR char0xAC9F
ENCODING 44191
SWIDTH 1333 0
DWIDTH 16 0
BBX 16 16 0 0
BITMAP
0000
7F37
0737
0737
07F7
0737
0737
3E37
0000
01E0
01E0
03F0
0738
3E1F
0000
0000
ENDCHAR
STARTCHAR char0xACA0
ENCODING 44192
SWIDTH 1333 0
DWIDTH 16 0
BBX 16 16 0 0
BITMAP
0000
7F37
0737
0737
07F7
0737
0737
3E37
0000
0E1C
0E1C
0E1C
1F3E
3BF7
0000
0000
ENDCHAR
STARTCHAR char0xACA1
ENCODING 44193
SWIDTH 1333 0
DWIDTH 16 0
BBX 16 16 0 0
BITMAP
0000
7F37
0737
0737
07F7
0737
0737
3E37
0000
1FFE
3807
3807
3807
1FFE
0000
0000
ENDCHAR
STARTCHAR char0xACA2
ENCODING 44194
SWIDTH 1333 0
DWIDTH 16 0
BBX 16 16 0 0
BITMAP
0000
7F37
0737
0737
07F7
0737
0737
3E37
0000
3FFF
01E0
03F0
0738
3E1F
0000
0000
ENDCHAR
STARTCHAR char0xACA3
ENCODING 44195
SWIDTH 1333 0
DWIDTH 16 0
BBX 16 16 0 0
BITMAP
0000
7F37
0737
0737
07F7
0737
0737
3E37
0000
01E0
3FFF
03F0
0738
3E1F
0000
0000
ENDCHAR
STARTCHAR char0xACA4
ENCODING 44196
SWIDTH 1333 0
DWIDTH 16 0
BBX 16 16 0 0
BITMAP
0000
7F37
0737
0737
07F7
0737
0737
3E37
0000
3FFF
0007
3FFF
0007
0006
0000
0000
ENDCHAR
STARTCHAR char0xACA5
ENCODING 44197
SWIDTH 1333 0
DWIDTH 16 0
BBX 16 16 0 0
BITMAP
0000
7F37
0737
0737
07F7
0737
0737
3E37
0000
3FFF
3800
3FFF
3800
1FFF
0000
0000
ENDCHAR
STARTCHAR char0xACA6
ENCODING 44198
SWIDTH 1333 0
DWIDTH 16 0
BBX 16 16 0 0
BITMAP
0000
7F37
0737
0737
07F7
0737
0737
3E37
0000
3FFF
0E1C
0E1C
0E1C
3FFF
0000
0000
ENDCHAR
STARTCHAR char0xACA7
ENCODING 44199
SWIDTH 1333 0
DWIDTH 16 0
BBX 16 16 0 0
BITMAP
0000
7F37
0737
0737
07F7
0737
0737
3E37
0000
01E0
3FFF
1FFE
3807
1FFE
0000
0000
ENDCHAR
STARTCHAR char0xACA8
ENCODING 44200
SWIDTH 1333 0
DWIDTH 16 0
BBX 16 16 0 0
BITMAP
0000
000E
7F0E
070E
070E
077E
070E
070E
070E
077E
070E
0E0E
3C0E
000E
0000
0000
ENDCHAR
STARTCHAR char0xACA9
ENCODING 44201
SWIDTH 1333 0
DWIDTH 16 0
BBX 16 16 0 0
BITMAP
0000
7F0E
070E
077E
070E
077E
070E
3E0E
0000
3FFE
000E
000E
000E
000C
0000
0000
ENDCHAR
STARTCHAR char0xACAA
ENCODING 44202
SWIDTH 1333 0
DWIDTH 16 0
BBX 16 16 0 0
BITMAP
0000
7F0E
070E
077E
070E
077E
070E
3E0E
0000
3FFE
038E
038E
038E
030C
0000
0000
ENDCHAR
STARTCHAR char0xACAB
ENCODING 44203
SWIDTH 1333 0
DWIDTH 16 0
BBX 16 16 0 0
BITMAP
0000
7F0E
070E
077E
070E
077E
070E
3E0E
0000
3F9C
039C
039C
03BE
0377
0000
0000
ENDCHAR
STARTCHAR char0xACAC
ENCODING 44204
SWIDTH 1333 0
DWIDTH 16 0
BBX 16 16 0 0
BITMAP
0000
7F0E
070E
077E
070E
077E
070E
3E0E
0000
3800
3800
3800
3800
1FFE
0000
0000
ENDCHAR
STARTCHAR char0xACAD
ENCODING 44205
SWIDTH 1333 0
DWIDTH 16 0
BBX 16 16 0 0
BITMAP
0000
7F0E
070E
077E
070E
077E
070E
3E0E
0000
38FE
3838
3838
387C
1FEE
0000
0000
ENDCHAR
STARTCHAR char0xACAE
ENCODING 44206
SWIDTH 1333 0
DWIDTH 16 0
BBX 16 16 0 0
BITMAP
0000
7F0E
070E
077E
070E
077E
070E
3E0E
0000
3878
39FE
38FC
39CE
1EFC
0000
0000
ENDCHAR
STARTCHAR char0xACAF
ENCODING 44207
SWIDTH 1333 0
DWIDTH 16 0
BBX 16 16 0 0
BITMAP
0000
7F0E
070E
077E
070E
077E
070E
3E0E
0000
3FFE
3800
3800
3800
1FFE
0000
0000
ENDCHAR
STARTCHAR char0xACB0
ENCODING 44208
SWIDTH 1333 0
DWIDTH 16 0
BBX 16 16 0 0
BITMAP
0000
7F0E
070E
077E
070E
077E
070E
3E0E
0000
3FFE
000E
3FFE
3800
1FFE
0000
0000
ENDCHAR
STARTCHAR char0xACB1
ENCODING 44209
SWIDTH 1333 0
DWIDTH 16 0
BBX 16 16 0 0
BITMAP
0000
7F0E
070E
077E
070E
077E
070E
3E0E
0000
3F7E
070E
3F0E
380E
1F0C
0000
0000
ENDCHAR
STARTCHAR char0xACB2
ENCODING 44210
SWIDTH 1333 0
DWIDTH 16 0
BBX 16 16 0 0
BITMAP
0000
7F0E
070E
077E
070E
077E
070E
3E0E
0000
3EFE
0EEE
3EEE
38EE
1E7C
0000
0000
ENDCHAR
STARTCHAR char0xACB3
ENCODING 44211
SWIDTH 1333 0
DWIDTH 16 0
BBX 16 16 0 0
BITMAP
0000
7F0E
070E
077E
070E
077E
070E
3E0E
0000
3EEE
0EEE
3EFE
38EE
1E7C
0000
0000
ENDCHAR
STARTCHAR char0xACB4
ENCODING 44212
SWIDTH 1333 0
DWIDTH 16 0
BBX 16 16 0 0
BITMAP
0000
7F0E
070E
077E
070E
077E
070E
3E0E
0000
3F9C
039C
3F9C
383E
1FF7
0000
0000
ENDCHAR
STARTCHAR char0xACB5
ENCODING 44213
SWIDTH 1333 0
DWIDTH 16 0
BBX 16 16 0 0
BITMAP
0000
7F0E
070E
077E
070E
077E
070E
3E0E
0000
3F7E
0770
3F7E
3870
1F7E
0000
0000
ENDCHAR
STARTCHAR char0xACB6
ENCODING 44214
SWIDTH 1333 0
DWIDTH 16 0
BBX 16 16 0 0
BITMAP
0000
7F0E
070E
077E
070E
077E
070E
3E0E
0000
3EFE
0E6C
3E6C
386C
1EFE
0000
0000
ENDCHAR
STARTCHAR char0xACB7
ENCODING 44215
SWIDTH 1333 0
DWIDTH 16 0
BBX 16 16 0 0
BITMAP
0000
7F0E
070E
077E
070E
077E
070E
3E0E
0000
3F38
07FE
3F7C
38EE
1F7C
0000
0000
ENDCHAR
STARTCHAR char0xACB8
ENCODING 44216
SWIDTH 1333 0
DWIDTH 16 0
BBX 16 16 0 0
BITMAP
0000
7F0E
070E
077E
070E
077E
070E
3E0E
0000
3FFE
380E
380E
380E
1FFC
0000
0000
ENDCHAR
STARTCHAR char0xACB9
ENCODING 44217
SWIDTH 1333 0
DWIDTH 16 0
BBX 16 16 0 0
BITMAP
0000
7F0E
070E
077E
070E
077E
070E
3E0E
0000
380E
380E
3FFE
380E
1FFC
0000
0000
ENDCHAR
STARTCHAR char0xACBA
ENCODING 44218
SWIDTH 1333 0
DWIDTH 16 0
BBX 16 16 0 0
BITMAP
0000
7F0E
070E
077E
070E
077E
070E
3E0E
0000
3B9C
3B9C
3F9C
3BBE
1F77
0000
0000
ENDCHAR
STARTCHAR char0xACBB
ENCODING 44219
SWIDTH 1333 0
DWIDTH 16 0
BBX 16 16 0 0
BITMAP
0000
7F0E
070E
077E
070E
077E
070E
3E0E
0000
01C0
01C0
03E0
0F78
380E
0000
0000
ENDCHAR
STARTCHAR char0xACBC
ENCODING 44220
SWIDTH 1333 0
DWIDTH 16 0
BBX 16 16 0 0
BITMAP
0000
7F0E
070E
077E
070E
077E
070E
3E0E
0000
0E1C
0E1C
0E1C
1F3E
3BF7
0000
0000
ENDCHAR
STARTCHAR char0xACBD
ENCODING 44221
SWIDTH 1333 0
DWIDTH 16 0
BBX 16 16 0 0
BITMAP
0000
7F0E
070E
077E
070E
077E
070E
3E0E
0000
1FFC
380E
380E
380E
1FFC
0000
0000
ENDCHAR
STARTCHAR char0xACBE
ENCODING 44222
SWIDTH 1333 0
DWIDTH 16 0
BBX 16 16 0 0
BITMAP
0000
7F0E
070E
077E
070E
077E
070E
3E0E
0000
3FFE
01C0
03E0
0770
3E3E
0000
0000
ENDCHAR
STARTCHAR char0xACBF
ENCODING 44223
SWIDTH 1333 0
DWIDTH 16 0
BBX 16 16 0 0
BITMAP
0000
7F0E
070E
077E
070E
077E
070E
3E0E
0000
03E0
3FFE
03E0
0770
3E3E
0000
0000
ENDCHAR
STARTCHAR char0xACC0
ENCODING 44224
SWIDTH 1333 0
DWIDTH 16 0
BBX 16 16 0 0
BITMAP
0000
7F0E
070E
077E
070E
077E
070E
3E0E
0000
3FFE
000E
3FFE
000E
000C
0000
0000
ENDCHAR
STARTCHAR char0xACC1
ENCODING 44225
SWIDTH 1333 0
DWIDTH 16 0
BBX 16 16 0 0
BITMAP
0000
7F0E
070E
077E
070E
077E
070E
3E0E
0000
3FFE
3800
3FFC
3800
1FFE
0000
0000
ENDCHAR
STARTCHAR char0xACC2
ENCODING 44226
SWIDTH 1333 0
DWIDTH 16 0
BBX 16 16 0 0
BITMAP
0000
7F0E
070E
077E
070E
077E
070E
3E0E
0000
3FFE
0E38
0E38
0E38
3FFE
0000
0000
ENDCHAR
STARTCHAR char0xACC3
ENCODING 44227
SWIDTH 1333 0
DWIDTH 16 0
BBX 16 16 0 0
BITMAP
0000
7F0E
070E
077E
070E
077E
070E
3E0E
0000
01C0
3FFE
1FFC
380E
1FFC
0000
0000
ENDCHAR
STARTCHAR char0xACC4
ENCODING 44228
SWIDTH 1333 0
DWIDTH 16 0
BBX 16 16 0 0
BITMAP
0000
0037
7F37
0737
0737
07F7
0737
0737
0737
07F7
0737
0E37
3C37
0037
0000
0000
ENDCHAR
STARTCHAR char0xACC5
ENCODING 44229
SWIDTH 1333 0
DWIDTH 16 0
BBX 16 16 0 0
BITMAP
0000
7F37
0737
07F7
0737
07F7
0737
3E37
0000
3FFF
0007
0007
0007
0006
0000
0000
ENDCHAR
STARTCHAR char0xACC6
ENCODING 44230
SWIDTH 1333 0
DWIDTH 16 0
BBX 16 16 0 0
BITMAP
0000
7F37
0737
07F7
0737
07F7
0737
3E37
0000
3FFF
0387
0387
0387
0306
0000
0000
ENDCHAR
STARTCHAR char0xACC7
ENCODING 44231
SWIDTH 1333 0
DWIDTH 16 0
BBX 16 16 0 0
BITMAP
0000
7F37
0737
07F7
0737
07F7
0737
3E37
0000
3F9C
039C
039C
03BE
0367
0000
0000
ENDCHAR
STARTCHAR char0xACC8
ENCODING 44232
SWIDTH 1333 0
DWIDTH 16 0
BBX 16 16 0 0
BITMAP
0000
7F37
0737
07F7
0737
07F7
0737
3E37
0000
3800
3800
3800
3800
1FFF
0000
0000
ENDCHAR
STARTCHAR char0xACC9
ENCODING 44233
SWIDTH 1333 0
DWIDTH 16 0
BBX 16 16 0 0
BITMAP
0000
7F37
0737
07F7
0737
07F7
0737
3E37
0000
387F
381C
381C
383E
1FF7
0000
0000
ENDCHAR
STARTCHAR char0xACCA
ENCODING 44234
SWIDTH 1333 0
DWIDTH 16 0
BBX 16 16 0 0
BITMAP
0000
7F37
0737
07F7
0737
07F7
0737
3E37
0000
383C
38FF
387E
38E7
1F7E
0000
0000
ENDCHAR
STARTCHAR char0xACCB
ENCODING 44235
SWIDTH 1333 0
DWIDTH 16 0
BBX 16 16 0 0
BITMAP
0000
7F37
0737
07F7
0737
07F7
0737
3E37
0000
3FFF
3800
3800
3800
1FFF
0000
0000
ENDCHAR
STARTCHAR char0xACCC
ENCODING 44236
SWIDTH 1333 0
DWIDTH 16 0
BBX 16 16 0 0
BITMAP
0000
7F37
0737
07F7
0737
07F7
0737
3E37
0000
3FFF
0007
3FFF
3800
1FFF
0000
0000
ENDCHAR
STARTCHAR char0xACCD
ENCODING 44237
SWIDTH 1333 0
DWIDTH 16 0
BBX 16 16 0 0
BITMAP
0000
7F37
0737
07F7
0737
07F7
0737
3E37
0000
3F7F
0707
3F07
3807
1F06
0000
0000
ENDCHAR
STARTCHAR char0xACCE
ENCODING 44238
SWIDTH 1333 0
DWIDTH 16 0
BBX 16 16 0 0
BITMAP
0000
7F37
0737
07F7
0737
07F7
0737
3E37
0000
3F7F
0777
3F77
3877
1F3E
0000
0000
ENDCHAR
STARTCHAR char0xACCF
ENCODING 44239
SWIDTH 1333 0
DWIDTH 16 0
BBX 16 16 0 0
BITMAP
0000
7F37
0737
07F7
0737
07F7
0737
3E37
0000
3F77
0777
3F7F
3877
1F3E
0000
0000
ENDCHAR
STARTCHAR char0xACD0
ENCODING 44240
SWIDTH 1333 0
DWIDTH 16 0
BBX 16 16 0 0
BITMAP
0000
7F37
0737
07F7
0737
07F7
0737
3E37
0000
3F9C
039C
3F9C
383E
1FF7
0000
0000
ENDCHAR
STARTCHAR char0xACD1
ENCODING 44241
SWIDTH 1333 0
DWIDTH 16 0
BBX 16 16 0 0
BITMAP
0000
7F37
0737
07F7
0737
07F7
0737
3E37
0000
3F7F
0770
3F7F
3870
1F7F
0000
0000
ENDCHAR
STARTCHAR char0xACD2
ENCODING 44242
SWIDTH 1333 0
DWIDTH 16 0
BBX 16 16 0 0
BITMAP
0000
7F37
0737
07F7
0737
07F7
0737
3E37
0000
3F7F
0736
3F36
3836
1F7F
0000
0000
ENDCHAR
STARTCHAR char0xACD3
ENCODING 44243
SWIDTH 1333 0
DWIDTH 16 0
BBX 16 16 0 0
BITMAP
0000
7F37
0737
07F7
0737
07F7
0737
3E37
0000
3F3C
07FF
3F7E
38E7
1F7E
0000
0000
ENDCHAR
STARTCHAR char0xACD4
ENCODING 44244
SWIDTH 1333 0
DWIDTH 16 0
BBX 16 16 0 0
BITMAP
0000
7F37
0737
07F7
0737
07F7
0737
3E37
0000
3FFF
3807
3807
3807
1FFE
0000
0000
ENDCHAR
STARTCHAR char0xACD5
ENCODING 44245
SWIDTH 1333 0
DWIDTH 16 0
BBX 16 16 0 0
BITMAP
0000
7F37
0737
07F7
0737
07F7
0737
3E37
0000
3807
3807
3FFF
3807
1FFE
0000
0000
ENDCHAR
STARTCHAR char0xACD6
ENCODING 44246
SWIDTH 1333 0
DWIDTH 16 0
BBX 16 16 0 0
BITMAP
0000
7F37
0737
07F7
0737
07F7
0737
3E37
0000
3B9C
3B9C
3F9C
3BBE
1F77
0000
0000
ENDCHAR
STARTCHAR char0xACD7
ENCODING 44247
SWIDTH 1333 0
DWIDTH 16 0
BBX 16 16 0 0
BITMAP
0000
7F37
0737
07F7
0737
07F7
0737
3E37
0000
01E0
01E0
03F0
0738
3E1F
0000
0000
ENDCHAR
STARTCHAR char0xACD8
ENCODING 44248
SWIDTH 1333 0
DWIDTH 16 0
BBX 16 16 0 0
BITMAP
0000
7F37
0737
07F7
0737
07F7
0737
3E37
0000
0E1C
0E1C
0E1C
1F3E
3BF7
0000
0000
ENDCHAR
STARTCHAR char0xACD9
ENCODING 44249
SWIDTH 1333 0
DWIDTH 16 0
BBX 16 16 0 0
BITMAP
0000
7F37
0737
07F7
0737
07F7
0737
3E37
0000
1FFE
3807
3807
3807
1FFE
0000
0000
ENDCHAR
STARTCHAR char0xACDA
ENCODING 44250
SWIDTH 1333 0
DWIDTH 16 0
BBX 16 16 0 0
BITMAP
0000
7F37
0737
07F7
0737
07F7
0737
3E37
0000
3FFF
01E0
03F0
0738
3E1F
0000
0000
ENDCHAR
STARTCHAR char0xACDB
ENCODING 44251
SWIDTH 1333 0
DWIDTH 16 0
BBX 16 16 0 0
BITMAP
0000
7F37
0737
07F7
0737
07F7
0737
3E37
0000
01E0
3FFF
03F0
0738
3E1F
0000
0000
ENDCHAR
STARTCHAR char0xACDC
ENCODING 44252
SWIDTH 1333 0
DWIDTH 16 0
BBX 16 16 0 0
BITMAP
0000
7F37
0737
07F7
0737
07F7
0737
3E37
0000
3FFF
0007
3FFF
0007
0006
0000
0000
ENDCHAR
STARTCHAR char0xACDD
ENCODING 44253
SWIDTH 1333 0
DWIDTH 16 0
BBX 16 16 0 0
BITMAP
0000
7F37
0737
07F7
0737
07F7
0737
3E37
0000
3FFF
3800
3FFF
3800
1FFF
0000
0000
ENDCHAR
STARTCHAR char0xACDE
ENCODING 44254
SWIDTH 1333 0
DWIDTH 16 0
BBX 16 16 0 0
BITMAP
0000
7F37
0737
07F7
0737
07F7
0737
3E37
0000
3FFF
0E1C
0E1C
0E1C
3FFF
0000
0000
ENDCHAR
STARTCHAR char0xACDF
ENCODING 44255
SWIDTH 1333 0
DWIDTH 16 0
BBX 16 16 0 0
BITMAP
0000
7F37
0737
07F7
0737
07F7
0737
3E37
0000
01E0
3FFF
1FFE
3807
1FFE
0000
0000
ENDCHAR
STARTCHAR char0xACE0
ENCODING 44256
SWIDTH 1333 0
DWIDTH 16 0
BBX 16 16 0 0
BITMAP
0000
0000
3FFE
000E
000E
000E
000E
01CE
01DC
01C0
01C0
01C0
7FFF
0000
0000
0000
ENDCHAR
STARTCHAR char0xACE1
ENCODING 44257
SWIDTH 1333 0
DWIDTH 16 0
BBX 16 16 0 0
BITMAP
0000
3FFE
000E
000E
01CE
01CE
01DC
7FFF
0000
3FFE
000E
000E
000E
000C
0000
0000
ENDCHAR
STARTCHAR char0xACE2
ENCODING 44258
SWIDTH 1333 0
DWIDTH 16 0
BBX 16 16 0 0
BITMAP
0000
3FFE
000E
000E
01CE
01CE
01DC
7FFF
0000
3FFE
038E
038E
038E
030C
0000
0000
ENDCHAR
STARTCHAR char0xACE3
ENCODING 44259
SWIDTH 1333 0
DWIDTH 16 0
BBX 16 16 0 0
BITMAP
0000
3FFE
000E
000E
01CE
01CE
01DC
7FFF
0000
3F38
0738
0738
077C
06EE
0000
0000
ENDCHAR
STARTCHAR char0xACE4
ENCODING 44260
SWIDTH 1333 0
DWIDTH 16 0
BBX 16 16 0 0
BITMAP
0000
3FFE
000E
000E
01CE
01CE
01DC
7FFF
0000
3800
3800
3800
3800
1FFE
0000
0000
ENDCHAR
STARTCHAR char0xACE5
ENCODING 44261
SWIDTH 1333 0
DWIDTH 16 0
BBX 16 16 0 0
BITMAP
0000
3FFE
000E
000E
01CE
01CE
01DC
7FFF
0000
38FE
3838
3838
387C
1FEE
0000
0000
ENDCHAR
STARTCHAR char0xACE6
ENCODING 44262
SWIDTH 1333 0
DWIDTH 16 0
BBX 16 16 0 0
BITMAP
0000
3FFE
000E
000E
01CE
01CE
01DC
7FFF
0000
3878
39FE
38FC
39CE
1EFC
0000
0000
ENDCHAR
STARTCHAR char0xACE7
ENCODING 44263
SWIDTH 1333 0
DWIDTH 16 0
BBX 16 16 0 0
BITMAP
0000
3FFE
000E
000E
01CE
01CE
01DC
7FFF
0000
3FFE
3800
3800
3800
1FFE
0000
0000
ENDCHAR
STARTCHAR char0xACE8
ENCODING 44264
SWIDTH 1333 0
DWIDTH 16 0
BBX 16 16 0 0
BITMAP
0000
3FFE
000E
000E
01CE
01CE
01DC
7FFF
0000
3FFE
000E
3FFE
3800
1FFE
0000
0000
ENDCHAR
STARTCHAR char0xACE9
ENCODING 44265
SWIDTH 1333 0
DWIDTH 16 0
BBX 16 16 0 0
BITMAP
0000
3FFE
000E
000E
01CE
01CE
01DC
7FFF
0000
3FFE
038E
3F8E
380E
1F8C
0000
0000
ENDCHAR
STARTCHAR char0xACEA
ENCODING 44266
SWIDTH 1333 0
DWIDTH 16 0
BBX 16 16 0 0
BITMAP
0000
3FFE
000E
000E
01CE
01CE
01DC
7FFF
0000
3EFE
0EEE
3EEE
38EE
1E7C
0000
0000
ENDCHAR
STARTCHAR char0xACEB
ENCODING 44267
SWIDTH 1333 0
DWIDTH 16 0
BBX 16 16 0 0
BITMAP
0000
3FFE
000E
000E
01CE
01CE
01DC
7FFF
0000
3EEE
0EEE
3EFE
38EE
1E7C
0000
0000
ENDCHAR
STARTCHAR char0xACEC
ENCODING 44268
SWIDTH 1333 0
DWIDTH 16 0
BBX 16 16 0 0
BITMAP
0000
3FFE
000E
000E
01CE
01CE
01DC
7FFF
0000
3F38
0738
3F38
387C
1FEE
0000
0000
ENDCHAR
STARTCHAR char0xACED
ENCODING 44269
SWIDTH 1333 0
DWIDTH 16 0
BBX 16 16 0 0
BITMAP
0000
3FFE
000E
000E
01CE
01CE
01DC
7FFF
0000
3F7E
0760
3F7E
3860
1F7E
0000
0000
ENDCHAR
STARTCHAR char0xACEE
ENCODING 44270
SWIDTH 1333 0
DWIDTH 16 0
BBX 16 16 0 0
BITMAP
0000
3FFE
000E
000E
01CE
01CE
01DC
7FFF
0000
3EFE
0E6C
3E6C
386C
1EFE
0000
0000
ENDCHAR
STARTCHAR char0xACEF
ENCODING 44271
SWIDTH 1333 0
DWIDTH 16 0
BBX 16 16 0 0
BITMAP
0000
3FFE
000E
000E
01CE
01CE
01DC
7FFF
0000
3F38
07FE
3F7C
38EE
1F7C
0000
0000
ENDCHAR
STARTCHAR char0xACF0
ENCODING 44272
SWIDTH 1333 0
DWIDTH 16 0
BBX 16 16 0 0
BITMAP
0000
3FFE
000E
000E
01CE
01CE
01DC
7FFF
0000
3FFE
380E
380E
380E
1FFC
0000
0000
ENDCHAR
STARTCHAR char0xACF1
ENCODING 44273
SWIDTH 1333 0
DWIDTH 16 0
BBX 16 16 0 0
BITMAP
0000
3FFE
000E
000E
01CE
01CE
01DC
7FFF
0000
380E
380E
3FFE
380E
1FFC
0000
0000
ENDCHAR
STARTCHAR char0xACF2
ENCODING 44274
SWIDTH 1333 0
DWIDTH 16 0
BBX 16 16 0 0
BITMAP
0000
3FFE
000E
000E
01CE
01CE
01DC
7FFF
0000
3738
3738
3F38
377C
1EEE
0000
0000
ENDCHAR
STARTCHAR char0xACF3
ENCODING 44275
SWIDTH 1333 0
DWIDTH 16 0
BBX 16 16 0 0
BITMAP
0000
3FFE
000E
000E
01CE
01CE
01DC
7FFF
0000
01C0
01C0
03E0
0770
3E3E
0000
0000
ENDCHAR
STARTCHAR char0xACF4
ENCODING 44276
SWIDTH 1333 0
DWIDTH 16 0
BBX 16 16 0 0
BITMAP
0000
3FFE
000E
000E
01CE
01CE
01DC
7FFF
0000
0E38
0E38
0E38
1F7C
3BEE
0000
0000
ENDCHAR
STARTCHAR char0xACF5
ENCODING 44277
SWIDTH 1333 0
DWIDTH 16 0
BBX 16 16 0 0
BITMAP
0000
3FFE
000E
000E
01CE
01CE
01DC
7FFF
0000
1FFC
380E
380E
380E
1FFC
0000
0000
ENDCHAR
STARTCHAR char0xACF6
ENCODING 44278
SWIDTH 1333 0
DWIDTH 16 0
BBX 16 16 0 0
BITMAP
0000
3FFE
000E
000E
01CE
01CE
01DC
7FFF
0000
3FFE
01C0
03E0
0770
3E3E
0000
0000
ENDCHAR
STARTCHAR char0xACF7
ENCODING 44279
SWIDTH 1333 0
DWIDTH 16 0
BBX 16 16 0 0
BITMAP
0000
3FFE
000E
000E
01CE
01CE
01DC
7FFF
0000
01C0
3FFE
03E0
0770
3E3E
0000
0000
ENDCHAR
STARTCHAR char0xACF8
ENCODING 44280
SWIDTH 1333 0
DWIDTH 16 0
BBX 16 16 0 0
BITMAP
0000
3FFE
000E
000E
01CE
01CE
01DC
7FFF
0000
3FFE
000E
3FFE
000E
000C
0000
0000
ENDCHAR
STARTCHAR char0xACF9
ENCODING 44281
SWIDTH 1333 0
DWIDTH 16 0
BBX 16 16 0 0
BITMAP
0000
3FFE
000E
000E
01CE
01CE
01DC
7FFF
0000
3FFE
3800
3FFE
3800
1FFE
0000
0000
ENDCHAR
STARTCHAR char0xACFA
ENCODING 44282
SWIDTH 1333 0
DWIDTH 16 0
BBX 16 16 0 0
BITMAP
0000
3FFE
000E
000E
01CE
01CE
01DC
7FFF
0000
3FFE
0E38
0E38
0E38
3FFE
0000
0000
ENDCHAR
STARTCHAR char0xACFB
ENCODING 44283
SWIDTH 1333 0
DWIDTH 16 0
BBX 16 16 0 0
BITMAP
0000
3FFE
000E
000E
01CE
01CE
01DC
7FFF
0000
01C0
3FFE
1FFC
380E
1FFC
0000
0000
ENDCHAR
STARTCHAR char0xACFC
ENCODING 44284
SWIDTH 1333 0
DWIDTH 16 0
BBX 16 16 0 0
BITMAP
0000
001C
7F9C
039C
039C
039C
039C
0F9F
0F1C
0E1C
0E1C
0E1C
7FFC
001C
0000
0000
ENDCHAR
STARTCHAR char0xACFD
ENCODING 44285
SWIDTH 1333 0
DWIDTH 16 0
BBX 16 16 0 0
BITMAP
0000
7F9C
039C
039C
039F
0F1C
0E1C
7FFC
001C
3FFC
001C
001C
001C
0018
0000
0000
ENDCHAR
STARTCHAR char0xACFE
ENCODING 44286
SWIDTH 1333 0
DWIDTH 16 0
BBX 16 16 0 0
BITMAP
0000
7F9C
039C
039C
039F
0F1C
0E1C
7FFC
001C
3FFC
039C
039C
039C
0318
0000
0000
ENDCHAR
STARTCHAR char0xACFF
ENCODING 44287
SWIDTH 1333 0
DWIDTH 16 0
BBX 16 16 0 0
BITMAP
0000
7F9C
039C
039C
039F
0F1C
0E1C
7FFC
001C
3F9C
039C
039C
03BE
0377
0000
0000
ENDCHAR
STARTCHAR char0xAD00
ENCODING 44288
SWIDTH 1333 0
DWIDTH 16 0
BBX 16 16 0 0
BITMAP
0000
7F9C
039C
039C
039F
0F1C
0E1C
7FFC
001C
3800
3800
3800
3800
1FFC
0000
0000
ENDCHAR
STARTCHAR char0xAD01
ENCODING 44289
SWIDTH 1333 0
DWIDTH 16 0
BBX 16 16 0 0
BITMAP
0000
7F9C
039C
039C
039F
0F1C
0E1C
7FFC
001C
39FC
3870
3870
38F8
1FDC
0000
0000
ENDCHAR
STARTCHAR char0xAD02
ENCODING 44290
SWIDTH 1333 0
DWIDTH 16 0
BBX 16 16 0 0
BITMAP
0000
7F9C
039C
039C
039F
0F1C
0E1C
7FFC
001C
3870
39FC
38F8
39DC
1EF8
0000
0000
ENDCHAR
STARTCHAR char0xAD03
ENCODING 44291
SWIDTH 1333 0
DWIDTH 16 0
BBX 16 16 0 0
BITMAP
0000
7F9C
039C
039C
039F
0F1C
0E1C
7FFC
001C
3FFC
3800
3800
3800
1FFC
0000
0000
ENDCHAR
STARTCHAR char0xAD04
ENCODING 44292
SWIDTH 1333 0
DWIDTH 16 0
BBX 16 16 0 0
BITMAP
0000
7F9C
039C
039C
039F
0F1C
0E1C
7FFC
001C
3FFC
001C
3FFC
3800
1FFC
0000
0000
ENDCHAR
STARTCHAR char0xAD05
ENCODING 44293
SWIDTH 1333 0
DWIDTH 16 0
BBX 16 16 0 0
BITMAP
0000
7F9C
039C
039C
039F
0F1C
0E1C
7FFC
001C
3FFC
071C
3F1C
381C
1F18
0000
0000
ENDCHAR
STARTCHAR char0xAD06
ENCODING 44294
SWIDTH 1333 0
DWIDTH 16 0
BBX 16 16 0 0
BITMAP
0000
7F9C
039C
039C
039F
0F1C
0E1C
7FFC
001C
3EFC
0EDC
3EDC
38DC
1E78
0000
0000
ENDCHAR
STARTCHAR char0xAD07
ENCODING 44295
SWIDTH 1333 0
DWIDTH 16 0
BBX 16 16 0 0
BITMAP
0000
7F9C
039C
039C
039F
0F1C
0E1C
7FFC
001C
3EDC
0EDC
3EFC
38DC
1E78
0000
0000
ENDCHAR
STARTCHAR char0xAD08
ENCODING 44296
SWIDTH 1333 0
DWIDTH 16 0
BBX 16 16 0 0
BITMAP
0000
7F9C
039C
039C
039F
0F1C
0E1C
7FFC
001C
3F38
0738
3F38
387C
1FEE
0000
0000
ENDCHAR
STARTCHAR char0xAD09
ENCODING 44297
SWIDTH 1333 0
DWIDTH 16 0
BBX 16 16 0 0
BITMAP
0000
7F9C
039C
039C
039F
0F1C
0E1C
7FFC
001C
3EFC
0EE0
3EFC
38E0
1EFC
0000
0000
ENDCHAR
STARTCHAR char0xAD0A
ENCODING 44298
SWIDTH 1333 0
DWIDTH 16 0
BBX 16 16 0 0
BITMAP
0000
7F9C
039C
039C
039F
0F1C
0E1C
7FFC
001C
3FFC
0ED8
3ED8
38D8
1FFC
0000
0000
ENDCHAR
STARTCHAR char0xAD0B
ENCODING 44299
SWIDTH 1333 0
DWIDTH 16 0
BBX 16 16 0 0
BITMAP
0000
7F9C
039C
039C
039F
0F1C
0E1C
7FFC
001C
3E70
0FFC
3EF8
39DC
1EF8
0000
0000
ENDCHAR
STARTCHAR char0xAD0C
ENCODING 44300
SWIDTH 1333 0
DWIDTH 16 0
BBX 16 16 0 0
BITMAP
0000
7F9C
039C
039C
039F
0F1C
0E1C
7FFC
001C
3FFC
381C
381C
381C
1FF8
0000
0000
ENDCHAR
STARTCHAR char0xAD0D
ENCODING 44301
SWIDTH 1333 0
DWIDTH 16 0
BBX 16 16 0 0
BITMAP
0000
7F9C
039C
039C
039F
0F1C
0E1C
7FFC
001C
381C
381C
3FFC
381C
1FF8
0000
0000
ENDCHAR
STARTCHAR char0xAD0E
ENCODING 44302
SWIDTH 1333 0
DWIDTH 16 0
BBX 16 16 0 0
BITMAP
0000
7F9C
039C
039C
039F
0F1C
0E1C
7FFC
001C
3738
3738
3F38
377C
1EEE
0000
0000
ENDCHAR
STARTCHAR char0xAD0F
ENCODING 44303
SWIDTH 1333 0
DWIDTH 16 0
BBX 16 16 0 0
BITMAP
0000
7F9C
039C
039C
039F
0F1C
0E1C
7FFC
001C
0380
0380
07C0
0EE0
7C7C
0000
0000
ENDCHAR
STARTCHAR char0xAD10
ENCODING 44304
SWIDTH 1333 0
DWIDTH 16 0
BBX 16 16 0 0
BITMAP
0000
7F9C
039C
039C
039F
0F1C
0E1C
7FFC
001C
0E38
0E38
0E38
1F7C
3BEE
0000
0000
ENDCHAR
STARTCHAR char0xAD11
ENCODING 44305
SWIDTH 1333 0
DWIDTH 16 0
BBX 16 16 0 0
BITMAP
0000
7F9C
039C
039C
039F
0F1C
0E1C
7FFC
001C
1FF8
381C
381C
381C
1FF8
0000
0000
ENDCHAR
STARTCHAR char0xAD12
ENCODING 44306
SWIDTH 1333 0
DWIDTH 16 0
BBX 16 16 0 0
BITMAP
0000
7F9C
039C
039C
039F
0F1C
0E1C
7FFC
001C
7FFC
0380
07C0
0EE0
7C7C
0000
0000
ENDCHAR
STARTCHAR char0xAD13
ENCODING 44307
SWIDTH 1333 0
DWIDTH 16 0
BBX 16 16 0 0
BITMAP
0000
7F9C
039C
039C
039F
0F1C
0E1C
7FFC
039C
7FFC
0380
07C0
0EE0
7C7C
0000
0000
ENDCHAR
STARTCHAR char0xAD14
ENCODING 44308
SWIDTH 1333 0
DWIDTH 16 0
BBX 16 16 0 0
BITMAP
0000
7F9C
039C
039C
039F
0F1C
0E1C
7FFC
001C
3FFC
001C
3FFC
001C
0018
0000
0000
ENDCHAR
STARTCHAR char0xAD15
ENCODING 44309
SWIDTH 1333 0
DWIDTH 16 0
BBX 16 16 0 0
BITMAP
0000
7F9C
039C
039C
039F
0F1C
0E1C
7FFC
001C
3FFC
3800
3FFC
3800
1FFC
0000
0000
ENDCHAR
STARTCHAR char0xAD16
ENCODING 44310
SWIDTH 1333 0
DWIDTH 16 0
BBX 16 16 0 0
BITMAP
0000
7F9C
039C
039C
039F
0F1C
0E1C
7FFC
001C
3FFC
0E70
0E70
0E70
3FFC
0000
0000
ENDCHAR
STARTCHAR char0xAD17
ENCODING 44311
SWIDTH 1333 0
DWIDTH 16 0
BBX 16 16 0 0
BITMAP
0000
7F9C
039C
039C
039F
0F1C
0E1C
7FFC
03DC
3FFC
1FF8
381C
381C
1FF8
0000
0000
ENDCHAR
STARTCHAR char0xAD18
ENCODING 44312
SWIDTH 1333 0
DWIDTH 16 0
BBX 16 16 0 0
BITMAP
0000
0037
7FB7
03B7
03B7
03B7
03B7
0FBF
0F37
0E37
0E37
0E37
7FF7
0037
0000
0000
ENDCHAR
STARTCHAR char0xAD19
ENCODING 44313
SWIDTH 1333 0
DWIDTH 16 0
BBX 16 16 0 0
BITMAP
0000
7FB7
03B7
03B7
03BF
1F37
1C37
7FF7
0037
3FFF
0007
0007
0007
0006
0000
0000
ENDCHAR
STARTCHAR char0xAD1A
ENCODING 44314
SWIDTH 1333 0
DWIDTH 16 0
BBX 16 16 0 0
BITMAP
0000
7FB7
03B7
03B7
03BF
1F37
1C37
7FF7
0037
3FFF
0387
0387
0387
0306
0000
0000
ENDCHAR
STARTCHAR char0xAD1B
ENCODING 44315
SWIDTH 1333 0
DWIDTH 16 0
BBX 16 16 0 0
BITMAP
0000
7FB7
03B7
03B7
03BF
1F37
1C37
7FF7
0037
3F9C
039C
039C
03BE
0367
0000
0000
ENDCHAR
STARTCHAR char0xAD1C
ENCODING 44316
SWIDTH 1333 0
DWIDTH 16 0
BBX 16 16 0 0
BITMAP
0000
7FB7
03B7
03B7
03BF
1F37
1C37
7FF7
0037
3800
3800
3800
3800
1FFF
0000
0000
ENDCHAR
STARTCHAR char0xAD1D
ENCODING 44317
SWIDTH 1333 0
DWIDTH 16 0
BBX 16 16 0 0
BITMAP
0000
7FB7
03B7
03B7
03BF
1F37
1C37
7FF7
0037
387F
381C
381C
383E
1FF7
0000
0000
ENDCHAR
STARTCHAR char0xAD1E
ENCODING 44318
SWIDTH 1333 0
DWIDTH 16 0
BBX 16 16 0 0
BITMAP
0000
7FB7
03B7
03B7
03BF
1F37
1C37
7FF7
0037
383C
38FF
387E
38E7
1F7E
0000
0000
ENDCHAR
STARTCHAR char0xAD1F
ENCODING 44319
SWIDTH 1333 0
DWIDTH 16 0
BBX 16 16 0 0
BITMAP
0000
7FB7
03B7
03B7
03BF
1F37
1C37
7FF7
0037
3FFF
3800
3800
3800
1FFF
0000
0000
ENDCHAR
STARTCHAR char0xAD20
ENCODING 44320
SWIDTH 1333 0
DWIDTH 16 0
BBX 16 16 0 0
BITMAP
0000
7FB7
03B7
03B7
03BF
1F37
1C37
7FF7
0037
3FFF
0007
3FFF
3800
1FFF
0000
0000
ENDCHAR
STARTCHAR char0xAD21
ENCODING 44321
SWIDTH 1333 0
DWIDTH 16 0
BBX 16 16 0 0
BITMAP
0000
7FB7
03B7
03B7
03BF
1F37
1C37
7FF7
0037
3F7F
0707
3F07
3807
1F06
0000
0000
ENDCHAR
STARTCHAR char0xAD22
ENCODING 44322
SWIDTH 1333 0
DWIDTH 16 0
BBX 16 16 0 0
BITMAP
0000
7FB7
03B7
03B7
03BF
1F37
1C37
7FF7
0037
3F7F
0777
3F77
3877
1F3E
0000
0000
ENDCHAR
STARTCHAR char0xAD23
ENCODING 44323
SWIDTH 1333 0
DWIDTH 16 0
BBX 16 16 0 0
BITMAP
0000
7FB7
03B7
03B7
03BF
1F37
1C37
7FF7
0037
3F77
0777
3F7F
3877
1F3E
0000
0000
ENDCHAR
STARTCHAR char0xAD24
ENCODING 44324
SWIDTH 1333 0
DWIDTH 16 0
BBX 16 16 0 0
BITMAP
0000
7FB7
03B7
03B7
03BF
1F37
1C37
7FF7
0037
3F9C
039C
3F9C
383E
1FF7
0000
0000
ENDCHAR
STARTCHAR char0xAD25
ENCODING 44325
SWIDTH 1333 0
DWIDTH 16 0
BBX 16 16 0 0
BITMAP
0000
7FB7
03B7
03B7
03BF
1F37
1C37
7FF7
0037
3F7F
0770
3F7F
3870
1F7F
0000
0000
ENDCHAR
STARTCHAR char0xAD26
ENCODING 44326
SWIDTH 1333 0
DWIDTH 16 0
BBX 16 16 0 0
BITMAP
0000
7FB7
03B7
03B7
03BF
1F37
1C37
7FF7
0037
3F7F
0736
3F36
3836
1F7F
0000
0000
ENDCHAR
STARTCHAR char0xAD27
ENCODING 44327
SWIDTH 1333 0
DWIDTH 16 0
BBX 16 16 0 0
BITMAP
0000
7FB7
03B7
03B7
03BF
1F37
1C37
7FF7
0037
3F3C
07FF
3F7E
38E7
1F7E
0000
0000
ENDCHAR
STARTCHAR char0xAD28
ENCODING 44328
SWIDTH 1333 0
DWIDTH 16 0
BBX 16 16 0 0
BITMAP
0000
7FB7
03B7
03B7
03BF
1F37
1C37
7FF7
0037
3807
3807
3FFF
3807
1FFE
0000
0000
ENDCHAR
STARTCHAR char0xAD29
ENCODING 44329
SWIDTH 1333 0
DWIDTH 16 0
BBX 16 16 0 0
BITMAP
0000
7FB7
03B7
03B7
03BF
1F37
1C37
7FF7
0037
3FFF
3807
3807
3807
1FFE
0000
0000
ENDCHAR
STARTCHAR char0xAD2A
ENCODING 44330
SWIDTH 1333 0
DWIDTH 16 0
BBX 16 16 0 0
BITMAP
0000
7FB7
03B7
03B7
03BF
1F37
1C37
7FF7
0037
3B9C
3B9C
3F9C
3BBE
1F77
0000
0000
ENDCHAR
STARTCHAR char0xAD2B
ENCODING 44331
SWIDTH 1333 0
DWIDTH 16 0
BBX 16 16 0 0
BITMAP
0000
7FB7
03B7
03B7
03BF
1F37
1C37
7FF7
0037
01E0
01E0
03F0
0738
3E1F
0000
0000
ENDCHAR
STARTCHAR char0xAD2C
ENCODING 44332
SWIDTH 1333 0
DWIDTH 16 0
BBX 16 16 0 0
BITMAP
0000
7FB7
03B7
03B7
03BF
1F37
1C37
7FF7
0037
0E1C
0E1C
0E1C
1F3E
3BF7
0000
0000
ENDCHAR
STARTCHAR char0xAD2D
ENCODING 44333
SWIDTH 1333 0
DWIDTH 16 0
BBX 16 16 0 0
BITMAP
0000
7FB7
03B7
03B7
03BF
1F37
1C37
7FF7
0037
1FFE
3807
3807
3807
1FFE
0000
0000
ENDCHAR
STARTCHAR char0xAD2E
ENCODING 44334
SWIDTH 1333 0
DWIDTH 16 0
BBX 16 16 0 0
BITMAP
0000
7FB7
03B7
03B7
03BF
1F37
1C37
7FF7
0037
3FFF
01E0
03F0
0738
3E1F
0000
0000
ENDCHAR
STARTCHAR char0xAD2F
ENCODING 44335
SWIDTH 1333 0
DWIDTH 16 0
BBX 16 16 0 0
BITMAP
0000
7FB7
03B7
03B7
03BF
1F37
1C37
7FF7
0037
01E0
3FFF
03F0
0738
3E1F
0000
0000
ENDCHAR
STARTCHAR char0xAD30
ENCODING 44336
SWIDTH 1333 0
DWIDTH 16 0
BBX 16 16 0 0
BITMAP
0000
7FB7
03B7
03B7
03BF
1F37
1C37
7FF7
0037
3FFF
0007
3FFF
0007
0006
0000
0000
ENDCHAR
STARTCHAR char0xAD31
ENCODING 44337
SWIDTH 1333 0
DWIDTH 16 0
BBX 16 16 0 0
BITMAP
0000
7FB7
03B7
03B7
03BF
1F37
1C37
7FF7
0037
3FFF
3800
3FFF
3800
1FFF
0000
0000
ENDCHAR
STARTCHAR char0xAD32
ENCODING 44338
SWIDTH 1333 0
DWIDTH 16 0
BBX 16 16 0 0
BITMAP
0000
7FB7
03B7
03B7
03BF
1F37
1C37
7FF7
0037
3FFF
0E1C
0E1C
0E1C
3FFF
0000
0000
ENDCHAR
STARTCHAR char0xAD33
ENCODING 44339
SWIDTH 1333 0
DWIDTH 16 0
BBX 16 16 0 0
BITMAP
0000
7FB7
03B7
03B7
03BF
1F37
1C37
7FF7
0037
01E0
3FFF
1FFE
3807
1FFE
0000
0000
ENDCHAR
STARTCHAR char0xAD34
ENCODING 44340
SWIDTH 1333 0
DWIDTH 16 0
BBX 16 16 0 0
BITMAP
0000
000E
7F8E
038E
038E
038E
038E
0F8E
0F0E
0E0E
0E0E
0E0E
7FFE
000E
0000
0000
ENDCHAR
STARTCHAR char0xAD35
ENCODING 44341
SWIDTH 1333 0
DWIDTH 16 0
BBX 16 16 0 0
BITMAP
0000
7F8E
038E
038E
038E
070E
070E
7FFE
000E
3FFE
000E
000E
000E
000C
0000
0000
ENDCHAR
STARTCHAR char0xAD36
ENCODING 44342
SWIDTH 1333 0
DWIDTH 16 0
BBX 16 16 0 0
BITMAP
0000
7F8E
038E
038E
038E
070E
070E
7FFE
000E
3FFE
038E
038E
038E
030C
0000
0000
ENDCHAR
STARTCHAR char0xAD37
ENCODING 44343
SWIDTH 1333 0
DWIDTH 16 0
BBX 16 16 0 0
BITMAP
0000
7F8E
038E
038E
038E
070E
070E
7FFE
000E
3F9C
039C
039C
03BE
0377
0000
0000
ENDCHAR
STARTCHAR char0xAD38
ENCODING 44344
SWIDTH 1333 0
DWIDTH 16 0
BBX 16 16 0 0
BITMAP
0000
7F8E
038E
038E
038E
070E
070E
7FFE
000E
3800
3800
3800
3800
1FFE
0000
0000
ENDCHAR
STARTCHAR char0xAD39
ENCODING 44345
SWIDTH 1333 0
DWIDTH 16 0
BBX 16 16 0 0
BITMAP
0000
7F8E
038E
038E
038E
070E
070E
7FFE
000E
38FE
3838
3838
387C
1FEE
0000
0000
ENDCHAR
STARTCHAR char0xAD3A
ENCODING 44346
SWIDTH 1333 0
DWIDTH 16 0
BBX 16 16 0 0
BITMAP
0000
7F8E
038E
038E
038E
070E
070E
7FFE
000E
3878
39FE
38FC
39CE
1EFC
0000
0000
ENDCHAR
STARTCHAR char0xAD3B
ENCODING 44347
SWIDTH 1333 0
DWIDTH 16 0
BBX 16 16 0 0
BITMAP
0000
7F8E
038E
038E
038E
070E
070E
7FFE
000E
3FFE
3800
3800
3800
1FFE
0000
0000
ENDCHAR
STARTCHAR char0xAD3C
ENCODING 44348
SWIDTH 1333 0
DWIDTH 16 0
BBX 16 16 0 0
BITMAP
0000
7F8E
038E
038E
038E
070E
070E
7FFE
000E
3FFE
000E
3FFE
3800
1FFE
0000
0000
ENDCHAR
STARTCHAR char0xAD3D
ENCODING 44349
SWIDTH 1333 0
DWIDTH 16 0
BBX 16 16 0 0
BITMAP
0000
7F8E
038E
038E
038E
070E
070E
7FFE
000E
3F7E
070E
3F0E
380E
1F0C
0000
0000
ENDCHAR
STARTCHAR char0xAD3E
ENCODING 44350
SWIDTH 1333 0
DWIDTH 16 0
BBX 16 16 0 0
BITMAP
0000
7F8E
038E
038E
038E
070E
070E
7FFE
000E
3EFE
0EEE
3EEE
38EE
1E7C
0000
0000
ENDCHAR
STARTCHAR char0xAD3F
ENCODING 44351
SWIDTH 1333 0
DWIDTH 16 0
BBX 16 16 0 0
BITMAP
0000
7F8E
038E
038E
038E
070E
070E
7FFE
000E
3EEE
0EEE
3EFE
38EE
1E7C
0000
0000
ENDCHAR
STARTCHAR char0xAD40
ENCODING 44352
SWIDTH 1333 0
DWIDTH 16 0
BBX 16 16 0 0
BITMAP
0000
7F8E
038E
038E
038E
070E
070E
7FFE
000E
3F9C
039C
3F9C
383E
1FF7
0000
0000
ENDCHAR
STARTCHAR char0xAD41
ENCODING 44353
SWIDTH 1333 0
DWIDTH 16 0
BBX 16 16 0 0
BITMAP
0000
7F8E
038E
038E
038E
070E
070E
7FFE
000E
3F7E
0770
3F7E
3870
1F7E
0000
0000
ENDCHAR
STARTCHAR char0xAD42
ENCODING 44354
SWIDTH 1333 0
DWIDTH 16 0
BBX 16 16 0 0
BITMAP
0000
7F8E
038E
038E
038E
070E
070E
7FFE
000E
3EFE
0E6C
3E6C
386C
1EFE
0000
0000
ENDCHAR
STARTCHAR char0xAD43
ENCODING 44355
SWIDTH 1333 0
DWIDTH 16 0
BBX 16 16 0 0
BITMAP
0000
7F8E
038E
038E
038E
070E
070E
7FFE
000E
3F38
07FE
3F7C
38EE
1F7C
0000
0000
ENDCHAR
STARTCHAR char0xAD44
ENCODING 44356
SWIDTH 1333 0
DWIDTH 16 0
BBX 16 16 0 0
BITMAP
0000
7F8E
038E
038E
038E
070E
070E
7FFE
000E
3FFE
380E
380E
380E
1FFC
0000
0000
ENDCHAR
STARTCHAR char0xAD45
ENCODING 44357
SWIDTH 1333 0
DWIDTH 16 0
BBX 16 16 0 0
BITMAP
0000
7F8E
038E
038E
038E
070E
070E
7FFE
000E
380E
380E
3FFE
380E
1FFC
0000
0000
ENDCHAR
STARTCHAR char0xAD46
ENCODING 44358
SWIDTH 1333 0
DWIDTH 16 0
BBX 16 16 0 0
BITMAP
0000
7F8E
038E
038E
038E
070E
070E
7FFE
000E
3B9C
3B9C
3F9C
3BBE
1F77
0000
0000
ENDCHAR
STARTCHAR char0xAD47
ENCODING 44359
SWIDTH 1333 0
DWIDTH 16 0
BBX 16 16 0 0
BITMAP
0000
7F8E
038E
038E
038E
070E
070E
7FFE
000E
01C0
01C0
03E0
0F78
380E
0000
0000
ENDCHAR
STARTCHAR char0xAD48
ENCODING 44360
SWIDTH 1333 0
DWIDTH 16 0
BBX 16 16 0 0
BITMAP
0000
7F8E
038E
038E
038E
070E
070E
7FFE
000E
0E1C
0E1C
0E1C
1F3E
3BF7
0000
0000
ENDCHAR
STARTCHAR char0xAD49
ENCODING 44361
SWIDTH 1333 0
DWIDTH 16 0
BBX 16 16 0 0
BITMAP
0000
7F8E
038E
038E
038E
070E
070E
7FFE
000E
1FFC
380E
380E
380E
1FFC
0000
0000
ENDCHAR
STARTCHAR char0xAD4A
ENCODING 44362
SWIDTH 1333 0
DWIDTH 16 0
BBX 16 16 0 0
BITMAP
0000
7F8E
038E
038E
038E
070E
070E
7FFE
000E
3FFE
01C0
03E0
0770
3E3E
0000
0000
ENDCHAR
STARTCHAR char0xAD4B
ENCODING 44363
SWIDTH 1333 0
DWIDTH 16 0
BBX 16 16 0 0
BITMAP
0000
7F8E
038E
038E
038E
070E
070E
7FFE
000E
03E0
3FFE
03E0
0770
3E3E
0000
0000
ENDCHAR
STARTCHAR char0xAD4C
ENCODING 44364
SWIDTH 1333 0
DWIDTH 16 0
BBX 16 16 0 0
BITMAP
0000
7F8E
038E
038E
038E
070E
070E
7FFE
000E
3FFE
000E
3FFE
000E
000C
0000
0000
ENDCHAR
STARTCHAR char0xAD4D
ENCODING 44365
SWIDTH 1333 0
DWIDTH 16 0
BBX 16 16 0 0
BITMAP
0000
7F8E
038E
038E
038E
070E
070E
7FFE
000E
3FFE
3800
3FFC
3800
1FFE
0000
0000
ENDCHAR
STARTCHAR char0xAD4E
ENCODING 44366
SWIDTH 1333 0
DWIDTH 16 0
BBX 16 16 0 0
BITMAP
0000
7F8E
038E
038E
038E
070E
070E
7FFE
000E
3FFE
0E38
0E38
0E38
3FFE
0000
0000
ENDCHAR
STARTCHAR char0xAD4F
ENCODING 44367
SWIDTH 1333 0
DWIDTH 16 0
BBX 16 16 0 0
BITMAP
0000
7F8E
038E
038E
038E
070E
070E
7FFE
000E
01C0
3FFE
1FFC
380E
1FFC
0000
0000
ENDCHAR
STARTCHAR char0xAD50
ENCODING 44368
SWIDTH 1333 0
DWIDTH 16 0
BBX 16 16 0 0
BITMAP
0000
0000
3FFE
000E
000E
000E
000E
0EEE
0EFC
0EE0
0EE0
0EE0
7FFF
0000
0000
0000
ENDCHAR
STARTCHAR char0xAD51
ENCODING 44369
SWIDTH 1333 0
DWIDTH 16 0
BBX 16 16 0 0
BITMAP
0000
3FFE
000E
000E
0EEE
0EEE
0EFC
7FFF
0000
3FFE
000E
000E
000E
000C
0000
0000
ENDCHAR
STARTCHAR char0xAD52
ENCODING 44370
SWIDTH 1333 0
DWIDTH 16 0
BBX 16 16 0 0
BITMAP
0000
3FFE
000E
000E
0EEE
0EEE
0EFC
7FFF
0000
3FFE
038E
038E
038E
030C
0000
0000
ENDCHAR
STARTCHAR char0xAD53
ENCODING 44371
SWIDTH 1333 0
DWIDTH 16 0
BBX 16 16 0 0
BITMAP
0000
3FFE
000E
000E
0EEE
0EEE
0EFC
7FFF
0000
3F38
0738
0738
077C
06EE
0000
0000
ENDCHAR
STARTCHAR char0xAD54
ENCODING 44372
SWIDTH 1333 0
DWIDTH 16 0
BBX 16 16 0 0
BITMAP
0000
3FFE
000E
000E
0EEE
0EEE
0EFC
7FFF
0000
3800
3800
3800
3800
1FFE
0000
0000
ENDCHAR
STARTCHAR char0xAD55
ENCODING 44373
SWIDTH 1333 0
DWIDTH 16 0
BBX 16 16 0 0
BITMAP
0000
3FFE
000E
000E
0EEE
0EEE
0EFC
7FFF
0000
38FE
3838
3838
387C
1FEE
0000
0000
ENDCHAR
STARTCHAR char0xAD56
ENCODING 44374
SWIDTH 1333 0
DWIDTH 16 0
BBX 16 16 0 0
BITMAP
0000
3FFE
000E
000E
0EEE
0EEE
0EFC
7FFF
0000
3878
39FE
38FC
39CE
1EFC
0000
0000
ENDCHAR
STARTCHAR char0xAD57
ENCODING 44375
SWIDTH 1333 0
DWIDTH 16 0
BBX 16 16 0 0
BITMAP
0000
3FFE
000E
000E
0EEE
0EEE
0EFC
7FFF
0000
3FFE
3800
3800
3800
1FFE
0000
0000
ENDCHAR
STARTCHAR char0xAD58
ENCODING 44376
SWIDTH 1333 0
DWIDTH 16 0
BBX 16 16 0 0
BITMAP
0000
3FFE
000E
000E
0EEE
0EEE
0EFC
7FFF
0000
3FFE
000E
3FFE
3800
1FFE
0000
0000
ENDCHAR
STARTCHAR char0xAD59
ENCODING 44377
SWIDTH 1333 0
DWIDTH 16 0
BBX 16 16 0 0
BITMAP
0000
3FFE
000E
000E
0EEE
0EEE
0EFC
7FFF
0000
3FFE
038E
3F8E
380E
1F8C
0000
0000
ENDCHAR
STARTCHAR char0xAD5A
ENCODING 44378
SWIDTH 1333 0
DWIDTH 16 0
BBX 16 16 0 0
BITMAP
0000
3FFE
000E
000E
0EEE
0EEE
0EFC
7FFF
0000
3EFE
0EEE
3EEE
38EE
1E7C
0000
0000
ENDCHAR
STARTCHAR char0xAD5B
ENCODING 44379
SWIDTH 1333 0
DWIDTH 16 0
BBX 16 16 0 0
BITMAP
0000
3FFE
000E
000E
0EEE
0EEE
0EFC
7FFF
0000
3EEE
0EEE
3EFE
38EE
1E7C
0000
0000
ENDCHAR
STARTCHAR char0xAD5C
ENCODING 44380
SWIDTH 1333 0
DWIDTH 16 0
BBX 16 16 0 0
BITMAP
0000
3FFE
000E
000E
0EEE
0EEE
0EFC
7FFF
0000
3F38
0738
3F38
387C
1FEE
0000
0000
ENDCHAR
STARTCHAR char0xAD5D
ENCODING 44381
SWIDTH 1333 0
DWIDTH 16 0
BBX 16 16 0 0
BITMAP
0000
3FFE
000E
000E
0EEE
0EEE
0EFC
7FFF
0000
3F7E
0760
3F7E
3860
1F7E
0000
0000
ENDCHAR
STARTCHAR char0xAD5E
ENCODING 44382
SWIDTH 1333 0
DWIDTH 16 0
BBX 16 16 0 0
BITMAP
0000
3FFE
000E
000E
0EEE
0EEE
0EFC
7FFF
0000
3EFE
0E6C
3E6C
386C
1EFE
0000
0000
ENDCHAR
STARTCHAR char0xAD5F
ENCODING 44383
SWIDTH 1333 0
DWIDTH 16 0
BBX 16 16 0 0
BITMAP
0000
3FFE
000E
000E
0EEE
0EEE
0EFC
7FFF
0000
3F38
07FE
3F7C
38EE
1F7C
0000
0000
ENDCHAR
STARTCHAR char0xAD60
ENCODING 44384
SWIDTH 1333 0
DWIDTH 16 0
BBX 16 16 0 0
BITMAP
0000
3FFE
000E
000E
0EEE
0EEE
0EFC
7FFF
0000
3FFE
380E
380E
380E
1FFC
0000
0000
ENDCHAR
STARTCHAR char0xAD61
ENCODING 44385
SWIDTH 1333 0
DWIDTH 16 0
BBX 16 16 0 0
BITMAP
0000
3FFE
000E
000E
0EEE
0EEE
0EFC
7FFF
0000
380E
380E
3FFE
380E
1FFC
0000
0000
ENDCHAR
STARTCHAR char0xAD62
ENCODING 44386
SWIDTH 1333 0
DWIDTH 16 0
BBX 16 16 0 0
BITMAP
0000
3FFE
000E
000E
0EEE
0EEE
0EFC
7FFF
0000
3738
3738
3F38
377C
1EEE
0000
0000
ENDCHAR
STARTCHAR char0xAD63
ENCODING 44387
SWIDTH 1333 0
DWIDTH 16 0
BBX 16 16 0 0
BITMAP
0000
3FFE
000E
000E
0EEE
0EEE
0EFC
7FFF
0000
01C0
01C0
03E0
0770
3E3E
0000
0000
ENDCHAR
STARTCHAR char0xAD64
ENCODING 44388
SWIDTH 1333 0
DWIDTH 16 0
BBX 16 16 0 0
BITMAP
0000
3FFE
000E
000E
0EEE
0EEE
0EFC
7FFF
0000
0E38
0E38
0E38
1F7C
3BEE
0000
0000
ENDCHAR
STARTCHAR char0xAD65
ENCODING 44389
SWIDTH 1333 0
DWIDTH 16 0
BBX 16 16 0 0
BITMAP
0000
3FFE
000E
000E
0EEE
0EEE
0EFC
7FFF
0000
1FFC
380E
380E
380E
1FFC
0000
0000
ENDCHAR
STARTCHAR char0xAD66
ENCODING 44390
SWIDTH 1333 0
DWIDTH 16 0
BBX 16 16 0 0
BITMAP
0000
3FFE
000E
000E
0EEE
0EEE
0EFC
7FFF
0000
3FFE
01C0
03E0
0770
3E3E
0000
0000
ENDCHAR
STARTCHAR char0xAD67
ENCODING 44391
SWIDTH 1333 0
DWIDTH 16 0
BBX 16 16 0 0
BITMAP
0000
3FFE
000E
000E
0EEE
0EEE
0EFC
7FFF
0000
01C0
3FFE
03E0
0770
3E3E
0000
0000
ENDCHAR
STARTCHAR char0xAD68
ENCODING 44392
SWIDTH 1333 0
DWIDTH 16 0
BBX 16 16 0 0
BITMAP
0000
3FFE
000E
000E
0EEE
0EEE
0EFC
7FFF
0000
3FFE
000E
3FFE
000E
000C
0000
0000
ENDCHAR
STARTCHAR char0xAD69
ENCODING 44393
SWIDTH 1333 0
DWIDTH 16 0
BBX 16 16 0 0
BITMAP
0000
3FFE
000E
000E
0EEE
0EEE
0EFC
7FFF
0000
3FFE
3800
3FFE
3800
1FFE
0000
0000
ENDCHAR
STARTCHAR char0xAD6A
ENCODING 44394
SWIDTH 1333 0
DWIDTH 16 0
BBX 16 16 0 0
BITMAP
0000
3FFE
000E
000E
0EEE
0EEE
0EFC
7FFF
0000
3FFE
0E38
0E38
0E38
3FFE
0000
0000
ENDCHAR
STARTCHAR char0xAD6B
ENCODING 44395
SWIDTH 1333 0
DWIDTH 16 0
BBX 16 16 0 0
BITMAP
0000
3FFE
000E
000E
0EEE
0EEE
0EFC
7FFF
0000
01C0
3FFE
1FFC
380E
1FFC
0000
0000
ENDCHAR
STARTCHAR char0xAD6C
ENCODING 44396
SWIDTH 1333 0
DWIDTH 16 0
BBX 16 16 0 0
BITMAP
0000
0000
3FFE
000E
000E
000E
000E
000E
001C
7FFF
01C0
01C0
01C0
01C0
0000
0000
ENDCHAR
STARTCHAR char0xAD6D
ENCODING 44397
SWIDTH 1333 0
DWIDTH 16 0
BBX 16 16 0 0
BITMAP
0000
3FFE
000E
000E
000E
000E
001C
7FFF
01C0
3FFE
000E
000E
000E
000C
0000
0000
ENDCHAR
STARTCHAR char0xAD6E
ENCODING 44398
SWIDTH 1333 0
DWIDTH 16 0
BBX 16 16 0 0
BITMAP
0000
3FFE
000E
000E
000E
000E
001C
7FFF
01C0
3FFE
038E
038E
038E
030C
0000
0000
ENDCHAR
STARTCHAR char0xAD6F
ENCODING 44399
SWIDTH 1333 0
DWIDTH 16 0
BBX 16 16 0 0
BITMAP
0000
3FFE
000E
000E
000E
000E
001C
7FFF
01C0
3FF8
0738
0738
077C
06EE
0000
0000
ENDCHAR
STARTCHAR char0xAD70
ENCODING 44400
SWIDTH 1333 0
DWIDTH 16 0
BBX 16 16 0 0
BITMAP
0000
3FFE
000E
000E
000E
000E
001C
7FFF
01C0
39C0
3800
3800
3800
1FFE
0000
0000
ENDCHAR
STARTCHAR char0xAD71
ENCODING 44401
SWIDTH 1333 0
DWIDTH 16 0
BBX 16 16 0 0
BITMAP
0000
3FFE
000E
000E
000E
000E
001C
7FFF
01C0
39FE
3838
3838
387C
1FEE
0000
0000
ENDCHAR
STARTCHAR char0xAD72
ENCODING 44402
SWIDTH 1333 0
DWIDTH 16 0
BBX 16 16 0 0
BITMAP
0000
3FFE
000E
000E
000E
000E
001C
7FFF
01C0
39F8
39FE
38FC
39CE
1EFC
0000
0000
ENDCHAR
STARTCHAR char0xAD73
ENCODING 44403
SWIDTH 1333 0
DWIDTH 16 0
BBX 16 16 0 0
BITMAP
0000
3FFE
000E
000E
000E
000E
001C
7FFF
01C0
3FFE
3800
3800
3800
1FFE
0000
0000
ENDCHAR
STARTCHAR char0xAD74
ENCODING 44404
SWIDTH 1333 0
DWIDTH 16 0
BBX 16 16 0 0
BITMAP
0000
3FFE
000E
000E
000E
000E
001C
7FFF
01C0
3FFE
000E
3FFE
3800
1FFE
0000
0000
ENDCHAR
STARTCHAR char0xAD75
ENCODING 44405
SWIDTH 1333 0
DWIDTH 16 0
BBX 16 16 0 0
BITMAP
0000
3FFE
000E
000E
000E
000E
001C
7FFF
01C0
3FFE
038E
3F8E
380E
1F8C
0000
0000
ENDCHAR
STARTCHAR char0xAD76
ENCODING 44406
SWIDTH 1333 0
DWIDTH 16 0
BBX 16 16 0 0
BITMAP
0000
3FFE
000E
000E
000E
000E
001C
7FFF
01C0
3FFE
0EEE
3EEE
38EE
1E7C
0000
0000
ENDCHAR
STARTCHAR char0xAD77
ENCODING 44407
SWIDTH 1333 0
DWIDTH 16 0
BBX 16 16 0 0
BITMAP
0000
3FFE
000E
000E
000E
000E
001C
7FFF
01C0
3FEE
0EEE
3EFE
38EE
1E7C
0000
0000
ENDCHAR
STARTCHAR char0xAD78
ENCODING 44408
SWIDTH 1333 0
DWIDTH 16 0
BBX 16 16 0 0
BITMAP
0000
3FFE
000E
000E
000E
000E
001C
7FFF
01C0
3FF8
0738
3F38
387C
1FEE
0000
0000
ENDCHAR
STARTCHAR char0xAD79
ENCODING 44409
SWIDTH 1333 0
DWIDTH 16 0
BBX 16 16 0 0
BITMAP
0000
3FFE
000E
000E
000E
000E
001C
7FFF
01C0
3FFE
0760
3F7E
3860
1F7E
0000
0000
ENDCHAR
STARTCHAR char0xAD7A
ENCODING 44410
SWIDTH 1333 0
DWIDTH 16 0
BBX 16 16 0 0
BITMAP
0000
3FFE
000E
000E
000E
000E
001C
7FFF
01C0
3FFE
0E6C
3E6C
386C
1EFE
0000
0000
ENDCHAR
STARTCHAR char0xAD7B
ENCODING 44411
SWIDTH 1333 0
DWIDTH 16 0
BBX 16 16 0 0
BITMAP
0000
3FFE
000E
000E
000E
000E
001C
7FFF
01C0
3FF8
07FE
3F7C
38EE
1F7C
0000
0000
ENDCHAR
STARTCHAR char0xAD7C
ENCODING 44412
SWIDTH 1333 0
DWIDTH 16 0
BBX 16 16 0 0
BITMAP
0000
3FFE
000E
000E
000E
000E
001C
7FFF
01C0
3FFE
380E
380E
380E
1FFC
0000
0000
ENDCHAR
STARTCHAR char0xAD7D
ENCODING 44413
SWIDTH 1333 0
DWIDTH 16 0
BBX 16 16 0 0
BITMAP
0000
3FFE
000E
000E
000E
000E
001C
7FFF
01C0
39CE
380E
3FFE
380E
1FFC
0000
0000
ENDCHAR
STARTCHAR char0xAD7E
ENCODING 44414
SWIDTH 1333 0
DWIDTH 16 0
BBX 16 16 0 0
BITMAP
0000
3FFE
000E
000E
000E
000E
001C
7FFF
01C0
37F8
3738
3F38
377C
1EEE
0000
0000
ENDCHAR
STARTCHAR char0xAD7F
ENCODING 44415
SWIDTH 1333 0
DWIDTH 16 0
BBX 16 16 0 0
BITMAP
0000
3FFE
000E
000E
000E
000E
001C
7FFF
01C0
01C0
01C0
03E0
0770
3E3E
0000
0000
ENDCHAR
STARTCHAR char0xAD80
ENCODING 44416
SWIDTH 1333 0
DWIDTH 16 0
BBX 16 16 0 0
BITMAP
0000
3FFE
000E
000E
000E
000E
001C
7FFF
01C0
0FF8
0E38
0E38
1F7C
3BEE
0000
0000
ENDCHAR
STARTCHAR char0xAD81
ENCODING 44417
SWIDTH 1333 0
DWIDTH 16 0
BBX 16 16 0 0
BITMAP
0000
3FFE
000E
000E
000E
000E
001C
7FFF
01C0
1FFC
380E
380E
380E
1FFC
0000
0000
ENDCHAR
STARTCHAR char0xAD82
ENCODING 44418
SWIDTH 1333 0
DWIDTH 16 0
BBX 16 16 0 0
BITMAP
0000
3FFE
000E
000E
000E
000E
001C
7FFF
01C0
3FFE
01C0
03E0
0770
3E3E
0000
0000
ENDCHAR
STARTCHAR char0xAD83
ENCODING 44419
SWIDTH 1333 0
DWIDTH 16 0
BBX 16 16 0 0
BITMAP
0000
3FFE
000E
000E
000E
000E
001C
7FFF
01C0
01C0
3FFE
03E0
0770
3E3E
0000
0000
ENDCHAR
STARTCHAR char0xAD84
ENCODING 44420
SWIDTH 1333 0
DWIDTH 16 0
BBX 16 16 0 0
BITMAP
0000
3FFE
000E
000E
000E
000E
001C
7FFF
01C0
3FFE
000E
3FFE
000E
000C
0000
0000
ENDCHAR
STARTCHAR char0xAD85
ENCODING 44421
SWIDTH 1333 0
DWIDTH 16 0
BBX 16 16 0 0
BITMAP
0000
3FFE
000E
000E
000E
000E
001C
7FFF
01C0
3FFE
3800
3FFE
3800
1FFE
0000
0000
ENDCHAR
STARTCHAR char0xAD86
ENCODING 44422
SWIDTH 1333 0
DWIDTH 16 0
BBX 16 16 0 0
BITMAP
0000
3FFE
000E
000E
000E
000E
001C
7FFF
01C0
3FFE
0E38
0E38
0E38
3FFE
0000
0000
ENDCHAR
STARTCHAR char0xAD87
ENCODING 44423
SWIDTH 1333 0
DWIDTH 16 0
BBX 16 16 0 0
BITMAP
0000
3FFE
000E
000E
000E
000E
001C
7FFF
01C0
01C0
3FFE
1FFC
380E
1FFC
0000
0000
ENDCHAR
STARTCHAR char0xAD88
ENCODING 44424
SWIDTH 1333 0
DWIDTH 16 0
BBX 16 16 0 0
BITMAP
0000
000E
7F8E
038E
038E
038E
038E
070E
7FFE
0E0E
0EFE
0E0E
0E0E
0E0E
0000
0000
ENDCHAR
STARTCHAR char0xAD89
ENCODING 44425
SWIDTH 1333 0
DWIDTH 16 0
BBX 16 16 0 0
BITMAP
0000
7F8E
038E
038E
038E
070E
7FFE
0E7E
0E0E
3FFE
000E
000E
000E
000C
0000
0000
ENDCHAR
STARTCHAR char0xAD8A
ENCODING 44426
SWIDTH 1333 0
DWIDTH 16 0
BBX 16 16 0 0
BITMAP
0000
7F8E
038E
038E
038E
070E
7FFE
0E7E
0E0E
3FFE
038E
038E
038E
030C
0000
0000
ENDCHAR
STARTCHAR char0xAD8B
ENCODING 44427
SWIDTH 1333 0
DWIDTH 16 0
BBX 16 16 0 0
BITMAP
0000
7F8E
038E
038E
038E
070E
7FFE
0E7E
0E0E
3F9C
039C
039C
03BE
0377
0000
0000
ENDCHAR
STARTCHAR char0xAD8C
ENCODING 44428
SWIDTH 1333 0
DWIDTH 16 0
BBX 16 16 0 0
BITMAP
0000
7F8E
038E
038E
038E
070E
7FFE
0E7E
0E0E
3800
3800
3800
3800
1FFE
0000
0000
ENDCHAR
STARTCHAR char0xAD8D
ENCODING 44429
SWIDTH 1333 0
DWIDTH 16 0
BBX 16 16 0 0
BITMAP
0000
7F8E
038E
038E
038E
070E
7FFE
0E7E
0E0E
38FE
3838
3838
387C
1FEE
0000
0000
ENDCHAR
STARTCHAR char0xAD8E
ENCODING 44430
SWIDTH 1333 0
DWIDTH 16 0
BBX 16 16 0 0
BITMAP
0000
7F8E
038E
038E
038E
070E
7FFE
0E7E
0E0E
3878
39FE
38FC
39CE
1EFC
0000
0000
ENDCHAR
STARTCHAR char0xAD8F
ENCODING 44431
SWIDTH 1333 0
DWIDTH 16 0
BBX 16 16 0 0
BITMAP
0000
7F8E
038E
038E
038E
070E
7FFE
0E7E
0E0E
3FFE
3800
3800
3800
1FFE
0000
0000
ENDCHAR
STARTCHAR char0xAD90
ENCODING 44432
SWIDTH 1333 0
DWIDTH 16 0
BBX 16 16 0 0
BITMAP
0000
7F8E
038E
038E
038E
070E
7FFE
0E7E
0E0E
3FFE
000E
3FFE
3800
1FFE
0000
0000
ENDCHAR
STARTCHAR char0xAD91
ENCODING 44433
SWIDTH 1333 0
DWIDTH 16 0
BBX 16 16 0 0
BITMAP
0000
7F8E
038E
038E
038E
070E
7FFE
0E7E
0E0E
3F7E
070E
3F0E
380E
1F0C
0000
0000
ENDCHAR
STARTCHAR char0xAD92
ENCODING 44434
SWIDTH 1333 0
DWIDTH 16 0
BBX 16 16 0 0
BITMAP
0000
7F8E
038E
038E
038E
070E
7FFE
0E7E
0E0E
3EFE
0EEE
3EEE
38EE
1E7C
0000
0000
ENDCHAR
STARTCHAR char0xAD93
ENCODING 44435
SWIDTH 1333 0
DWIDTH 16 0
BBX 16 16 0 0
BITMAP
0000
7F8E
038E
038E
038E
070E
7FFE
0E7E
0E0E
3EEE
0EEE
3EFE
38EE
1E7C
0000
0000
ENDCHAR
STARTCHAR char0xAD94
ENCODING 44436
SWIDTH 1333 0
DWIDTH 16 0
BBX 16 16 0 0
BITMAP
0000
7F8E
038E
038E
038E
070E
7FFE
0E7E
0E0E
3F9C
039C
3F9C
383E
1FF7
0000
0000
ENDCHAR
STARTCHAR char0xAD95
ENCODING 44437
SWIDTH 1333 0
DWIDTH 16 0
BBX 16 16 0 0
BITMAP
0000
7F8E
038E
038E
038E
070E
7FFE
0E7E
0E0E
3F7E
0770
3F7E
3870
1F7E
0000
0000
ENDCHAR
STARTCHAR char0xAD96
ENCODING 44438
SWIDTH 1333 0
DWIDTH 16 0
BBX 16 16 0 0
BITMAP
0000
7F8E
038E
038E
038E
070E
7FFE
0E7E
0E0E
3EFE
0E6C
3E6C
386C
1EFE
0000
0000
ENDCHAR
STARTCHAR char0xAD97
ENCODING 44439
SWIDTH 1333 0
DWIDTH 16 0
BBX 16 16 0 0
BITMAP
0000
7F8E
038E
038E
038E
070E
7FFE
0E7E
0E0E
3F38
07FE
3F7C
38EE
1F7C
0000
0000
ENDCHAR
STARTCHAR char0xAD98
ENCODING 44440
SWIDTH 1333 0
DWIDTH 16 0
BBX 16 16 0 0
BITMAP
0000
7F8E
038E
038E
038E
070E
7FFE
0E7E
0E0E
3FFE
380E
380E
380E
1FFC
0000
0000
ENDCHAR
STARTCHAR char0xAD99
ENCODING 44441
SWIDTH 1333 0
DWIDTH 16 0
BBX 16 16 0 0
BITMAP
0000
7F8E
038E
038E
038E
070E
7FFE
0E7E
0E0E
380E
380E
3FFE
380E
1FFC
0000
0000
ENDCHAR
STARTCHAR char0xAD9A
ENCODING 44442
SWIDTH 1333 0
DWIDTH 16 0
BBX 16 16 0 0
BITMAP
0000
7F8E
038E
038E
038E
070E
7FFE
0E7E
0E0E
3B9C
3B9C
3F9C
3BBE
1F77
0000
0000
ENDCHAR
STARTCHAR char0xAD9B
ENCODING 44443
SWIDTH 1333 0
DWIDTH 16 0
BBX 16 16 0 0
BITMAP
0000
7F8E
038E
038E
038E
070E
7FFE
0E7E
0E0E
01C0
01C0
03E0
0F78
380E
0000
0000
ENDCHAR
STARTCHAR char0xAD9C
ENCODING 44444
SWIDTH 1333 0
DWIDTH 16 0
BBX 16 16 0 0
BITMAP
0000
7F8E
038E
038E
038E
070E
7FFE
0E7E
0E0E
0E1C
0E1C
0E1C
1F3E
3BF7
0000
0000
ENDCHAR
STARTCHAR char0xAD9D
ENCODING 44445
SWIDTH 1333 0
DWIDTH 16 0
BBX 16 16 0 0
BITMAP
0000
7F8E
038E
038E
038E
070E
7FFE
0E7E
0E0E
1FFC
380E
380E
380E
1FFC
0000
0000
ENDCHAR
STARTCHAR char0xAD9E
ENCODING 44446
SWIDTH 1333 0
DWIDTH 16 0
BBX 16 16 0 0
BITMAP
0000
7F8E
038E
038E
038E
070E
7FFE
0E7E
0E0E
3FFE
01C0
03E0
0770
3E3E
0000
0000
ENDCHAR
STARTCHAR char0xAD9F
ENCODING 44447
SWIDTH 1333 0
DWIDTH 16 0
BBX 16 16 0 0
BITMAP
0000
7F8E
038E
038E
038E
070E
7FFE
0E7E
0E0E
03E0
3FFE
03E0
0770
3E3E
0000
0000
ENDCHAR
STARTCHAR char0xADA0
ENCODING 44448
SWIDTH 1333 0
DWIDTH 16 0
BBX 16 16 0 0
BITMAP
0000
7F8E
038E
038E
038E
070E
7FFE
0E7E
0E0E
3FFE
000E
3FFE
000E
000C
0000
0000
ENDCHAR
STARTCHAR char0xADA1
ENCODING 44449
SWIDTH 1333 0
DWIDTH 16 0
BBX 16 16 0 0
BITMAP
0000
7F8E
038E
038E
038E
070E
7FFE
0E7E
0E0E
3FFE
3800
3FFC
3800
1FFE
0000
0000
ENDCHAR
STARTCHAR char0xADA2
ENCODING 44450
SWIDTH 1333 0
DWIDTH 16 0
BBX 16 16 0 0
BITMAP
0000
7F8E
038E
038E
038E
070E
7FFE
0E7E
0E0E
3FFE
0E38
0E38
0E38
3FFE
0000
0000
ENDCHAR
STARTCHAR char0xADA3
ENCODING 44451
SWIDTH 1333 0
DWIDTH 16 0
BBX 16 16 0 0
BITMAP
0000
7F8E
038E
038E
038E
070E
7FFE
0E7E
0E0E
01C0
3FFE
1FFC
380E
1FFC
0000
0000
ENDCHAR
STARTCHAR char0xADA4
ENCODING 44452
SWIDTH 1333 0
DWIDTH 16 0
BBX 16 16 0 0
BITMAP
0000
0037
7FB7
03B7
03B7
03B7
03B7
0737
7FF7
0E37
0EF7
0E37
0E37
0E37
0000
0000
ENDCHAR
STARTCHAR char0xADA5
ENCODING 44453
SWIDTH 1333 0
DWIDTH 16 0
BBX 16 16 0 0
BITMAP
0000
7FB7
03B7
03B7
03B7
0737
7FF7
0EF7
0E37
3FFF
0007
0007
0007
0006
0000
0000
ENDCHAR
STARTCHAR char0xADA6
ENCODING 44454
SWIDTH 1333 0
DWIDTH 16 0
BBX 16 16 0 0
BITMAP
0000
7FB7
03B7
03B7
03B7
0737
7FF7
0EF7
0E37
3FFF
0387
0387
0387
0306
0000
0000
ENDCHAR
STARTCHAR char0xADA7
ENCODING 44455
SWIDTH 1333 0
DWIDTH 16 0
BBX 16 16 0 0
BITMAP
0000
7FB7
03B7
03B7
03B7
0737
7FF7
0EF7
0E37
3F9C
039C
039C
03BE
0367
0000
0000
ENDCHAR
STARTCHAR char0xADA8
ENCODING 44456
SWIDTH 1333 0
DWIDTH 16 0
BBX 16 16 0 0
BITMAP
0000
7FB7
03B7
03B7
03B7
0737
7FF7
0EF7
0E37
3800
3800
3800
3800
1FFF
0000
0000
ENDCHAR
STARTCHAR char0xADA9
ENCODING 44457
SWIDTH 1333 0
DWIDTH 16 0
BBX 16 16 0 0
BITMAP
0000
7FB7
03B7
03B7
03B7
0737
7FF7
0EF7
0E37
387F
381C
381C
383E
1FF7
0000
0000
ENDCHAR
STARTCHAR char0xADAA
ENCODING 44458
SWIDTH 1333 0
DWIDTH 16 0
BBX 16 16 0 0
BITMAP
0000
7FB7
03B7
03B7
03B7
0737
7FF7
0EF7
0E37
383C
38FF
387E
38E7
1F7E
0000
0000
ENDCHAR
STARTCHAR char0xADAB
ENCODING 44459
SWIDTH 1333 0
DWIDTH 16 0
BBX 16 16 0 0
BITMAP
0000
7FB7
03B7
03B7
03B7
0737
7FF7
0EF7
0E37
3FFF
3800
3800
3800
1FFF
0000
0000
ENDCHAR
STARTCHAR char0xADAC
ENCODING 44460
SWIDTH 1333 0
DWIDTH 16 0
BBX 16 16 0 0
BITMAP
0000
7FB7
03B7
03B7
03B7
0737
7FF7
0EF7
0E37
3FFF
0007
3FFF
3800
1FFF
0000
0000
ENDCHAR
STARTCHAR char0xADAD
ENCODING 44461
SWIDTH 1333 0
DWIDTH 16 0
BBX 16 16 0 0
BITMAP
0000
7FB7
03B7
03B7
03B7
0737
7FF7
0EF7
0E37
3F7F
0707
3F07
3807
1F06
0000
0000
ENDCHAR
STARTCHAR char0xADAE
ENCODING 44462
SWIDTH 1333 0
DWIDTH 16 0
BBX 16 16 0 0
BITMAP
0000
7FB7
03B7
03B7
03B7
0737
7FF7
0EF7
0E37
3F7F
0777
3F77
3877
1F3E
0000
0000
ENDCHAR
STARTCHAR char0xADAF
ENCODING 44463
SWIDTH 1333 0
DWIDTH 16 0
BBX 16 16 0 0
BITMAP
0000
7FB7
03B7
03B7
03B7
0737
7FF7
0EF7
0E37
3F77
0777
3F7F
3877
1F3E
0000
0000
ENDCHAR
STARTCHAR char0xADB0
ENCODING 44464
SWIDTH 1333 0
DWIDTH 16 0
BBX 16 16 0 0
BITMAP
0000
7FB7
03B7
03B7
03B7
0737
7FF7
0EF7
0E37
3F9C
039C
3F9C
383E
1FF7
0000
0000
ENDCHAR
STARTCHAR char0xADB1
ENCODING 44465
SWIDTH 1333 0
DWIDTH 16 0
BBX 16 16 0 0
BITMAP
0000
7FB7
03B7
03B7
03B7
0737
7FF7
0EF7
0E37
3F7F
0770
3F7F
3870
1F7F
0000
0000
ENDCHAR
STARTCHAR char0xADB2
ENCODING 44466
SWIDTH 1333 0
DWIDTH 16 0
BBX 16 16 0 0
BITMAP
0000
7FB7
03B7
03B7
03B7
0737
7FF7
0EF7
0E37
3F7F
0736
3F36
3836
1F7F
0000
0000
ENDCHAR
STARTCHAR char0xADB3
ENCODING 44467
SWIDTH 1333 0
DWIDTH 16 0
BBX 16 16 0 0
BITMAP
0000
7FB7
03B7
03B7
03B7
0737
7FF7
0EF7
0E37
3F3C
07FF
3F7E
38E7
1F7E
0000
0000
ENDCHAR
STARTCHAR char0xADB4
ENCODING 44468
SWIDTH 1333 0
DWIDTH 16 0
BBX 16 16 0 0
BITMAP
0000
7FB7
03B7
03B7
03B7
0737
7FF7
0EF7
0E37
3FFF
3807
3807
3807
1FFE
0000
0000
ENDCHAR
STARTCHAR char0xADB5
ENCODING 44469
SWIDTH 1333 0
DWIDTH 16 0
BBX 16 16 0 0
BITMAP
0000
7FB7
03B7
03B7
03B7
0737
7FF7
0EF7
0E37
3807
3807
3FFF
3807
1FFE
0000
0000
ENDCHAR
STARTCHAR char0xADB6
ENCODING 44470
SWIDTH 1333 0
DWIDTH 16 0
BBX 16 16 0 0
BITMAP
0000
7FB7
03B7
03B7
03B7
0737
7FF7
0EF7
0E37
3B9C
3B9C
3F9C
3BBE
1F77
0000
0000
ENDCHAR
STARTCHAR char0xADB7
ENCODING 44471
SWIDTH 1333 0
DWIDTH 16 0
BBX 16 16 0 0
BITMAP
0000
7FB7
03B7
03B7
03B7
0737
7FF7
0EF7
0E37
01E0
01E0
03F0
0738
3E1F
0000
0000
ENDCHAR
STARTCHAR char0xADB8
ENCODING 44472
SWIDTH 1333 0
DWIDTH 16 0
BBX 16 16 0 0
BITMAP
0000
7FB7
03B7
03B7
03B7
0737
7FF7
0EF7
0E37
0E1C
0E1C
0E1C
1F3E
3BF7
0000
0000
ENDCHAR
STARTCHAR char0xADB9
ENCODING 44473
SWIDTH 1333 0
DWIDTH 16 0
BBX 16 16 0 0
BITMAP
0000
7FB7
03B7
03B7
03B7
0737
7FF7
0EF7
0E37
1FFE
3807
3807
3807
1FFE
0000
0000
ENDCHAR
STARTCHAR char0xADBA
ENCODING 44474
SWIDTH 1333 0
DWIDTH 16 0
BBX 16 16 0 0
BITMAP
0000
7FB7
03B7
03B7
03B7
0737
7FF7
0EF7
0E37
3FFF
01E0
03F0
0738
3E1F
0000
0000
ENDCHAR
STARTCHAR char0xADBB
ENCODING 44475
SWIDTH 1333 0
DWIDTH 16 0
BBX 16 16 0 0
BITMAP
0000
7FB7
03B7
03B7
03B7
0737
7FF7
0EF7
0E37
01E0
3FFF
03F0
0738
3E1F
0000
0000
ENDCHAR
STARTCHAR char0xADBC
ENCODING 44476
SWIDTH 1333 0
DWIDTH 16 0
BBX 16 16 0 0
BITMAP
0000
7FB7
03B7
03B7
03B7
0737
7FF7
0EF7
0E37
3FFF
0007
3FFF
0007
0006
0000
0000
ENDCHAR
STARTCHAR char0xADBD
ENCODING 44477
SWIDTH 1333 0
DWIDTH 16 0
BBX 16 16 0 0
BITMAP
0000
7FB7
03B7
03B7
03B7
0737
7FF7
0EF7
0E37
3FFF
3800
3FFF
3800
1FFF
0000
0000
ENDCHAR
STARTCHAR char0xADBE
ENCODING 44478
SWIDTH 1333 0
DWIDTH 16 0
BBX 16 16 0 0
BITMAP
0000
7FB7
03B7
03B7
03B7
0737
7FF7
0EF7
0E37
3FFF
0E1C
0E1C
0E1C
3FFF
0000
0000
ENDCHAR
STARTCHAR char0xADBF
ENCODING 44479
SWIDTH 1333 0
DWIDTH 16 0
BBX 16 16 0 0
BITMAP
0000
7FB7
03B7
03B7
03B7
0737
7FF7
0EF7
0E37
01E0
3FFF
1FFE
3807
1FFE
0000
0000
ENDCHAR
STARTCHAR char0xADC0
ENCODING 44480
SWIDTH 1333 0
DWIDTH 16 0
BBX 16 16 0 0
BITMAP
0000
000E
7F8E
038E
038E
038E
038E
070E
7FFE
0E0E
0E0E
0E0E
0E0E
0E0E
0000
0000
ENDCHAR
STARTCHAR char0xADC1
ENCODING 44481
SWIDTH 1333 0
DWIDTH 16 0
BBX 16 16 0 0
BITMAP
0000
7F8E
038E
038E
038E
070E
7FFE
0E0E
0E0E
3FFE
000E
000E
000E
000C
0000
0000
ENDCHAR
STARTCHAR char0xADC2
ENCODING 44482
SWIDTH 1333 0
DWIDTH 16 0
BBX 16 16 0 0
BITMAP
0000
7F8E
038E
038E
038E
070E
7FFE
0E0E
0E0E
3FFE
038E
038E
038E
030C
0000
0000
ENDCHAR
STARTCHAR char0xADC3
ENCODING 44483
SWIDTH 1333 0
DWIDTH 16 0
BBX 16 16 0 0
BITMAP
0000
7F8E
038E
038E
038E
070E
7FFE
0E0E
0E0E
3F9C
039C
039C
03BE
0377
0000
0000
ENDCHAR
STARTCHAR char0xADC4
ENCODING 44484
SWIDTH 1333 0
DWIDTH 16 0
BBX 16 16 0 0
BITMAP
0000
7F8E
038E
038E
038E
070E
7FFE
0E0E
0E0E
3800
3800
3800
3800
1FFE
0000
0000
ENDCHAR
STARTCHAR char0xADC5
ENCODING 44485
SWIDTH 1333 0
DWIDTH 16 0
BBX 16 16 0 0
BITMAP
0000
7F8E
038E
038E
038E
070E
7FFE
0E0E
0E0E
38FE
3838
3838
387C
1FEE
0000
0000
ENDCHAR
STARTCHAR char0xADC6
ENCODING 44486
SWIDTH 1333 0
DWIDTH 16 0
BBX 16 16 0 0
BITMAP
0000
7F8E
038E
038E
038E
070E
7FFE
0E0E
0E0E
3878
39FE
38FC
39CE
1EFC
0000
0000
ENDCHAR
STARTCHAR char0xADC7
ENCODING 44487
SWIDTH 1333 0
DWIDTH 16 0
BBX 16 16 0 0
BITMAP
0000
7F8E
038E
038E
038E
070E
7FFE
0E0E
0E0E
3FFE
3800
3800
3800
1FFE
0000
0000
ENDCHAR
STARTCHAR char0xADC8
ENCODING 44488
SWIDTH 1333 0
DWIDTH 16 0
BBX 16 16 0 0
BITMAP
0000
7F8E
038E
038E
038E
070E
7FFE
0E0E
0E0E
3FFE
000E
3FFE
3800
1FFE
0000
0000
ENDCHAR
STARTCHAR char0xADC9
ENCODING 44489
SWIDTH 1333 0
DWIDTH 16 0
BBX 16 16 0 0
BITMAP
0000
7F8E
038E
038E
038E
070E
7FFE
0E0E
0E0E
3F7E
070E
3F0E
380E
1F0C
0000
0000
ENDCHAR
STARTCHAR char0xADCA
ENCODING 44490
SWIDTH 1333 0
DWIDTH 16 0
BBX 16 16 0 0
BITMAP
0000
7F8E
038E
038E
038E
070E
7FFE
0E0E
0E0E
3EFE
0EEE
3EEE
38EE
1E7C
0000
0000
ENDCHAR
STARTCHAR char0xADCB
ENCODING 44491
SWIDTH 1333 0
DWIDTH 16 0
BBX 16 16 0 0
BITMAP
0000
7F8E
038E
038E
038E
070E
7FFE
0E0E
0E0E
3EEE
0EEE
3EFE
38EE
1E7C
0000
0000
ENDCHAR
STARTCHAR char0xADCC
ENCODING 44492
SWIDTH 1333 0
DWIDTH 16 0
BBX 16 16 0 0
BITMAP
0000
7F8E
038E
038E
038E
070E
7FFE
0E0E
0E0E
3F9C
039C
3F9C
383E
1FF7
0000
0000
ENDCHAR
STARTCHAR char0xADCD
ENCODING 44493
SWIDTH 1333 0
DWIDTH 16 0
BBX 16 16 0 0
BITMAP
0000
7F8E
038E
038E
038E
070E
7FFE
0E0E
0E0E
3F7E
0770
3F7E
3870
1F7E
0000
0000
ENDCHAR
STARTCHAR char0xADCE
ENCODING 44494
SWIDTH 1333 0
DWIDTH 16 0
BBX 16 16 0 0
BITMAP
0000
7F8E
038E
038E
038E
070E
7FFE
0E0E
0E0E
3EFE
0E6C
3E6C
386C
1EFE
0000
0000
ENDCHAR
STARTCHAR char0xADCF
ENCODING 44495
SWIDTH 1333 0
DWIDTH 16 0
BBX 16 16 0 0
BITMAP
0000
7F8E
038E
038E
038E
070E
7FFE
0E0E
0E0E
3F38
07FE
3F7C
38EE
1F7C
0000
0000
ENDCHAR
STARTCHAR char0xADD0
ENCODING 44496
SWIDTH 1333 0
DWIDTH 16 0
BBX 16 16 0 0
BITMAP
0000
7F8E
038E
038E
038E
070E
7FFE
0E0E
0E0E
3FFE
380E
380E
380E
1FFC
0000
0000
ENDCHAR
STARTCHAR char0xADD1
ENCODING 44497
SWIDTH 1333 0
DWIDTH 16 0
BBX 16 16 0 0
BITMAP
0000
7F8E
038E
038E
038E
070E
7FFE
0E0E
0E0E
380E
380E
3FFE
380E
1FFC
0000
0000
ENDCHAR
STARTCHAR char0xADD2
ENCODING 44498
SWIDTH 1333 0
DWIDTH 16 0
BBX 16 16 0 0
BITMAP
0000
7F8E
038E
038E
038E
070E
7FFE
0E0E
0E0E
3B9C
3B9C
3F9C
3BBE
1F77
0000
0000
ENDCHAR
STARTCHAR char0xADD3
ENCODING 44499
SWIDTH 1333 0
DWIDTH 16 0
BBX 16 16 0 0
BITMAP
0000
7F8E
038E
038E
038E
070E
7FFE
0E0E
0E0E
01C0
01C0
03E0
0F78
380E
0000
0000
ENDCHAR
STARTCHAR char0xADD4
ENCODING 44500
SWIDTH 1333 0
DWIDTH 16 0
BBX 16 16 0 0
BITMAP
0000
7F8E
038E
038E
038E
070E
7FFE
0E0E
0E0E
0E1C
0E1C
0E1C
1F3E
3BF7
0000
0000
ENDCHAR
STARTCHAR char0xADD5
ENCODING 44501
SWIDTH 1333 0
DWIDTH 16 0
BBX 16 16 0 0
BITMAP
0000
7F8E
038E
038E
038E
070E
7FFE
0E0E
0E0E
1FFC
380E
380E
380E
1FFC
0000
0000
ENDCHAR
STARTCHAR char0xADD6
ENCODING 44502
SWIDTH 1333 0
DWIDTH 16 0
BBX 16 16 0 0
BITMAP
0000
7F8E
038E
038E
038E
070E
7FFE
0E0E
0E0E
3FFE
01C0
03E0
0770
3E3E
0000
0000
ENDCHAR
STARTCHAR char0xADD7
ENCODING 44503
SWIDTH 1333 0
DWIDTH 16 0
BBX 16 16 0 0
BITMAP
0000
7F8E
038E
038E
038E
070E
7FFE
0E0E
0E0E
03E0
3FFE
03E0
0770
3E3E
0000
0000
ENDCHAR
STARTCHAR char0xADD8
ENCODING 44504
SWIDTH 1333 0
DWIDTH 16 0
BBX 16 16 0 0
BITMAP
0000
7F8E
038E
038E
038E
070E
7FFE
0E0E
0E0E
3FFE
000E
3FFE
000E
000C
0000
0000
ENDCHAR
STARTCHAR char0xADD9
ENCODING 44505
SWIDTH 1333 0
DWIDTH 16 0
BBX 16 16 0 0
BITMAP
0000
7F8E
038E
038E
038E
070E
7FFE
0E0E
0E0E
3FFE
3800
3FFC
3800
1FFE
0000
0000
ENDCHAR
STARTCHAR char0xADDA
ENCODING 44506
SWIDTH 1333 0
DWIDTH 16 0
BBX 16 16 0 0
BITMAP
0000
7F8E
038E
038E
038E
070E
7FFE
0E0E
0E0E
3FFE
0E38
0E38
0E38
3FFE
0000
0000
ENDCHAR
STARTCHAR char0xADDB
ENCODING 44507
SWIDTH 1333 0
DWIDTH 16 0
BBX 16 16 0 0
BITMAP
0000
7F8E
038E
038E
038E
070E
7FFE
0E0E
0E0E
01C0
3FFE
1FFC
380E
1FFC
0000
0000
ENDCHAR
STARTCHAR char0xADDC
ENCODING 44508
SWIDTH 1333 0
DWIDTH 16 0
BBX 16 16 0 0
BITMAP
0000
0000
3FFE
000E
000E
000E
000E
000E
001C
7FFF
0E38
0E38
0E38
0E38
0000
0000
ENDCHAR
STARTCHAR char0xADDD
ENCODING 44509
SWIDTH 1333 0
DWIDTH 16 0
BBX 16 16 0 0
BITMAP
0000
3FFE
000E
000E
000E
000E
001C
7FFF
0E38
3FFE
000E
000E
000E
000C
0000
0000
ENDCHAR
STARTCHAR char0xADDE
ENCODING 44510
SWIDTH 1333 0
DWIDTH 16 0
BBX 16 16 0 0
BITMAP
0000
3FFE
000E
000E
000E
000E
001C
7FFF
0E38
3FFE
038E
038E
038E
030C
0000
0000
ENDCHAR
STARTCHAR char0xADDF
ENCODING 44511
SWIDTH 1333 0
DWIDTH 16 0
BBX 16 16 0 0
BITMAP
0000
3FFE
000E
000E
000E
000E
001C
7FFF
0E38
3F38
0738
0738
077C
06EE
0000
0000
ENDCHAR
STARTCHAR char0xADE0
ENCODING 44512
SWIDTH 1333 0
DWIDTH 16 0
BBX 16 16 0 0
BITMAP
0000
3FFE
000E
000E
000E
000E
001C
7FFF
0E38
3E38
3800
3800
3800
1FFE
0000
0000
ENDCHAR
STARTCHAR char0xADE1
ENCODING 44513
SWIDTH 1333 0
DWIDTH 16 0
BBX 16 16 0 0
BITMAP
0000
3FFE
000E
000E
000E
000E
001C
7FFF
0E38
3EFE
3838
3838
387C
1FEE
0000
0000
ENDCHAR
STARTCHAR char0xADE2
ENCODING 44514
SWIDTH 1333 0
DWIDTH 16 0
BBX 16 16 0 0
BITMAP
0000
3FFE
000E
000E
000E
000E
001C
7FFF
0E38
3E78
39FE
38FC
39CE
1EFC
0000
0000
ENDCHAR
STARTCHAR char0xADE3
ENCODING 44515
SWIDTH 1333 0
DWIDTH 16 0
BBX 16 16 0 0
BITMAP
0000
3FFE
000E
000E
000E
000E
001C
7FFF
0E38
3FFE
3800
3800
3800
1FFE
0000
0000
ENDCHAR
STARTCHAR char0xADE4
ENCODING 44516
SWIDTH 1333 0
DWIDTH 16 0
BBX 16 16 0 0
BITMAP
0000
3FFE
000E
000E
000E
000E
001C
7FFF
0E38
3FFE
000E
3FFE
3800
1FFE
0000
0000
ENDCHAR
STARTCHAR char0xADE5
ENCODING 44517
SWIDTH 1333 0
DWIDTH 16 0
BBX 16 16 0 0
BITMAP
0000
3FFE
000E
000E
000E
000E
001C
7FFF
0E38
3FFE
038E
3F8E
380E
1F8C
0000
0000
ENDCHAR
STARTCHAR char0xADE6
ENCODING 44518
SWIDTH 1333 0
DWIDTH 16 0
BBX 16 16 0 0
BITMAP
0000
3FFE
000E
000E
000E
000E
001C
7FFF
0E38
3EFE
0EEE
3EEE
38EE
1E7C
0000
0000
ENDCHAR
STARTCHAR char0xADE7
ENCODING 44519
SWIDTH 1333 0
DWIDTH 16 0
BBX 16 16 0 0
BITMAP
0000
3FFE
000E
000E
000E
000E
001C
7FFF
0E38
3EFE
0EEE
3EFE
38EE
1E7C
0000
0000
ENDCHAR
STARTCHAR char0xADE8
ENCODING 44520
SWIDTH 1333 0
DWIDTH 16 0
BBX 16 16 0 0
BITMAP
0000
3FFE
000E
000E
000E
000E
001C
7FFF
0E38
3F38
0738
3F38
387C
1FEE
0000
0000
ENDCHAR
STARTCHAR char0xADE9
ENCODING 44521
SWIDTH 1333 0
DWIDTH 16 0
BBX 16 16 0 0
BITMAP
0000
3FFE
000E
000E
000E
000E
001C
7FFF
0E38
3F7E
0760
3F7E
3860
1F7E
0000
0000
ENDCHAR
STARTCHAR char0xADEA
ENCODING 44522
SWIDTH 1333 0
DWIDTH 16 0
BBX 16 16 0 0
BITMAP
0000
3FFE
000E
000E
000E
000E
001C
7FFF
0E38
3EFE
0E6C
3E6C
386C
1EFE
0000
0000
ENDCHAR
STARTCHAR char0xADEB
ENCODING 44523
SWIDTH 1333 0
DWIDTH 16 0
BBX 16 16 0 0
BITMAP
0000
3FFE
000E
000E
000E
000E
001C
7FFF
0E38
3F38
07FE
3F7C
38EE
1F7C
0000
0000
ENDCHAR
STARTCHAR char0xADEC
ENCODING 44524
SWIDTH 1333 0
DWIDTH 16 0
BBX 16 16 0 0
BITMAP
0000
3FFE
000E
000E
000E
000E
001C
7FFF
0E38
3FFE
380E
380E
380E
1FFC
0000
0000
ENDCHAR
STARTCHAR char0xADED
ENCODING 44525
SWIDTH 1333 0
DWIDTH 16 0
BBX 16 16 0 0
BITMAP
0000
3FFE
000E
000E
000E
000E
001C
7FFF
0E38
3E3E
380E
3FFE
380E
1FFC
0000
0000
ENDCHAR
STARTCHAR char0xADEE
ENCODING 44526
SWIDTH 1333 0
DWIDTH 16 0
BBX 16 16 0 0
BITMAP
0000
3FFE
000E
000E
000E
000E
001C
7FFF
0E38
3F38
3738
3F38
377C
1EEE
0000
0000
ENDCHAR
STARTCHAR char0xADEF
ENCODING 44527
SWIDTH 1333 0
DWIDTH 16 0
BBX 16 16 0 0
BITMAP
0000
3FFE
000E
000E
000E
000E
001C
7FFF
0E38
0FF8
01C0
03E0
0770
3E3E
0000
0000
ENDCHAR
STARTCHAR char0xADF0
ENCODING 44528
SWIDTH 1333 0
DWIDTH 16 0
BBX 16 16 0 0
BITMAP
0000
3FFE
000E
000E
000E
000E
001C
7FFF
0E38
0E38
0E38
0E38
1F7C
3BEE
0000
0000
ENDCHAR
STARTCHAR char0xADF1
ENCODING 44529
SWIDTH 1333 0
DWIDTH 16 0
BBX 16 16 0 0
BITMAP
0000
3FFE
000E
000E
000E
000E
001C
7FFF
0E38
1FFC
380E
380E
380E
1FFC
0000
0000
ENDCHAR
STARTCHAR char0xADF2
ENCODING 44530
SWIDTH 1333 0
DWIDTH 16 0
BBX 16 16 0 0
BITMAP
0000
3FFE
000E
000E
000E
000E
001C
7FFF
0E38
3FFE
01C0
03E0
0770
3E3E
0000
0000
ENDCHAR
STARTCHAR char0xADF3
ENCODING 44531
SWIDTH 1333 0
DWIDTH 16 0
BBX 16 16 0 0
BITMAP
0000
3FFE
000E
000E
000E
000E
001C
7FFF
0E38
0FF8
3FFE
03E0
0770
3E3E
0000
0000
ENDCHAR
STARTCHAR char0xADF4
ENCODING 44532
SWIDTH 1333 0
DWIDTH 16 0
BBX 16 16 0 0
BITMAP
0000
3FFE
000E
000E
000E
000E
001C
7FFF
0E38
3FFE
000E
3FFE
000E
000C
0000
0000
ENDCHAR
STARTCHAR char0xADF5
ENCODING 44533
SWIDTH 1333 0
DWIDTH 16 0
BBX 16 16 0 0
BITMAP
0000
3FFE
000E
000E
000E
000E
001C
7FFF
0E38
3FFE
3800
3FFE
3800
1FFE
0000
0000
ENDCHAR
STARTCHAR char0xADF6
ENCODING 44534
SWIDTH 1333 0
DWIDTH 16 0
BBX 16 16 0 0
BITMAP
0000
3FFE
000E
000E
000E
000E
001C
7FFF
0E38
3FFE
0E38
0E38
0E38
3FFE
0000
0000
ENDCHAR
STARTCHAR char0xADF7
ENCODING 44535
SWIDTH 1333 0
DWIDTH 16 0
BBX 16 16 0 0
BITMAP
0000
3FFE
000E
000E
000E
000E
001C
7FFF
0E38
0FF8
3FFE
1FFC
380E
1FFC
0000
0000
ENDCHAR
STARTCHAR char0xADF8
ENCODING 44536
SWIDTH 1333 0
DWIDTH 16 0
BBX 16 16 0 0
BITMAP
0000
0000
3FFE
000E
000E
000E
000E
000E
001C
0000
0000
0000
7FFF
0000
0000
0000
ENDCHAR
STARTCHAR char0xADF9
ENCODING 44537
SWIDTH 1333 0
DWIDTH 16 0
BBX 16 16 0 0
BITMAP
0000
3FFE
000E
000E
000E
000E
001C
7FFF
0000
3FFE
000E
000E
000E
000C
0000
0000
ENDCHAR
STARTCHAR char0xADFA
ENCODING 44538
SWIDTH 1333 0
DWIDTH 16 0
BBX 16 16 0 0
BITMAP
0000
3FFE
000E
000E
000E
000E
001C
7FFF
0000
3FFE
038E
038E
038E
030C
0000
0000
ENDCHAR
STARTCHAR char0xADFB
ENCODING 44539
SWIDTH 1333 0
DWIDTH 16 0
BBX 16 16 0 0
BITMAP
0000
3FFE
000E
000E
000E
000E
001C
7FFF
0000
3F38
0738
0738
077C
06EE
0000
0000
ENDCHAR
STARTCHAR char0xADFC
ENCODING 44540
SWIDTH 1333 0
DWIDTH 16 0
BBX 16 16 0 0
BITMAP
0000
3FFE
000E
000E
000E
000E
001C
7FFF
0000
3800
3800
3800
3800
1FFE
0000
0000
ENDCHAR
STARTCHAR char0xADFD
ENCODING 44541
SWIDTH 1333 0
DWIDTH 16 0
BBX 16 16 0 0
BITMAP
0000
3FFE
000E
000E
000E
000E
001C
7FFF
0000
38FE
3838
3838
387C
1FEE
0000
0000
ENDCHAR
STARTCHAR char0xADFE
ENCODING 44542
SWIDTH 1333 0
DWIDTH 16 0
BBX 16 16 0 0
BITMAP
0000
3FFE
000E
000E
000E
000E
001C
7FFF
0000
3878
39FE
38FC
39CE
1EFC
0000
0000
ENDCHAR
STARTCHAR char0xADFF
ENCODING 44543
SWIDTH 1333 0
DWIDTH 16 0
BBX 16 16 0 0
BITMAP
0000
3FFE
000E
000E
000E
000E
001C
7FFF
0000
3FFE
3800
3800
3800
1FFE
0000
0000
ENDCHAR
STARTCHAR char0xAE00
ENCODING 44544
SWIDTH 1333 0
DWIDTH 16 0
BBX 16 16 0 0
BITMAP
0000
3FFE
000E
000E
000E
000E
001C
7FFF
0000
3FFE
000E
3FFE
3800
1FFE
0000
0000
ENDCHAR
STARTCHAR char0xAE01
ENCODING 44545
SWIDTH 1333 0
DWIDTH 16 0
BBX 16 16 0 0
BITMAP
0000
3FFE
000E
000E
000E
000E
001C
7FFF
0000
3FFE
038E
3F8E
380E
1F8C
0000
0000
ENDCHAR
STARTCHAR char0xAE02
ENCODING 44546
SWIDTH 1333 0
DWIDTH 16 0
BBX 16 16 0 0
BITMAP
0000
3FFE
000E
000E
000E
000E
001C
7FFF
0000
3EFE
0EEE
3EEE
38EE
1E7C
0000
0000
ENDCHAR
STARTCHAR char0xAE03
ENCODING 44547
SWIDTH 1333 0
DWIDTH 16 0
BBX 16 16 0 0
BITMAP
0000
3FFE
000E
000E
000E
000E
001C
7FFF
0000
3EEE
0EEE
3EFE
38EE
1E7C
0000
0000
ENDCHAR
STARTCHAR char0xAE04
ENCODING 44548
SWIDTH 1333 0
DWIDTH 16 0
BBX 16 16 0 0
BITMAP
0000
3FFE
000E
000E
000E
000E
001C
7FFF
0000
3F38
0738
3F38
387C
1FEE
0000
0000
ENDCHAR
STARTCHAR char0xAE05
ENCODING 44549
SWIDTH 1333 0
DWIDTH 16 0
BBX 16 16 0 0
BITMAP
0000
3FFE
000E
000E
000E
000E
001C
7FFF
0000
3F7E
0760
3F7E
3860
1F7E
0000
0000
ENDCHAR
STARTCHAR char0xAE06
ENCODING 44550
SWIDTH 1333 0
DWIDTH 16 0
BBX 16 16 0 0
BITMAP
0000
3FFE
000E
000E
000E
000E
001C
7FFF
0000
3EFE
0E6C
3E6C
386C
1EFE
0000
0000
ENDCHAR
STARTCHAR char0xAE07
ENCODING 44551
SWIDTH 1333 0
DWIDTH 16 0
BBX 16 16 0 0
BITMAP
0000
3FFE
000E
000E
000E
000E
001C
7FFF
0000
3F38
07FE
3F7C
38EE
1F7C
0000
0000
ENDCHAR
STARTCHAR char0xAE08
ENCODING 44552
SWIDTH 1333 0
DWIDTH 16 0
BBX 16 16 0 0
BITMAP
0000
3FFE
000E
000E
000E
000E
001C
7FFF
0000
3FFE
380E
380E
380E
1FFC
0000
0000
ENDCHAR
STARTCHAR char0xAE09
ENCODING 44553
SWIDTH 1333 0
DWIDTH 16 0
BBX 16 16 0 0
BITMAP
0000
3FFE
000E
000E
000E
000E
001C
7FFF
0000
380E
380E
3FFE
380E
1FFC
0000
0000
ENDCHAR
STARTCHAR char0xAE0A
ENCODING 44554
SWIDTH 1333 0
DWIDTH 16 0
BBX 16 16 0 0
BITMAP
0000
3FFE
000E
000E
000E
000E
001C
7FFF
0000
3738
3738
3F38
377C
1EEE
0000
0000
ENDCHAR
STARTCHAR char0xAE0B
ENCODING 44555
SWIDTH 1333 0
DWIDTH 16 0
BBX 16 16 0 0
BITMAP
0000
3FFE
000E
000E
000E
000E
001C
7FFF
0000
01C0
01C0
03E0
0770
3E3E
0000
0000
ENDCHAR
STARTCHAR char0xAE0C
ENCODING 44556
SWIDTH 1333 0
DWIDTH 16 0
BBX 16 16 0 0
BITMAP
0000
3FFE
000E
000E
000E
000E
001C
7FFF
0000
0E38
0E38
0E38
1F7C
3BEE
0000
0000
ENDCHAR
STARTCHAR char0xAE0D
ENCODING 44557
SWIDTH 1333 0
DWIDTH 16 0
BBX 16 16 0 0
BITMAP
0000
3FFE
000E
000E
000E
000E
001C
7FFF
0000
1FFC
380E
380E
380E
1FFC
0000
0000
ENDCHAR
STARTCHAR char0xAE0E
ENCODING 44558
SWIDTH 1333 0
DWIDTH 16 0
BBX 16 16 0 0
BITMAP
0000
3FFE
000E
000E
000E
000E
001C
7FFF
0000
3FFE
01C0
03E0
0770
3E3E
0000
0000
ENDCHAR
STARTCHAR char0xAE0F
ENCODING 44559
SWIDTH 1333 0
DWIDTH 16 0
BBX 16 16 0 0
BITMAP
0000
3FFE
000E
000E
000E
000E
001C
7FFF
0000
01C0
3FFE
03E0
0770
3E3E
0000
0000
ENDCHAR
STARTCHAR char0xAE10
ENCODING 44560
SWIDTH 1333 0
DWIDTH 16 0
BBX 16 16 0 0
BITMAP
0000
3FFE
000E
000E
000E
000E
001C
7FFF
0000
3FFE
000E
3FFE
000E
000C
0000
0000
ENDCHAR
STARTCHAR char0xAE11
ENCODING 44561
SWIDTH 1333 0
DWIDTH 16 0
BBX 16 16 0 0
BITMAP
0000
3FFE
000E
000E
000E
000E
001C
7FFF
0000
3FFE
3800
3FFE
3800
1FFE
0000
0000
ENDCHAR
STARTCHAR char0xAE12
ENCODING 44562
SWIDTH 1333 0
DWIDTH 16 0
BBX 16 16 0 0
BITMAP
0000
3FFE
000E
000E
000E
000E
001C
7FFF
0000
3FFE
0E38
0E38
0E38
3FFE
0000
0000
ENDCHAR
STARTCHAR char0xAE13
ENCODING 44563
SWIDTH 1333 0
DWIDTH 16 0
BBX 16 16 0 0
BITMAP
0000
3FFE
000E
000E
000E
000E
001C
7FFF
0000
01C0
3FFE
1FFC
380E
1FFC
0000
0000
ENDCHAR
STARTCHAR char0xAE14
ENCODING 44564
SWIDTH 1333 0
DWIDTH 16 0
BBX 16 16 0 0
BITMAP
0000
000E
7F8E
038E
038E
038E
038E
038E
070E
000E
000E
000E
7FFE
000E
0000
0000
ENDCHAR
STARTCHAR char0xAE15
ENCODING 44565
SWIDTH 1333 0
DWIDTH 16 0
BBX 16 16 0 0
BITMAP
0000
7F8E
038E
038E
038E
070E
000E
7FFE
000E
3FFE
000E
000E
000E
000C
0000
0000
ENDCHAR
STARTCHAR char0xAE16
ENCODING 44566
SWIDTH 1333 0
DWIDTH 16 0
BBX 16 16 0 0
BITMAP
0000
7F8E
038E
038E
038E
070E
000E
7FFE
000E
3FFE
038E
038E
038E
030C
0000
0000
ENDCHAR
STARTCHAR char0xAE17
ENCODING 44567
SWIDTH 1333 0
DWIDTH 16 0
BBX 16 16 0 0
BITMAP
0000
7F8E
038E
038E
038E
070E
000E
7FFE
000E
3F9C
039C
039C
03BE
0377
0000
0000
ENDCHAR
STARTCHAR char0xAE18
ENCODING 44568
SWIDTH 1333 0
DWIDTH 16 0
BBX 16 16 0 0
BITMAP
0000
7F8E
038E
038E
038E
070E
000E
7FFE
000E
3800
3800
3800
3800
1FFE
0000
0000
ENDCHAR
STARTCHAR char0xAE19
ENCODING 44569
SWIDTH 1333 0
DWIDTH 16 0
BBX 16 16 0 0
BITMAP
0000
7F8E
038E
038E
038E
070E
000E
7FFE
000E
38FE
3838
3838
387C
1FEE
0000
0000
ENDCHAR
STARTCHAR char0xAE1A
ENCODING 44570
SWIDTH 1333 0
DWIDTH 16 0
BBX 16 16 0 0
BITMAP
0000
7F8E
038E
038E
038E
070E
000E
7FFE
000E
3878
39FE
38FC
39CE
1EFC
0000
0000
ENDCHAR
STARTCHAR char0xAE1B
ENCODING 44571
SWIDTH 1333 0
DWIDTH 16 0
BBX 16 16 0 0
BITMAP
0000
7F8E
038E
038E
038E
070E
000E
7FFE
000E
3FFE
3800
3800
3800
1FFE
0000
0000
ENDCHAR
STARTCHAR char0xAE1C
ENCODING 44572
SWIDTH 1333 0
DWIDTH 16 0
BBX 16 16 0 0
BITMAP
0000
7F8E
038E
038E
038E
070E
000E
7FFE
000E
3FFE
000E
3FFE
3800
1FFE
0000
0000
ENDCHAR
STARTCHAR char0xAE1D
ENCODING 44573
SWIDTH 1333 0
DWIDTH 16 0
BBX 16 16 0 0
BITMAP
0000
7F8E
038E
038E
038E
070E
000E
7FFE
000E
3F7E
070E
3F0E
380E
1F0C
0000
0000
ENDCHAR
STARTCHAR char0xAE1E
ENCODING 44574
SWIDTH 1333 0
DWIDTH 16 0
BBX 16 16 0 0
BITMAP
0000
7F8E
038E
038E
038E
070E
000E
7FFE
000E
3EFE
0EEE
3EEE
38EE
1E7C
0000
0000
ENDCHAR
STARTCHAR char0xAE1F
ENCODING 44575
SWIDTH 1333 0
DWIDTH 16 0
BBX 16 16 0 0
BITMAP
0000
7F8E
038E
038E
038E
070E
000E
7FFE
000E
3EEE
0EEE
3EFE
38EE
1E7C
0000
0000
ENDCHAR
STARTCHAR char0xAE20
ENCODING 44576
SWIDTH 1333 0
DWIDTH 16 0
BBX 16 16 0 0
BITMAP
0000
7F8E
038E
038E
038E
070E
000E
7FFE
000E
3F9C
039C
3F9C
383E
1FF7
0000
0000
ENDCHAR
STARTCHAR char0xAE21
ENCODING 44577
SWIDTH 1333 0
DWIDTH 16 0
BBX 16 16 0 0
BITMAP
0000
7F8E
038E
038E
038E
070E
000E
7FFE
000E
3F7E
0770
3F7E
3870
1F7E
0000
0000
ENDCHAR
STARTCHAR char0xAE22
ENCODING 44578
SWIDTH 1333 0
DWIDTH 16 0
BBX 16 16 0 0
BITMAP
0000
7F8E
038E
038E
038E
070E
000E
7FFE
000E
3EFE
0E6C
3E6C
386C
1EFE
0000
0000
ENDCHAR
STARTCHAR char0xAE23
ENCODING 44579
SWIDTH 1333 0
DWIDTH 16 0
BBX 16 16 0 0
BITMAP
0000
7F8E
038E
038E
038E
070E
000E
7FFE
000E
3F38
07FE
3F7C
38EE
1F7C
0000
0000
ENDCHAR
STARTCHAR char0xAE24
ENCODING 44580
SWIDTH 1333 0
DWIDTH 16 0
BBX 16 16 0 0
BITMAP
0000
7F8E
038E
038E
038E
070E
000E
7FFE
000E
3FFE
380E
380E
380E
1FFC
0000
0000
ENDCHAR
STARTCHAR char0xAE25
ENCODING 44581
SWIDTH 1333 0
DWIDTH 16 0
BBX 16 16 0 0
BITMAP
0000
7F8E
038E
038E
038E
070E
000E
7FFE
000E
380E
380E
3FFE
380E
1FFC
0000
0000
ENDCHAR
STARTCHAR char0xAE26
ENCODING 44582
SWIDTH 1333 0
DWIDTH 16 0
BBX 16 16 0 0
BITMAP
0000
7F8E
038E
038E
038E
070E
000E
7FFE
000E
3B9C
3B9C
3F9C
3BBE
1F77
0000
0000
ENDCHAR
STARTCHAR char0xAE27
ENCODING 44583
SWIDTH 1333 0
DWIDTH 16 0
BBX 16 16 0 0
BITMAP
0000
7F8E
038E
038E
038E
070E
000E
7FFE
000E
01C0
01C0
03E0
0F78
380E
0000
0000
ENDCHAR
STARTCHAR char0xAE28
ENCODING 44584
SWIDTH 1333 0
DWIDTH 16 0
BBX 16 16 0 0
BITMAP
0000
7F8E
038E
038E
038E
070E
000E
7FFE
000E
0E1C
0E1C
0E1C
1F3E
3BF7
0000
0000
ENDCHAR
STARTCHAR char0xAE29
ENCODING 44585
SWIDTH 1333 0
DWIDTH 16 0
BBX 16 16 0 0
BITMAP
0000
7F8E
038E
038E
038E
070E
000E
7FFE
000E
1FFC
380E
380E
380E
1FFC
0000
0000
ENDCHAR
STARTCHAR char0xAE2A
ENCODING 44586
SWIDTH 1333 0
DWIDTH 16 0
BBX 16 16 0 0
BITMAP
0000
7F8E
038E
038E
038E
070E
000E
7FFE
000E
3FFE
01C0
03E0
0770
3E3E
0000
0000
ENDCHAR
STARTCHAR char0xAE2B
ENCODING 44587
SWIDTH 1333 0
DWIDTH 16 0
BBX 16 16 0 0
BITMAP
0000
7F8E
038E
038E
038E
070E
000E
7FFE
000E
03E0
3FFE
03E0
0770
3E3E
0000
0000
ENDCHAR
STARTCHAR char0xAE2C
ENCODING 44588
SWIDTH 1333 0
DWIDTH 16 0
BBX 16 16 0 0
BITMAP
0000
7F8E
038E
038E
038E
070E
000E
7FFE
000E
3FFE
000E
3FFE
000E
000C
0000
0000
ENDCHAR
STARTCHAR char0xAE2D
ENCODING 44589
SWIDTH 1333 0
DWIDTH 16 0
BBX 16 16 0 0
BITMAP
0000
7F8E
038E
038E
038E
070E
000E
7FFE
000E
3FFE
3800
3FFC
3800
1FFE
0000
0000
ENDCHAR
STARTCHAR char0xAE2E
ENCODING 44590
SWIDTH 1333 0
DWIDTH 16 0
BBX 16 16 0 0
BITMAP
0000
7F8E
038E
038E
038E
070E
000E
7FFE
000E
3FFE
0E38
0E38
0E38
3FFE
0000
0000
ENDCHAR
STARTCHAR char0xAE2F
ENCODING 44591
SWIDTH 1333 0
DWIDTH 16 0
BBX 16 16 0 0
BITMAP
0000
7F8E
038E
038E
038E
070E
000E
7FFE
000E
01C0
3FFE
1FFC
380E
1FFC
0000
0000
ENDCHAR
STARTCHAR char0xAE30
ENCODING 44592
SWIDTH 1333 0
DWIDTH 16 0
BBX 16 16 0 0
BITMAP
0000
000E
7F0E
070E
070E
070E
070E
070E
070E
070E
070E
0E0E
3C0E
000E
0000
0000
ENDCHAR
STARTCHAR char0xAE31
ENCODING 44593
SWIDTH 1333 0
DWIDTH 16 0
BBX 16 16 0 0
BITMAP
0000
7F0E
070E
070E
070E
070E
070E
3E0E
0000
3FFE
000E
000E
000E
000C
0000
0000
ENDCHAR
STARTCHAR char0xAE32
ENCODING 44594
SWIDTH 1333 0
DWIDTH 16 0
BBX 16 16 0 0
BITMAP
0000
7F0E
070E
070E
070E
070E
070E
3E0E
0000
3FFE
038E
038E
038E
030C
0000
0000
ENDCHAR
STARTCHAR char0xAE33
ENCODING 44595
SWIDTH 1333 0
DWIDTH 16 0
BBX 16 16 0 0
BITMAP
0000
7F0E
070E
070E
070E
070E
070E
3E0E
0000
3F9C
039C
039C
03BE
0377
0000
0000
ENDCHAR
STARTCHAR char0xAE34
ENCODING 44596
SWIDTH 1333 0
DWIDTH 16 0
BBX 16 16 0 0
BITMAP
0000
7F0E
070E
070E
070E
070E
070E
3E0E
0000
3800
3800
3800
3800
1FFE
0000
0000
ENDCHAR
STARTCHAR char0xAE35
ENCODING 44597
SWIDTH 1333 0
DWIDTH 16 0
BBX 16 16 0 0
BITMAP
0000
7F0E
070E
070E
070E
070E
070E
3E0E
0000
38FE
3838
3838
387C
1FEE
0000
0000
ENDCHAR
STARTCHAR char0xAE36
ENCODING 44598
SWIDTH 1333 0
DWIDTH 16 0
BBX 16 16 0 0
BITMAP
0000
7F0E
070E
070E
070E
070E
070E
3E0E
0000
3878
39FE
38FC
39CE
1EFC
0000
0000
ENDCHAR
STARTCHAR char0xAE37
ENCODING 44599
SWIDTH 1333 0
DWIDTH 16 0
BBX 16 16 0 0
BITMAP
0000
7F0E
070E
070E
070E
070E
070E
3E0E
0000
3FFE
3800
3800
3800
1FFE
0000
0000
ENDCHAR
STARTCHAR char0xAE38
ENCODING 44600
SWIDTH 1333 0
DWIDTH 16 0
BBX 16 16 0 0
BITMAP
0000
7F0E
070E
070E
070E
070E
070E
3E0E
0000
3FFE
000E
3FFE
3800
1FFE
0000
0000
ENDCHAR
STARTCHAR char0xAE39
ENCODING 44601
SWIDTH 1333 0
DWIDTH 16 0
BBX 16 16 0 0
BITMAP
0000
7F0E
070E
070E
070E
070E
070E
3E0E
0000
3F7E
070E
3F0E
380E
1F0C
0000
0000
ENDCHAR
STARTCHAR char0xAE3A
ENCODING 44602
SWIDTH 1333 0
DWIDTH 16 0
BBX 16 16 0 0
BITMAP
0000
7F0E
070E
070E
070E
070E
070E
3E0E
0000
3EFE
0EEE
3EEE
38EE
1E7C
0000
0000
ENDCHAR
STARTCHAR char0xAE3B
ENCODING 44603
SWIDTH 1333 0
DWIDTH 16 0
BBX 16 16 0 0
BITMAP
0000
7F0E
070E
070E
070E
070E
070E
3E0E
0000
3EEE
0EEE
3EFE
38EE
1E7C
0000
0000
ENDCHAR
STARTCHAR char0xAE3C
ENCODING 44604
SWIDTH 1333 0
DWIDTH 16 0
BBX 16 16 0 0
BITMAP
0000
7F0E
070E
070E
070E
070E
070E
3E0E
0000
3F9C
039C
3F9C
383E
1FF7
0000
0000
ENDCHAR
STARTCHAR char0xAE3D
ENCODING 44605
SWIDTH 1333 0
DWIDTH 16 0
BBX 16 16 0 0
BITMAP
0000
7F0E
070E
070E
070E
070E
070E
3E0E
0000
3F7E
0770
3F7E
3870
1F7E
0000
0000
ENDCHAR
STARTCHAR char0xAE3E
ENCODING 44606
SWIDTH 1333 0
DWIDTH 16 0
BBX 16 16 0 0
BITMAP
0000
7F0E
070E
070E
070E
070E
070E
3E0E
0000
3EFE
0E6C
3E6C
386C
1EFE
0000
0000
ENDCHAR
STARTCHAR char0xAE3F
ENCODING 44607
SWIDTH 1333 0
DWIDTH 16 0
BBX 16 16 0 0
BITMAP
0000
7F0E
070E
070E
070E
070E
070E
3E0E
0000
3F38
07FE
3F7C
38EE
1F7C
0000
0000
ENDCHAR
STARTCHAR char0xAE40
ENCODING 44608
SWIDTH 1333 0
DWIDTH 16 0
BBX 16 16 0 0
BITMAP
0000
7F0E
070E
070E
070E
070E
070E
3E0E
0000
3FFE
380E
380E
380E
1FFC
0000
0000
ENDCHAR
STARTCHAR char0xAE41
ENCODING 44609
SWIDTH 1333 0
DWIDTH 16 0
BBX 16 16 0 0
BITMAP
0000
7F0E
070E
070E
070E
070E
070E
3E0E
0000
380E
380E
3FFE
380E
1FFC
0000
0000
ENDCHAR
STARTCHAR char0xAE42
ENCODING 44610
SWIDTH 1333 0
DWIDTH 16 0
BBX 16 16 0 0
BITMAP
0000
7F0E
070E
070E
070E
070E
070E
3E0E
0000
3B9C
3B9C
3F9C
3BBE
1F77
0000
0000
ENDCHAR
STARTCHAR char0xAE43
ENCODING 44611
SWIDTH 1333 0
DWIDTH 16 0
BBX 16 16 0 0
BITMAP
0000
7F0E
070E
070E
070E
070E
070E
3E0E
0000
01C0
01C0
03E0
0F78
380E
0000
0000
ENDCHAR
STARTCHAR char0xAE44
ENCODING 44612
SWIDTH 1333 0
DWIDTH 16 0
BBX 16 16 0 0
BITMAP
0000
7F0E
070E
070E
070E
070E
070E
3E0E
0000
0E1C
0E1C
0E1C
1F3E
3BF7
0000
0000
ENDCHAR
STARTCHAR char0xAE45
ENCODING 44613
SWIDTH 1333 0
DWIDTH 16 0
BBX 16 16 0 0
BITMAP
0000
7F0E
070E
070E
070E
070E
070E
3E0E
0000
1FFC
380E
380E
380E
1FFC
0000
0000
ENDCHAR
STARTCHAR char0xAE46
ENCODING 44614
SWIDTH 1333 0
DWIDTH 16 0
BBX 16 16 0 0
BITMAP
0000
7F0E
070E
070E
070E
070E
070E
3E0E
0000
3FFE
01C0
03E0
0770
3E3E
0000
0000
ENDCHAR
STARTCHAR char0xAE47
ENCODING 44615
SWIDTH 1333 0
DWIDTH 16 0
BBX 16 16 0 0
BITMAP
0000
7F0E
070E
070E
070E
070E
070E
3E0E
0000
03E0
3FFE
03E0
0770
3E3E
0000
0000
ENDCHAR
STARTCHAR char0xAE48
ENCODING 44616
SWIDTH 1333 0
DWIDTH 16 0
BBX 16 16 0 0
BITMAP
0000
7F0E
070E
070E
070E
070E
070E
3E0E
0000
3FFE
000E
3FFE
000E
000C
0000
0000
ENDCHAR
STARTCHAR char0xAE49
ENCODING 44617
SWIDTH 1333 0
DWIDTH 16 0
BBX 16 16 0 0
BITMAP
0000
7F0E
070E
070E
070E
070E
070E
3E0E
0000
3FFE
3800
3FFC
3800
1FFE
0000
0000
ENDCHAR
STARTCHAR char0xAE4A
ENCODING 44618
SWIDTH 1333 0
DWIDTH 16 0
BBX 16 16 0 0
BITMAP
0000
7F0E
070E
070E
070E
070E
070E
3E0E
0000
3FFE
0E38
0E38
0E38
3FFE
0000
0000
ENDCHAR
STARTCHAR char0xAE4B
ENCODING 44619
SWIDTH 1333 0
DWIDTH 16 0
BBX 16 16 0 0
BITMAP
0000
7F0E
070E
070E
070E
070E
070E
3E0E
0000
01C0
3FFE
1FFC
380E
1FFC
0000
0000
ENDCHAR
STARTCHAR char0xAE4C
ENCODING 44620
SWIDTH 1333 0
DWIDTH 16 0
BBX 16 16 0 0
BITMAP
0000
001C
7F9C
1B9C
1B9C
1B9C
1B9C
1B9F
1B9C
1B9C
1B9C
339C
671C
001C
0000
0000
ENDCHAR
STARTCHAR char0xAE4D
ENCODING 44621
SWIDTH 1333 0
DWIDTH 16 0
BBX 16 16 0 0
BITMAP
0000
7F9C
1B9C
1B9C
1B9F
1B9C
1B9C
371C
0000
3FFC
001C
001C
001C
0018
0000
0000
ENDCHAR
STARTCHAR char0xAE4E
ENCODING 44622
SWIDTH 1333 0
DWIDTH 16 0
BBX 16 16 0 0
BITMAP
0000
7F9C
1B9C
1B9C
1B9F
1B9C
1B9C
371C
0000
3FFC
039C
039C
039C
0318
0000
0000
ENDCHAR
STARTCHAR char0xAE4F
ENCODING 44623
SWIDTH 1333 0
DWIDTH 16 0
BBX 16 16 0 0
BITMAP
0000
7F9C
1B9C
1B9C
1B9F
1B9C
1B9C
371C
0000
3F9C
039C
039C
03BE
0377
0000
0000
ENDCHAR
STARTCHAR char0xAE50
ENCODING 44624
SWIDTH 1333 0
DWIDTH 16 0
BBX 16 16 0 0
BITMAP
0000
7F9C
1B9C
1B9C
1B9F
1B9C
1B9C
371C
0000
3800
3800
3800
3800
1FFC
0000
0000
ENDCHAR
STARTCHAR char0xAE51
ENCODING 44625
SWIDTH 1333 0
DWIDTH 16 0
BBX 16 16 0 0
BITMAP
0000
7F9C
1B9C
1B9C
1B9F
1B9C
1B9C
371C
0000
39FC
3870
3870
38F8
1FDC
0000
0000
ENDCHAR
STARTCHAR char0xAE52
ENCODING 44626
SWIDTH 1333 0
DWIDTH 16 0
BBX 16 16 0 0
BITMAP
0000
7F9C
1B9C
1B9C
1B9F
1B9C
1B9C
371C
0000
3870
39FC
38F8
39DC
1EF8
0000
0000
ENDCHAR
STARTCHAR char0xAE53
ENCODING 44627
SWIDTH 1333 0
DWIDTH 16 0
BBX 16 16 0 0
BITMAP
0000
7F9C
1B9C
1B9C
1B9F
1B9C
1B9C
371C
0000
3FFC
3800
3800
3800
1FFC
0000
0000
ENDCHAR
STARTCHAR char0xAE54
ENCODING 44628
SWIDTH 1333 0
DWIDTH 16 0
BBX 16 16 0 0
BITMAP
0000
7F9C
1B9C
1B9C
1B9F
1B9C
1B9C
371C
0000
3FFC
001C
3FFC
3800
1FFC
0000
0000
ENDCHAR
STARTCHAR char0xAE55
ENCODING 44629
SWIDTH 1333 0
DWIDTH 16 0
BBX 16 16 0 0
BITMAP
0000
7F9C
1B9C
1B9C
1B9F
1B9C
1B9C
371C
0000
3FFC
071C
3F1C
381C
1F18
0000
0000
ENDCHAR
STARTCHAR char0xAE56
ENCODING 44630
SWIDTH 1333 0
DWIDTH 16 0
BBX 16 16 0 0
BITMAP
0000
7F9C
1B9C
1B9C
1B9F
1B9C
1B9C
371C
0000
3EFC
0EDC
3EDC
38DC
1E78
0000
0000
ENDCHAR
STARTCHAR char0xAE57
ENCODING 44631
SWIDTH 1333 0
DWIDTH 16 0
BBX 16 16 0 0
BITMAP
0000
7F9C
1B9C
1B9C
1B9F
1B9C
1B9C
371C
0000
3EDC
0EDC
3EFC
38DC
1E78
0000
0000
ENDCHAR
STARTCHAR char0xAE58
ENCODING 44632
SWIDTH 1333 0
DWIDTH 16 0
BBX 16 16 0 0
BITMAP
0000
7F9C
1B9C
1B9C
1B9F
1B9C
1B9C
371C
0000
3F38
0738
3F38
387C
1FEE
0000
0000
ENDCHAR
STARTCHAR char0xAE59
ENCODING 44633
SWIDTH 1333 0
DWIDTH 16 0
BBX 16 16 0 0
BITMAP
0000
7F9C
1B9C
1B9C
1B9F
1B9C
1B9C
371C
0000
3EFC
0EE0
3EFC
38E0
1EFC
0000
0000
ENDCHAR
STARTCHAR char0xAE5A
ENCODING 44634
SWIDTH 1333 0
DWIDTH 16 0
BBX 16 16 0 0
BITMAP
0000
7F9C
1B9C
1B9C
1B9F
1B9C
1B9C
371C
0000
3FFC
0ED8
3ED8
38D8
1FFC
0000
0000
ENDCHAR
STARTCHAR char0xAE5B
ENCODING 44635
SWIDTH 1333 0
DWIDTH 16 0
BBX 16 16 0 0
BITMAP
0000
7F9C
1B9C
1B9C
1B9F
1B9C
1B9C
371C
0000
3E70
0FFC
3EF8
39DC
1EF8
0000
0000
ENDCHAR
STARTCHAR char0xAE5C
ENCODING 44636
SWIDTH 1333 0
DWIDTH 16 0
BBX 16 16 0 0
BITMAP
0000
7F9C
1B9C
1B9C
1B9F
1B9C
1B9C
371C
0000
3FFC
381C
381C
381C
1FF8
0000
0000
ENDCHAR
STARTCHAR char0xAE5D
ENCODING 44637
SWIDTH 1333 0
DWIDTH 16 0
BBX 16 16 0 0
BITMAP
0000
7F9C
1B9C
1B9C
1B9F
1B9C
1B9C
371C
0000
381C
381C
3FFC
381C
1FF8
0000
0000
ENDCHAR
STARTCHAR char0xAE5E
ENCODING 44638
SWIDTH 1333 0
DWIDTH 16 0
BBX 16 16 0 0
BITMAP
0000
7F9C
1B9C
1B9C
1B9F
1B9C
1B9C
371C
0000
3738
3738
3F38
377C
1EEE
0000
0000
ENDCHAR
STARTCHAR char0xAE5F
ENCODING 44639
SWIDTH 1333 0
DWIDTH 16 0
BBX 16 16 0 0
BITMAP
0000
7F9C
1B9C
1B9C
1B9F
1B9C
1B9C
371C
0000
0380
0380
07C0
0EE0
7C7C
0000
0000
ENDCHAR
STARTCHAR char0xAE60
ENCODING 44640
SWIDTH 1333 0
DWIDTH 16 0
BBX 16 16 0 0
BITMAP
0000
7F9C
1B9C
1B9C
1B9F
1B9C
1B9C
371C
0000
0E38
0E38
0E38
1F7C
3BEE
0000
0000
ENDCHAR
STARTCHAR char0xAE61
ENCODING 44641
SWIDTH 1333 0
DWIDTH 16 0
BBX 16 16 0 0
BITMAP
0000
7F9C
1B9C
1B9C
1B9F
1B9C
1B9C
371C
0000
1FF8
381C
381C
381C
1FF8
0000
0000
ENDCHAR
STARTCHAR char0xAE62
ENCODING 44642
SWIDTH 1333 0
DWIDTH 16 0
BBX 16 16 0 0
BITMAP
0000
7F9C
1B9C
1B9C
1B9F
1B9C
1B9C
371C
0000
7FFC
0380
07C0
0EE0
7C7C
0000
0000
ENDCHAR
STARTCHAR char0xAE63
ENCODING 44643
SWIDTH 1333 0
DWIDTH 16 0
BBX 16 16 0 0
BITMAP
0000
7F9C
1B9C
1B9C
1B9F
1B9C
1B9C
371C
0380
7FFC
0380
07C0
0EE0
7C7C
0000
0000
ENDCHAR
STARTCHAR char0xAE64
ENCODING 44644
SWIDTH 1333 0
DWIDTH 16 0
BBX 16 16 0 0
BITMAP
0000
7F9C
1B9C
1B9C
1B9F
1B9C
1B9C
371C
0000
3FFC
001C
3FFC
001C
0018
0000
0000
ENDCHAR
STARTCHAR char0xAE65
ENCODING 44645
SWIDTH 1333 0
DWIDTH 16 0
BBX 16 16 0 0
BITMAP
0000
7F9C
1B9C
1B9C
1B9F
1B9C
1B9C
371C
0000
3FFC
3800
3FFC
3800
1FFC
0000
0000
ENDCHAR
STARTCHAR char0xAE66
ENCODING 44646
SWIDTH 1333 0
DWIDTH 16 0
BBX 16 16 0 0
BITMAP
0000
7F9C
1B9C
1B9C
1B9F
1B9C
1B9C
371C
0000
3FFC
0E70
0E70
0E70
3FFC
0000
0000
ENDCHAR
STARTCHAR char0xAE67
ENCODING 44647
SWIDTH 1333 0
DWIDTH 16 0
BBX 16 16 0 0
BITMAP
0000
7F9C
1B9C
1B9C
1B9F
1B9C
1B9C
371C
03C0
3FFC
1FF8
381C
381C
1FF8
0000
0000
ENDCHAR
STARTCHAR char0xAE68
ENCODING 44648
SWIDTH 1333 0
DWIDTH 16 0
BBX 16 16 0 0
BITMAP
0000
0037
7FB7
1BB7
1BB7
1BB7
1BB7
1BBF
1BB7
1BB7
1BB7
33B7
6737
0037
0000
0000
ENDCHAR
STARTCHAR char0xAE69
ENCODING 44649
SWIDTH 1333 0
DWIDTH 16 0
BBX 16 16 0 0
BITMAP
0000
7FB7
1BB7
1BB7
1BBF
1BB7
1BB7
3737
0000
3FFF
0007
0007
0007
0006
0000
0000
ENDCHAR
STARTCHAR char0xAE6A
ENCODING 44650
SWIDTH 1333 0
DWIDTH 16 0
BBX 16 16 0 0
BITMAP
0000
7FB7
1BB7
1BB7
1BBF
1BB7
1BB7
3737
0000
3FFF
0387
0387
0387
0306
0000
0000
ENDCHAR
STARTCHAR char0xAE6B
ENCODING 44651
SWIDTH 1333 0
DWIDTH 16 0
BBX 16 16 0 0
BITMAP
0000
7FB7
1BB7
1BB7
1BBF
1BB7
1BB7
3737
0000
3F9C
039C
039C
03BE
0367
0000
0000
ENDCHAR
STARTCHAR char0xAE6C
ENCODING 44652
SWIDTH 1333 0
DWIDTH 16 0
BBX 16 16 0 0
BITMAP
0000
7FB7
1BB7
1BB7
1BBF
1BB7
1BB7
3737
0000
3800
3800
3800
3800
1FFF
0000
0000
ENDCHAR
STARTCHAR char0xAE6D
ENCODING 44653
SWIDTH 1333 0
DWIDTH 16 0
BBX 16 16 0 0
BITMAP
0000
7FB7
1BB7
1BB7
1BBF
1BB7
1BB7
3737
0000
387F
381C
381C
383E
1FF7
0000
0000
ENDCHAR
STARTCHAR char0xAE6E
ENCODING 44654
SWIDTH 1333 0
DWIDTH 16 0
BBX 16 16 0 0
BITMAP
0000
7FB7
1BB7
1BB7
1BBF
1BB7
1BB7
3737
0000
383C
38FF
387E
38E7
1F7E
0000
0000
ENDCHAR
STARTCHAR char0xAE6F
ENCODING 44655
SWIDTH 1333 0
DWIDTH 16 0
BBX 16 16 0 0
BITMAP
0000
7FB7
1BB7
1BB7
1BBF
1BB7
1BB7
3737
0000
3FFF
3800
3800
3800
1FFF
0000
0000
ENDCHAR
STARTCHAR char0xAE70
ENCODING 44656
SWIDTH 1333 0
DWIDTH 16 0
BBX 16 16 0 0
BITMAP
0000
7FB7
1BB7
1BB7
1BBF
1BB7
1BB7
3737
0000
3FFF
0007
3FFF
3800
1FFF
0000
0000
ENDCHAR
STARTCHAR char0xAE71
ENCODING 44657
SWIDTH 1333 0
DWIDTH 16 0
BBX 16 16 0 0
BITMAP
0000
7FB7
1BB7
1BB7
1BBF
1BB7
1BB7
3737
0000
3F7F
0707
3F07
3807
1F06
0000
0000
ENDCHAR
STARTCHAR char0xAE72
ENCODING 44658
SWIDTH 1333 0
DWIDTH 16 0
BBX 16 16 0 0
BITMAP
0000
7FB7
1BB7
1BB7
1BBF
1BB7
1BB7
3737
0000
3F7F
0777
3F77
3877
1F3E
0000
0000
ENDCHAR
STARTCHAR char0xAE73
ENCODING 44659
SWIDTH 1333 0
DWIDTH 16 0
BBX 16 16 0 0
BITMAP
0000
7FB7
1BB7
1BB7
1BBF
1BB7
1BB7
3737
0000
3F77
0777
3F7F
3877
1F3E
0000
0000
ENDCHAR
STARTCHAR char0xAE74
ENCODING 44660
SWIDTH 1333 0
DWIDTH 16 0
BBX 16 16 0 0
BITMAP
0000
7FB7
1BB7
1BB7
1BBF
1BB7
1BB7
3737
0000
3F9C
039C
3F9C
383E
1FF7
0000
0000
ENDCHAR
STARTCHAR char0xAE75
ENCODING 44661
SWIDTH 1333 0
DWIDTH 16 0
BBX 16 16 0 0
BITMAP
0000
7FB7
1BB7
1BB7
1BBF
1BB7
1BB7
3737
0000
3F7F
0770
3F7F
3870
1F7F
0000
0000
ENDCHAR
STARTCHAR char0xAE76
ENCODING 44662
SWIDTH 1333 0
DWIDTH 16 0
BBX 16 16 0 0
BITMAP
0000
7FB7
1BB7
1BB7
1BBF
1BB7
1BB7
3737
0000
3F7F
0736
3F36
3836
1F7F
0000
0000
ENDCHAR
STARTCHAR char0xAE77
ENCODING 44663
SWIDTH 1333 0
DWIDTH 16 0
BBX 16 16 0 0
BITMAP
0000
7FB7
1BB7
1BB7
1BBF
1BB7
1BB7
3737
0000
3F3C
07FF
3F7E
38E7
1F7E
0000
0000
ENDCHAR
STARTCHAR char0xAE78
ENCODING 44664
SWIDTH 1333 0
DWIDTH 16 0
BBX 16 16 0 0
BITMAP
0000
7FB7
1BB7
1BB7
1BBF
1BB7
1BB7
3737
0000
3FFF
3807
3807
3807
1FFE
0000
0000
ENDCHAR
STARTCHAR char0xAE79
ENCODING 44665
SWIDTH 1333 0
DWIDTH 16 0
BBX 16 16 0 0
BITMAP
0000
7FB7
1BB7
1BB7
1BBF
1BB7
1BB7
3737
0000
3807
3807
3FFF
3807
1FFE
0000
0000
ENDCHAR
STARTCHAR char0xAE7A
ENCODING 44666
SWIDTH 1333 0
DWIDTH 16 0
BBX 16 16 0 0
BITMAP
0000
7FB7
1BB7
1BB7
1BBF
1BB7
1BB7
3737
0000
3B9C
3B9C
3F9C
3BBE
1F77
0000
0000
ENDCHAR
STARTCHAR char0xAE7B
ENCODING 44667
SWIDTH 1333 0
DWIDTH 16 0
BBX 16 16 0 0
BITMAP
0000
7FB7
1BB7
1BB7
1BBF
1BB7
1BB7
3737
0000
01E0
01E0
03F0
0738
3E1F
0000
0000
ENDCHAR
STARTCHAR char0xAE7C
ENCODING 44668
SWIDTH 1333 0
DWIDTH 16 0
BBX 16 16 0 0
BITMAP
0000
7FB7
1BB7
1BB7
1BBF
1BB7
1BB7
3737
0000
0E1C
0E1C
0E1C
1F3E
3BF7
0000
0000
ENDCHAR
STARTCHAR char0xAE7D
ENCODING 44669
SWIDTH 1333 0
DWIDTH 16 0
BBX 16 16 0 0
BITMAP
0000
7FB7
1BB7
1BB7
1BBF
1BB7
1BB7
3737
0000
1FFE
3807
3807
3807
1FFE
0000
0000
ENDCHAR
STARTCHAR char0xAE7E
ENCODING 44670
SWIDTH 1333 0
DWIDTH 16 0
BBX 16 16 0 0
BITMAP
0000
7FB7
1BB7
1BB7
1BBF
1BB7
1BB7
3737
0000
3FFF
01E0
03F0
0738
3E1F
0000
0000
ENDCHAR
STARTCHAR char0xAE7F
ENCODING 44671
SWIDTH 1333 0
DWIDTH 16 0
BBX 16 16 0 0
BITMAP
0000
7FB7
1BB7
1BB7
1BBF
1BB7
1BB7
3737
0000
01E0
3FFF
03F0
0738
3E1F
0000
0000
ENDCHAR
STARTCHAR char0xAE80
ENCODING 44672
SWIDTH 1333 0
DWIDTH 16 0
BBX 16 16 0 0
BITMAP
0000
7FB7
1BB7
1BB7
1BBF
1BB7
1BB7
3737
0000
3FFF
0007
3FFF
0007
0006
0000
0000
ENDCHAR
STARTCHAR char0xAE81
ENCODING 44673
SWIDTH 1333 0
DWIDTH 16 0
BBX 16 16 0 0
BITMAP
0000
7FB7
1BB7
1BB7
1BBF
1BB7
1BB7
3737
0000
3FFF
3800
3FFF
3800
1FFF
0000
0000
ENDCHAR
STARTCHAR char0xAE82
ENCODING 44674
SWIDTH 1333 0
DWIDTH 16 0
BBX 16 16 0 0
BITMAP
0000
7FB7
1BB7
1BB7
1BBF
1BB7
1BB7
3737
0000
3FFF
0E1C
0E1C
0E1C
3FFF
0000
0000
ENDCHAR
STARTCHAR char0xAE83
ENCODING 44675
SWIDTH 1333 0
DWIDTH 16 0
BBX 16 16 0 0
BITMAP
0000
7FB7
1BB7
1BB7
1BBF
1BB7
1BB7
3737
0000
01E0
3FFF
1FFE
3807
1FFE
0000
0000
ENDCHAR
STARTCHAR char0xAE84
ENCODING 44676
SWIDTH 1333 0
DWIDTH 16 0
BBX 16 16 0 0
BITMAP
0000
001C
7F9C
1B9C
1B9C
1B9F
1B9C
1B9C
1B9C
1B9F
1B9C
339C
671C
001C
0000
0000
ENDCHAR
STARTCHAR char0xAE85
ENCODING 44677
SWIDTH 1333 0
DWIDTH 16 0
BBX 16 16 0 0
BITMAP
0000
7F9C
1B9C
1B9F
1B9C
1B9F
1B9C
371C
0000
3FFC
001C
001C
001C
0018
0000
0000
ENDCHAR
STARTCHAR char0xAE86
ENCODING 44678
SWIDTH 1333 0
DWIDTH 16 0
BBX 16 16 0 0
BITMAP
0000
7F9C
1B9C
1B9F
1B9C
1B9F
1B9C
371C
0000
3FFC
039C
039C
039C
0318
0000
0000
ENDCHAR
STARTCHAR char0xAE87
ENCODING 44679
SWIDTH 1333 0
DWIDTH 16 0
BBX 16 16 0 0
BITMAP
0000
7F9C
1B9C
1B9F
1B9C
1B9F
1B9C
371C
0000
3F9C
039C
039C
03BE
0377
0000
0000
ENDCHAR
STARTCHAR char0xAE88
ENCODING 44680
SWIDTH 1333 0
DWIDTH 16 0
BBX 16 16 0 0
BITMAP
0000
7F9C
1B9C
1B9F
1B9C
1B9F
1B9C
371C
0000
3800
3800
3800
3800
1FFC
0000
0000
ENDCHAR
STARTCHAR char0xAE89
ENCODING 44681
SWIDTH 1333 0
DWIDTH 16 0
BBX 16 16 0 0
BITMAP
0000
7F9C
1B9C
1B9F
1B9C
1B9F
1B9C
371C
0000
39FC
3870
3870
38F8
1FDC
0000
0000
ENDCHAR
STARTCHAR char0xAE8A
ENCODING 44682
SWIDTH 1333 0
DWIDTH 16 0
BBX 16 16 0 0
BITMAP
0000
7F9C
1B9C
1B9F
1B9C
1B9F
1B9C
371C
0000
3870
39FC
38F8
39DC
1EF8
0000
0000
ENDCHAR
STARTCHAR char0xAE8B
ENCODING 44683
SWIDTH 1333 0
DWIDTH 16 0
BBX 16 16 0 0
BITMAP
0000
7F9C
1B9C
1B9F
1B9C
1B9F
1B9C
371C
0000
3FFC
3800
3800
3800
1FFC
0000
0000
ENDCHAR
STARTCHAR char0xAE8C
ENCODING 44684
SWIDTH 1333 0
DWIDTH 16 0
BBX 16 16 0 0
BITMAP
0000
7F9C
1B9C
1B9F
1B9C
1B9F
1B9C
371C
0000
3FFC
001C
3FFC
3800
1FFC
0000
0000
ENDCHAR
STARTCHAR char0xAE8D
ENCODING 44685
SWIDTH 1333 0
DWIDTH 16 0
BBX 16 16 0 0
BITMAP
0000
7F9C
1B9C
1B9F
1B9C
1B9F
1B9C
371C
0000
3FFC
071C
3F1C
381C
1F18
0000
0000
ENDCHAR
STARTCHAR char0xAE8E
ENCODING 44686
SWIDTH 1333 0
DWIDTH 16 0
BBX 16 16 0 0
BITMAP
0000
7F9C
1B9C
1B9F
1B9C
1B9F
1B9C
371C
0000
3EFC
0EDC
3EDC
38DC
1E78
0000
0000
ENDCHAR
STARTCHAR char0xAE8F
ENCODING 44687
SWIDTH 1333 0
DWIDTH 16 0
BBX 16 16 0 0
BITMAP
0000
7F9C
1B9C
1B9F
1B9C
1B9F
1B9C
371C
0000
3EDC
0EDC
3EFC
38DC
1E78
0000
0000
ENDCHAR
STARTCHAR char0xAE90
ENCODING 44688
SWIDTH 1333 0
DWIDTH 16 0
BBX 16 16 0 0
BITMAP
0000
7F9C
1B9C
1B9F
1B9C
1B9F
1B9C
371C
0000
3F38
0738
3F38
387C
1FEE
0000
0000
ENDCHAR
STARTCHAR char0xAE91
ENCODING 44689
SWIDTH 1333 0
DWIDTH 16 0
BBX 16 16 0 0
BITMAP
0000
7F9C
1B9C
1B9F
1B9C
1B9F
1B9C
371C
0000
3EFC
0EE0
3EFC
38E0
1EFC
0000
0000
ENDCHAR
STARTCHAR char0xAE92
ENCODING 44690
SWIDTH 1333 0
DWIDTH 16 0
BBX 16 16 0 0
BITMAP
0000
7F9C
1B9C
1B9F
1B9C
1B9F
1B9C
371C
0000
3FFC
0ED8
3ED8
38D8
1FFC
0000
0000
ENDCHAR
STARTCHAR char0xAE93
ENCODING 44691
SWIDTH 1333 0
DWIDTH 16 0
BBX 16 16 0 0
BITMAP
0000
7F9C
1B9C
1B9F
1B9C
1B9F
1B9C
371C
0000
3E70
0FFC
3EF8
39DC
1EF8
0000
0000
ENDCHAR
STARTCHAR char0xAE94
ENCODING 44692
SWIDTH 1333 0
DWIDTH 16 0
BBX 16 16 0 0
BITMAP
0000
7F9C
1B9C
1B9F
1B9C
1B9F
1B9C
371C
0000
3FFC
381C
381C
381C
1FF8
0000
0000
ENDCHAR
STARTCHAR char0xAE95
ENCODING 44693
SWIDTH 1333 0
DWIDTH 16 0
BBX 16 16 0 0
BITMAP
0000
7F9C
1B9C
1B9F
1B9C
1B9F
1B9C
371C
0000
381C
381C
3FFC
381C
1FF8
0000
0000
ENDCHAR
STARTCHAR char0xAE96
ENCODING 44694
SWIDTH 1333 0
DWIDTH 16 0
BBX 16 16 0 0
BITMAP
0000
7F9C
1B9C
1B9F
1B9C
1B9F
1B9C
371C
0000
3738
3738
3F38
377C
1EEE
0000
0000
ENDCHAR
STARTCHAR char0xAE97
ENCODING 44695
SWIDTH 1333 0
DWIDTH 16 0
BBX 16 16 0 0
BITMAP
0000
7F9C
1B9C
1B9F
1B9C
1B9F
1B9C
371C
0000
0380
0380
07C0
0EE0
7C7C
0000
0000
ENDCHAR
STARTCHAR char0xAE98
ENCODING 44696
SWIDTH 1333 0
DWIDTH 16 0
BBX 16 16 0 0
BITMAP
0000
7F9C
1B9C
1B9F
1B9C
1B9F
1B9C
371C
0000
0E38
0E38
0E38
1F7C
3BEE
0000
0000
ENDCHAR
STARTCHAR char0xAE99
ENCODING 44697
SWIDTH 1333 0
DWIDTH 16 0
BBX 16 16 0 0
BITMAP
0000
7F9C
1B9C
1B9F
1B9C
1B9F
1B9C
371C
0000
1FF8
381C
381C
381C
1FF8
0000
0000
ENDCHAR
STARTCHAR char0xAE9A
ENCODING 44698
SWIDTH 1333 0
DWIDTH 16 0
BBX 16 16 0 0
BITMAP
0000
7F9C
1B9C
1B9F
1B9C
1B9F
1B9C
371C
0000
7FFC
0380
07C0
0EE0
7C7C
0000
0000
ENDCHAR
STARTCHAR char0xAE9B
ENCODING 44699
SWIDTH 1333 0
DWIDTH 16 0
BBX 16 16 0 0
BITMAP
0000
7F9C
1B9C
1B9F
1B9C
1B9F
1B9C
371C
0380
7FFC
0380
07C0
0EE0
7C7C
0000
0000
ENDCHAR
STARTCHAR char0xAE9C
ENCODING 44700
SWIDTH 1333 0
DWIDTH 16 0
BBX 16 16 0 0
BITMAP
0000
7F9C
1B9C
1B9F
1B9C
1B9F
1B9C
371C
0000
3FFC
001C
3FFC
001C
0018
0000
0000
ENDCHAR
STARTCHAR char0xAE9D
ENCODING 44701
SWIDTH 1333 0
DWIDTH 16 0
BBX 16 16 0 0
BITMAP
0000
7F9C
1B9C
1B9F
1B9C
1B9F
1B9C
371C
0000
3FFC
3800
3FFC
3800
1FFC
0000
0000
ENDCHAR
STARTCHAR char0xAE9E
ENCODING 44702
SWIDTH 1333 0
DWIDTH 16 0
BBX 16 16 0 0
BITMAP
0000
7F9C
1B9C
1B9F
1B9C
1B9F
1B9C
371C
0000
3FFC
0E70
0E70
0E70
3FFC
0000
0000
ENDCHAR
STARTCHAR char0xAE9F
ENCODING 44703
SWIDTH 1333 0
DWIDTH 16 0
BBX 16 16 0 0
BITMAP
0000
7F9C
1B9C
1B9F
1B9C
1B9F
1B9C
371C
03C0
3FFC
1FF8
381C
381C
1FF8
0000
0000
ENDCHAR
STARTCHAR char0xAEA0
ENCODING 44704
SWIDTH 1333 0
DWIDTH 16 0
BBX 16 16 0 0
BITMAP
0000
0037
7FB7
1BB7
1BB7
1BBF
1BB7
1BB7
1BB7
1BBF
1BB7
33B7
6737
0037
0000
0000
ENDCHAR
STARTCHAR char0xAEA1
ENCODING 44705
SWIDTH 1333 0
DWIDTH 16 0
BBX 16 16 0 0
BITMAP
0000
7FB7
1BB7
1BBF
1BB7
1BBF
1BB7
3737
0000
3FFF
0007
0007
0007
0006
0000
0000
ENDCHAR
STARTCHAR char0xAEA2
ENCODING 44706
SWIDTH 1333 0
DWIDTH 16 0
BBX 16 16 0 0
BITMAP
0000
7FB7
1BB7
1BBF
1BB7
1BBF
1BB7
3737
0000
3FFF
0387
0387
0387
0306
0000
0000
ENDCHAR
STARTCHAR char0xAEA3
ENCODING 44707
SWIDTH 1333 0
DWIDTH 16 0
BBX 16 16 0 0
BITMAP
0000
7FB7
1BB7
1BBF
1BB7
1BBF
1BB7
3737
0000
3F9C
039C
039C
03BE
0367
0000
0000
ENDCHAR
STARTCHAR char0xAEA4
ENCODING 44708
SWIDTH 1333 0
DWIDTH 16 0
BBX 16 16 0 0
BITMAP
0000
7FB7
1BB7
1BBF
1BB7
1BBF
1BB7
3737
0000
3800
3800
3800
3800
1FFF
0000
0000
ENDCHAR
STARTCHAR char0xAEA5
ENCODING 44709
SWIDTH 1333 0
DWIDTH 16 0
BBX 16 16 0 0
BITMAP
0000
7FB7
1BB7
1BBF
1BB7
1BBF
1BB7
3737
0000
387F
381C
381C
383E
1FF7
0000
0000
ENDCHAR
STARTCHAR char0xAEA6
ENCODING 44710
SWIDTH 1333 0
DWIDTH 16 0
BBX 16 16 0 0
BITMAP
0000
7FB7
1BB7
1BBF
1BB7
1BBF
1BB7
3737
0000
383C
38FF
387E
38E7
1F7E
0000
0000
ENDCHAR
STARTCHAR char0xAEA7
ENCODING 44711
SWIDTH 1333 0
DWIDTH 16 0
BBX 16 16 0 0
BITMAP
0000
7FB7
1BB7
1BBF
1BB7
1BBF
1BB7
3737
0000
3FFF
3800
3800
3800
1FFF
0000
0000
ENDCHAR
STARTCHAR char0xAEA8
ENCODING 44712
SWIDTH 1333 0
DWIDTH 16 0
BBX 16 16 0 0
BITMAP
0000
7FB7
1BB7
1BBF
1BB7
1BBF
1BB7
3737
0000
3FFF
0007
3FFF
3800
1FFF
0000
0000
ENDCHAR
STARTCHAR char0xAEA9
ENCODING 44713
SWIDTH 1333 0
DWIDTH 16 0
BBX 16 16 0 0
BITMAP
0000
7FB7
1BB7
1BBF
1BB7
1BBF
1BB7
3737
0000
3F7F
0707
3F07
3807
1F06
0000
0000
ENDCHAR
STARTCHAR char0xAEAA
ENCODING 44714
SWIDTH 1333 0
DWIDTH 16 0
BBX 16 16 0 0
BITMAP
0000
7FB7
1BB7
1BBF
1BB7
1BBF
1BB7
3737
0000
3F7F
0777
3F77
3877
1F3E
0000
0000
ENDCHAR
STARTCHAR char0xAEAB
ENCODING 44715
SWIDTH 1333 0
DWIDTH 16 0
BBX 16 16 0 0
BITMAP
0000
7FB7
1BB7
1BBF
1BB7
1BBF
1BB7
3737
0000
3F77
0777
3F7F
3877
1F3E
0000
0000
ENDCHAR
STARTCHAR char0xAEAC
ENCODING 44716
SWIDTH 1333 0
DWIDTH 16 0
BBX 16 16 0 0
BITMAP
0000
7FB7
1BB7
1BBF
1BB7
1BBF
1BB7
3737
0000
3F9C
039C
3F9C
383E
1FF7
0000
0000
ENDCHAR
STARTCHAR char0xAEAD
ENCODING 44717
SWIDTH 1333 0
DWIDTH 16 0
BBX 16 16 0 0
BITMAP
0000
7FB7
1BB7
1BBF
1BB7
1BBF
1BB7
3737
0000
3F7F
0770
3F7F
3870
1F7F
0000
0000
ENDCHAR
STARTCHAR char0xAEAE
ENCODING 44718
SWIDTH 1333 0
DWIDTH 16 0
BBX 16 16 0 0
BITMAP
0000
7FB7
1BB7
1BBF
1BB7
1BBF
1BB7
3737
0000
3F7F
0736
3F36
3836
1F7F
0000
0000
ENDCHAR
STARTCHAR char0xAEAF
ENCODING 44719
SWIDTH 1333 0
DWIDTH 16 0
BBX 16 16 0 0
BITMAP
0000
7FB7
1BB7
1BBF
1BB7
1BBF
1BB7
3737
0000
3F3C
07FF
3F7E
38E7
1F7E
0000
0000
ENDCHAR
STARTCHAR char0xAEB0
ENCODING 44720
SWIDTH 1333 0
DWIDTH 16 0
BBX 16 16 0 0
BITMAP
0000
7FB7
1BB7
1BBF
1BB7
1BBF
1BB7
3737
0000
3FFF
3807
3807
3807
1FFE
0000
0000
ENDCHAR
STARTCHAR char0xAEB1
ENCODING 44721
SWIDTH 1333 0
DWIDTH 16 0
BBX 16 16 0 0
BITMAP
0000
7FB7
1BB7
1BBF
1BB7
1BBF
1BB7
3737
0000
3807
3807
3FFF
3807
1FFE
0000
0000
ENDCHAR
STARTCHAR char0xAEB2
ENCODING 44722
SWIDTH 1333 0
DWIDTH 16 0
BBX 16 16 0 0
BITMAP
0000
7FB7
1BB7
1BBF
1BB7
1BBF
1BB7
3737
0000
3B9C
3B9C
3F9C
3BBE
1F77
0000
0000
ENDCHAR
STARTCHAR char0xAEB3
ENCODING 44723
SWIDTH 1333 0
DWIDTH 16 0
BBX 16 16 0 0
BITMAP
0000
7FB7
1BB7
1BBF
1BB7
1BBF
1BB7
3737
0000
01E0
01E0
03F0
0738
3E1F
0000
0000
ENDCHAR
STARTCHAR char0xAEB4
ENCODING 44724
SWIDTH 1333 0
DWIDTH 16 0
BBX 16 16 0 0
BITMAP
0000
7FB7
1BB7
1BBF
1BB7
1BBF
1BB7
3737
0000
0E1C
0E1C
0E1C
1F3E
3BF7
0000
0000
ENDCHAR
STARTCHAR char0xAEB5
ENCODING 44725
SWIDTH 1333 0
DWIDTH 16 0
BBX 16 16 0 0
BITMAP
0000
7FB7
1BB7
1BBF
1BB7
1BBF
1BB7
3737
0000
1FFE
3807
3807
3807
1FFE
0000
0000
ENDCHAR
STARTCHAR char0xAEB6
ENCODING 44726
SWIDTH 1333 0
DWIDTH 16 0
BBX 16 16 0 0
BITMAP
0000
7FB7
1BB7
1BBF
1BB7
1BBF
1BB7
3737
0000
3FFF
01E0
03F0
0738
3E1F
0000
0000
ENDCHAR
STARTCHAR char0xAEB7
ENCODING 44727
SWIDTH 1333 0
DWIDTH 16 0
BBX 16 16 0 0
BITMAP
0000
7FB7
1BB7
1BBF
1BB7
1BBF
1BB7
3737
0000
01E0
3FFF
03F0
0738
3E1F
0000
0000
ENDCHAR
STARTCHAR char0xAEB8
ENCODING 44728
SWIDTH 1333 0
DWIDTH 16 0
BBX 16 16 0 0
BITMAP
0000
7FB7
1BB7
1BBF
1BB7
1BBF
1BB7
3737
0000
3FFF
0007
3FFF
0007
0006
0000
0000
ENDCHAR
STARTCHAR char0xAEB9
ENCODING 44729
SWIDTH 1333 0
DWIDTH 16 0
BBX 16 16 0 0
BITMAP
0000
7FB7
1BB7
1BBF
1BB7
1BBF
1BB7
3737
0000
3FFF
3800
3FFF
3800
1FFF
0000
0000
ENDCHAR
STARTCHAR char0xAEBA
ENCODING 44730
SWIDTH 1333 0
DWIDTH 16 0
BBX 16 16 0 0
BITMAP
0000
7FB7
1BB7
1BBF
1BB7
1BBF
1BB7
3737
0000
3FFF
0E1C
0E1C
0E1C
3FFF
0000
0000
ENDCHAR
STARTCHAR char0xAEBB
ENCODING 44731
SWIDTH 1333 0
DWIDTH 16 0
BBX 16 16 0 0
BITMAP
0000
7FB7
1BB7
1BBF
1BB7
1BBF
1BB7
3737
0000
01E0
3FFF
1FFE
3807
1FFE
0000
0000
ENDCHAR
STARTCHAR char0xAEBC
ENCODING 44732
SWIDTH 1333 0
DWIDTH 16 0
BBX 16 16 0 0
BITMAP
0000
000E
7F8E
1B8E
1B8E
1B8E
1B8E
1BFE
1B8E
1B8E
1B8E
338E
670E
000E
0000
0000
ENDCHAR
STARTCHAR char0xAEBD
ENCODING 44733
SWIDTH 1333 0
DWIDTH 16 0
BBX 16 16 0 0
BITMAP
0000
7F8E
1B8E
1B8E
1BFE
1B8E
1B8E
370E
0000
3FFE
000E
000E
000E
000C
0000
0000
ENDCHAR
STARTCHAR char0xAEBE
ENCODING 44734
SWIDTH 1333 0
DWIDTH 16 0
BBX 16 16 0 0
BITMAP
0000
7F8E
1B8E
1B8E
1BFE
1B8E
1B8E
370E
0000
3FFE
038E
038E
038E
030C
0000
0000
ENDCHAR
STARTCHAR char0xAEBF
ENCODING 44735
SWIDTH 1333 0
DWIDTH 16 0
BBX 16 16 0 0
BITMAP
0000
7F8E
1B8E
1B8E
1BFE
1B8E
1B8E
370E
0000
3F9C
039C
039C
03BE
0377
0000
0000
ENDCHAR
STARTCHAR char0xAEC0
ENCODING 44736
SWIDTH 1333 0
DWIDTH 16 0
BBX 16 16 0 0
BITMAP
0000
7F8E
1B8E
1B8E
1BFE
1B8E
1B8E
370E
0000
3800
3800
3800
3800
1FFE
0000
0000
ENDCHAR
STARTCHAR char0xAEC1
ENCODING 44737
SWIDTH 1333 0
DWIDTH 16 0
BBX 16 16 0 0
BITMAP
0000
7F8E
1B8E
1B8E
1BFE
1B8E
1B8E
370E
0000
38FE
3838
3838
387C
1FEE
0000
0000
ENDCHAR
STARTCHAR char0xAEC2
ENCODING 44738
SWIDTH 1333 0
DWIDTH 16 0
BBX 16 16 0 0
BITMAP
0000
7F8E
1B8E
1B8E
1BFE
1B8E
1B8E
370E
0000
3878
39FE
38FC
39CE
1EFC
0000
0000
ENDCHAR
STARTCHAR char0xAEC3
ENCODING 44739
SWIDTH 1333 0
DWIDTH 16 0
BBX 16 16 0 0
BITMAP
0000
7F8E
1B8E
1B8E
1BFE
1B8E
1B8E
370E
0000
3FFE
3800
3800
3800
1FFE
0000
0000
ENDCHAR
STARTCHAR char0xAEC4
ENCODING 44740
SWIDTH 1333 0
DWIDTH 16 0
BBX 16 16 0 0
BITMAP
0000
7F8E
1B8E
1B8E
1BFE
1B8E
1B8E
370E
0000
3FFE
000E
3FFE
3800
1FFE
0000
0000
ENDCHAR
STARTCHAR char0xAEC5
ENCODING 44741
SWIDTH 1333 0
DWIDTH 16 0
BBX 16 16 0 0
BITMAP
0000
7F8E
1B8E
1B8E
1BFE
1B8E
1B8E
370E
0000
3F7E
070E
3F0E
380E
1F0C
0000
0000
ENDCHAR
STARTCHAR char0xAEC6
ENCODING 44742
SWIDTH 1333 0
DWIDTH 16 0
BBX 16 16 0 0
BITMAP
0000
7F8E
1B8E
1B8E
1BFE
1B8E
1B8E
370E
0000
3EFE
0EEE
3EEE
38EE
1E7C
0000
0000
ENDCHAR
STARTCHAR char0xAEC7
ENCODING 44743
SWIDTH 1333 0
DWIDTH 16 0
BBX 16 16 0 0
BITMAP
0000
7F8E
1B8E
1B8E
1BFE
1B8E
1B8E
370E
0000
3EEE
0EEE
3EFE
38EE
1E7C
0000
0000
ENDCHAR
STARTCHAR char0xAEC8
ENCODING 44744
SWIDTH 1333 0
DWIDTH 16 0
BBX 16 16 0 0
BITMAP
0000
7F8E
1B8E
1B8E
1BFE
1B8E
1B8E
370E
0000
3F9C
039C
3F9C
383E
1FF7
0000
0000
ENDCHAR
STARTCHAR char0xAEC9
ENCODING 44745
SWIDTH 1333 0
DWIDTH 16 0
BBX 16 16 0 0
BITMAP
0000
7F8E
1B8E
1B8E
1BFE
1B8E
1B8E
370E
0000
3F7E
0770
3F7E
3870
1F7E
0000
0000
ENDCHAR
STARTCHAR char0xAECA
ENCODING 44746
SWIDTH 1333 0
DWIDTH 16 0
BBX 16 16 0 0
BITMAP
0000
7F8E
1B8E
1B8E
1BFE
1B8E
1B8E
370E
0000
3EFE
0E6C
3E6C
386C
1EFE
0000
0000
ENDCHAR
STARTCHAR char0xAECB
ENCODING 44747
SWIDTH 1333 0
DWIDTH 16 0
BBX 16 16 0 0
BITMAP
0000
7F8E
1B8E
1B8E
1BFE
1B8E
1B8E
370E
0000
3F38
07FE
3F7C
38EE
1F7C
0000
0000
ENDCHAR
STARTCHAR char0xAECC
ENCODING 44748
SWIDTH 1333 0
DWIDTH 16 0
BBX 16 16 0 0
BITMAP
0000
7F8E
1B8E
1B8E
1BFE
1B8E
1B8E
370E
0000
3FFE
380E
380E
380E
1FFC
0000
0000
ENDCHAR
STARTCHAR char0xAECD
ENCODING 44749
SWIDTH 1333 0
DWIDTH 16 0
BBX 16 16 0 0
BITMAP
0000
7F8E
1B8E
1B8E
1BFE
1B8E
1B8E
370E
0000
380E
380E
3FFE
380E
1FFC
0000
0000
ENDCHAR
STARTCHAR char0xAECE
ENCODING 44750
SWIDTH 1333 0
DWIDTH 16 0
BBX 16 16 0 0
BITMAP
0000
7F8E
1B8E
1B8E
1BFE
1B8E
1B8E
370E
0000
3B9C
3B9C
3F9C
3BBE
1F77
0000
0000
ENDCHAR
STARTCHAR char0xAECF
ENCODING 44751
SWIDTH 1333 0
DWIDTH 16 0
BBX 16 16 0 0
BITMAP
0000
7F8E
1B8E
1B8E
1BFE
1B8E
1B8E
370E
0000
01C0
01C0
03E0
0F78
380E
0000
0000
ENDCHAR
STARTCHAR char0xAED0
ENCODING 44752
SWIDTH 1333 0
DWIDTH 16 0
BBX 16 16 0 0
BITMAP
0000
7F8E
1B8E
1B8E
1BFE
1B8E
1B8E
370E
0000
0E1C
0E1C
0E1C
1F3E
3BF7
0000
0000
ENDCHAR
STARTCHAR char0xAED1
ENCODING 44753
SWIDTH 1333 0
DWIDTH 16 0
BBX 16 16 0 0
BITMAP
0000
7F8E
1B8E
1B8E
1BFE
1B8E
1B8E
370E
0000
1FFC
380E
380E
380E
1FFC
0000
0000
ENDCHAR
STARTCHAR char0xAED2
ENCODING 44754
SWIDTH 1333 0
DWIDTH 16 0
BBX 16 16 0 0
BITMAP
0000
7F8E
1B8E
1B8E
1BFE
1B8E
1B8E
370E
0000
3FFE
01C0
03E0
0770
3E3E
0000
0000
ENDCHAR
STARTCHAR char0xAED3
ENCODING 44755
SWIDTH 1333 0
DWIDTH 16 0
BBX 16 16 0 0
BITMAP
0000
7F8E
1B8E
1B8E
1BFE
1B8E
1B8E
370E
0000
03E0
3FFE
03E0
0770
3E3E
0000
0000
ENDCHAR
STARTCHAR char0xAED4
ENCODING 44756
SWIDTH 1333 0
DWIDTH 16 0
BBX 16 16 0 0
BITMAP
0000
7F8E
1B8E
1B8E
1BFE
1B8E
1B8E
370E
0000
3FFE
000E
3FFE
000E
000C
0000
0000
ENDCHAR
STARTCHAR char0xAED5
ENCODING 44757
SWIDTH 1333 0
DWIDTH 16 0
BBX 16 16 0 0
BITMAP
0000
7F8E
1B8E
1B8E
1BFE
1B8E
1B8E
370E
0000
3FFE
3800
3FFC
3800
1FFE
0000
0000
ENDCHAR
STARTCHAR char0xAED6
ENCODING 44758
SWIDTH 1333 0
DWIDTH 16 0
BBX 16 16 0 0
BITMAP
0000
7F8E
1B8E
1B8E
1BFE
1B8E
1B8E
370E
0000
3FFE
0E38
0E38
0E38
3FFE
0000
0000
ENDCHAR
STARTCHAR char0xAED7
ENCODING 44759
SWIDTH 1333 0
DWIDTH 16 0
BBX 16 16 0 0
BITMAP
0000
7F8E
1B8E
1B8E
1BFE
1B8E
1B8E
370E
0000
01C0
3FFE
1FFC
380E
1FFC
0000
0000
ENDCHAR
STARTCHAR char0xAED8
ENCODING 44760
SWIDTH 1333 0
DWIDTH 16 0
BBX 16 16 0 0
BITMAP
0000
0037
7FB7
1BB7
1BB7
1BB7
1BB7
1BF7
1BB7
1BB7
1BB7
33B7
6737
0037
0000
0000
ENDCHAR
STARTCHAR char0xAED9
ENCODING 44761
SWIDTH 1333 0
DWIDTH 16 0
BBX 16 16 0 0
BITMAP
0000
7FB7
1BB7
1BB7
1BF7
1BB7
1BB7
3737
0000
3FFF
0007
0007
0007
0006
0000
0000
ENDCHAR
STARTCHAR char0xAEDA
ENCODING 44762
SWIDTH 1333 0
DWIDTH 16 0
BBX 16 16 0 0
BITMAP
0000
7FB7
1BB7
1BB7
1BF7
1BB7
1BB7
3737
0000
3FFF
0387
0387
0387
0306
0000
0000
ENDCHAR
STARTCHAR char0xAEDB
ENCODING 44763
SWIDTH 1333 0
DWIDTH 16 0
BBX 16 16 0 0
BITMAP
0000
7FB7
1BB7
1BB7
1BF7
1BB7
1BB7
3737
0000
3F9C
039C
039C
03BE
0367
0000
0000
ENDCHAR
STARTCHAR char0xAEDC
ENCODING 44764
SWIDTH 1333 0
DWIDTH 16 0
BBX 16 16 0 0
BITMAP
0000
7FB7
1BB7
1BB7
1BF7
1BB7
1BB7
3737
0000
3800
3800
3800
3800
1FFF
0000
0000
ENDCHAR
STARTCHAR char0xAEDD
ENCODING 44765
SWIDTH 1333 0
DWIDTH 16 0
BBX 16 16 0 0
BITMAP
0000
7FB7
1BB7
1BB7
1BF7
1BB7
1BB7
3737
0000
387F
381C
381C
383E
1FF7
0000
0000
ENDCHAR
STARTCHAR char0xAEDE
ENCODING 44766
SWIDTH 1333 0
DWIDTH 16 0
BBX 16 16 0 0
BITMAP
0000
7FB7
1BB7
1BB7
1BF7
1BB7
1BB7
3737
0000
383C
38FF
387E
38E7
1F7E
0000
0000
ENDCHAR
STARTCHAR char0xAEDF
ENCODING 44767
SWIDTH 1333 0
DWIDTH 16 0
BBX 16 16 0 0
BITMAP
0000
7FB7
1BB7
1BB7
1BF7
1BB7
1BB7
3737
0000
3FFF
3800
3800
3800
1FFF
0000
0000
ENDCHAR
STARTCHAR char0xAEE0
ENCODING 44768
SWIDTH 1333 0
DWIDTH 16 0
BBX 16 16 0 0
BITMAP
0000
7FB7
1BB7
1BB7
1BF7
1BB7
1BB7
3737
0000
3FFF
0007
3FFF
3800
1FFF
0000
0000
ENDCHAR
STARTCHAR char0xAEE1
ENCODING 44769
SWIDTH 1333 0
DWIDTH 16 0
BBX 16 16 0 0
BITMAP
0000
7FB7
1BB7
1BB7
1BF7
1BB7
1BB7
3737
0000
3F7F
0707
3F07
3807
1F06
0000
0000
ENDCHAR
STARTCHAR char0xAEE2
ENCODING 44770
SWIDTH 1333 0
DWIDTH 16 0
BBX 16 16 0 0
BITMAP
0000
7FB7
1BB7
1BB7
1BF7
1BB7
1BB7
3737
0000
3F7F
0777
3F77
3877
1F3E
0000
0000
ENDCHAR
STARTCHAR char0xAEE3
ENCODING 44771
SWIDTH 1333 0
DWIDTH 16 0
BBX 16 16 0 0
BITMAP
0000
7FB7
1BB7
1BB7
1BF7
1BB7
1BB7
3737
0000
3F77
0777
3F7F
3877
1F3E
0000
0000
ENDCHAR
STARTCHAR char0xAEE4
ENCODING 44772
SWIDTH 1333 0
DWIDTH 16 0
BBX 16 16 0 0
BITMAP
0000
7FB7
1BB7
1BB7
1BF7
1BB7
1BB7
3737
0000
3F9C
039C
3F9C
383E
1FF7
0000
0000
ENDCHAR
STARTCHAR char0xAEE5
ENCODING 44773
SWIDTH 1333 0
DWIDTH 16 0
BBX 16 16 0 0
BITMAP
0000
7FB7
1BB7
1BB7
1BF7
1BB7
1BB7
3737
0000
3F7F
0770
3F7F
3870
1F7F
0000
0000
ENDCHAR
STARTCHAR char0xAEE6
ENCODING 44774
SWIDTH 1333 0
DWIDTH 16 0
BBX 16 16 0 0
BITMAP
0000
7FB7
1BB7
1BB7
1BF7
1BB7
1BB7
3737
0000
3F7F
0736
3F36
3836
1F7F
0000
0000
ENDCHAR
STARTCHAR char0xAEE7
ENCODING 44775
SWIDTH 1333 0
DWIDTH 16 0
BBX 16 16 0 0
BITMAP
0000
7FB7
1BB7
1BB7
1BF7
1BB7
1BB7
3737
0000
3F3C
07FF
3F7E
38E7
1F7E
0000
0000
ENDCHAR
STARTCHAR char0xAEE8
ENCODING 44776
SWIDTH 1333 0
DWIDTH 16 0
BBX 16 16 0 0
BITMAP
0000
7FB7
1BB7
1BB7
1BF7
1BB7
1BB7
3737
0000
3FFF
3807
3807
3807
1FFE
0000
0000
ENDCHAR
STARTCHAR char0xAEE9
ENCODING 44777
SWIDTH 1333 0
DWIDTH 16 0
BBX 16 16 0 0
BITMAP
0000
7FB7
1BB7
1BB7
1BF7
1BB7
1BB7
3737
0000
3807
3807
3FFF
3807
1FFE
0000
0000
ENDCHAR
STARTCHAR char0xAEEA
ENCODING 44778
SWIDTH 1333 0
DWIDTH 16 0
BBX 16 16 0 0
BITMAP
0000
7FB7
1BB7
1BB7
1BF7
1BB7
1BB7
3737
0000
3B9C
3B9C
3F9C
3BBE
1F77
0000
0000
ENDCHAR
STARTCHAR char0xAEEB
ENCODING 44779
SWIDTH 1333 0
DWIDTH 16 0
BBX 16 16 0 0
BITMAP
0000
7FB7
1BB7
1BB7
1BF7
1BB7
1BB7
3737
0000
01E0
01E0
03F0
0738
3E1F
0000
0000
ENDCHAR
STARTCHAR char0xAEEC
ENCODING 44780
SWIDTH 1333 0
DWIDTH 16 0
BBX 16 16 0 0
BITMAP
0000
7FB7
1BB7
1BB7
1BF7
1BB7
1BB7
3737
0000
0E1C
0E1C
0E1C
1F3E
3BF7
0000
0000
ENDCHAR
STARTCHAR char0xAEED
ENCODING 44781
SWIDTH 1333 0
DWIDTH 16 0
BBX 16 16 0 0
BITMAP
0000
7FB7
1BB7
1BB7
1BF7
1BB7
1BB7
3737
0000
1FFE
3807
3807
3807
1FFE
0000
0000
ENDCHAR
STARTCHAR char0xAEEE
ENCODING 44782
SWIDTH 1333 0
DWIDTH 16 0
BBX 16 16 0 0
BITMAP
0000
7FB7
1BB7
1BB7
1BF7
1BB7
1BB7
3737
0000
3FFF
01E0
03F0
0738
3E1F
0000
0000
ENDCHAR
STARTCHAR char0xAEEF
ENCODING 44783
SWIDTH 1333 0
DWIDTH 16 0
BBX 16 16 0 0
BITMAP
0000
7FB7
1BB7
1BB7
1BF7
1BB7
1BB7
3737
0000
01E0
3FFF
03F0
0738
3E1F
0000
0000
ENDCHAR
STARTCHAR char0xAEF0
ENCODING 44784
SWIDTH 1333 0
DWIDTH 16 0
BBX 16 16 0 0
BITMAP
0000
7FB7
1BB7
1BB7
1BF7
1BB7
1BB7
3737
0000
3FFF
0007
3FFF
0007
0006
0000
0000
ENDCHAR
STARTCHAR char0xAEF1
ENCODING 44785
SWIDTH 1333 0
DWIDTH 16 0
BBX 16 16 0 0
BITMAP
0000
7FB7
1BB7
1BB7
1BF7
1BB7
1BB7
3737
0000
3FFF
3800
3FFF
3800
1FFF
0000
0000
ENDCHAR
STARTCHAR char0xAEF2
ENCODING 44786
SWIDTH 1333 0
DWIDTH 16 0
BBX 16 16 0 0
BITMAP
0000
7FB7
1BB7
1BB7
1BF7
1BB7
1BB7
3737
0000
3FFF
0E1C
0E1C
0E1C
3FFF
0000
0000
ENDCHAR
STARTCHAR char0xAEF3
ENCODING 44787
SWIDTH 1333 0
DWIDTH 16 0
BBX 16 16 0 0
BITMAP
0000
7FB7
1BB7
1BB7
1BF7
1BB7
1BB7
3737
0000
01E0
3FFF
1FFE
3807
1FFE
0000
0000
ENDCHAR
STARTCHAR char0xAEF4
ENCODING 44788
SWIDTH 1333 0
DWIDTH 16 0
BBX 16 16 0 0
BITMAP
0000
000E
7F8E
1B8E
1B8E
1BFE
1B8E
1B8E
1B8E
1BFE
1B8E
338E
670E
000E
0000
0000
ENDCHAR
STARTCHAR char0xAEF5
ENCODING 44789
SWIDTH 1333 0
DWIDTH 16 0
BBX 16 16 0 0
BITMAP
0000
7F8E
1B8E
1BFE
1B8E
1BFE
1B8E
370E
0000
3FFE
000E
000E
000E
000C
0000
0000
ENDCHAR
STARTCHAR char0xAEF6
ENCODING 44790
SWIDTH 1333 0
DWIDTH 16 0
BBX 16 16 0 0
BITMAP
0000
7F8E
1B8E
1BFE
1B8E
1BFE
1B8E
370E
0000
3FFE
038E
038E
038E
030C
0000
0000
ENDCHAR
STARTCHAR char0xAEF7
ENCODING 44791
SWIDTH 1333 0
DWIDTH 16 0
BBX 16 16 0 0
BITMAP
0000
7F8E
1B8E
1BFE
1B8E
1BFE
1B8E
370E
0000
3F9C
039C
039C
03BE
0377
0000
0000
ENDCHAR
STARTCHAR char0xAEF8
ENCODING 44792
SWIDTH 1333 0
DWIDTH 16 0
BBX 16 16 0 0
BITMAP
0000
7F8E
1B8E
1BFE
1B8E
1BFE
1B8E
370E
0000
3800
3800
3800
3800
1FFE
0000
0000
ENDCHAR
STARTCHAR char0xAEF9
ENCODING 44793
SWIDTH 1333 0
DWIDTH 16 0
BBX 16 16 0 0
BITMAP
0000
7F8E
1B8E
1BFE
1B8E
1BFE
1B8E
370E
0000
38FE
3838
3838
387C
1FEE
0000
0000
ENDCHAR
STARTCHAR char0xAEFA
ENCODING 44794
SWIDTH 1333 0
DWIDTH 16 0
BBX 16 16 0 0
BITMAP
0000
7F8E
1B8E
1BFE
1B8E
1BFE
1B8E
370E
0000
3878
39FE
38FC
39CE
1EFC
0000
0000
ENDCHAR
STARTCHAR char0xAEFB
ENCODING 44795
SWIDTH 1333 0
DWIDTH 16 0
BBX 16 16 0 0
BITMAP
0000
7F8E
1B8E
1BFE
1B8E
1BFE
1B8E
370E
0000
3FFE
3800
3800
3800
1FFE
0000
0000
ENDCHAR
STARTCHAR char0xAEFC
ENCODING 44796
SWIDTH 1333 0
DWIDTH 16 0
BBX 16 16 0 0
BITMAP
0000
7F8E
1B8E
1BFE
1B8E
1BFE
1B8E
370E
0000
3FFE
000E
3FFE
3800
1FFE
0000
0000
ENDCHAR
STARTCHAR char0xAEFD
ENCODING 44797
SWIDTH 1333 0
DWIDTH 16 0
BBX 16 16 0 0
BITMAP
0000
7F8E
1B8E
1BFE
1B8E
1BFE
1B8E
370E
0000
3F7E
070E
3F0E
380E
1F0C
0000
0000
ENDCHAR
STARTCHAR char0xAEFE
ENCODING 44798
SWIDTH 1333 0
DWIDTH 16 0
BBX 16 16 0 0
BITMAP
0000
7F8E
1B8E
1BFE
1B8E
1BFE
1B8E
370E
0000
3EFE
0EEE
3EEE
38EE
1E7C
0000
0000
ENDCHAR
STARTCHAR char0xAEFF
ENCODING 44799
SWIDTH 1333 0
DWIDTH 16 0
BBX 16 16 0 0
BITMAP
0000
7F8E
1B8E
1BFE
1B8E
1BFE
1B8E
370E
0000
3EEE
0EEE
3EFE
38EE
1E7C
0000
0000
ENDCHAR
STARTCHAR char0xAF00
ENCODING 44800
SWIDTH 1333 0
DWIDTH 16 0
BBX 16 16 0 0
BITMAP
0000
7F8E
1B8E
1BFE
1B8E
1BFE
1B8E
370E
0000
3F9C
039C
3F9C
383E
1FF7
0000
0000
ENDCHAR
STARTCHAR char0xAF01
ENCODING 44801
SWIDTH 1333 0
DWIDTH 16 0
BBX 16 16 0 0
BITMAP
0000
7F8E
1B8E
1BFE
1B8E
1BFE
1B8E
370E
0000
3F7E
0770
3F7E
3870
1F7E
0000
0000
ENDCHAR
STARTCHAR char0xAF02
ENCODING 44802
SWIDTH 1333 0
DWIDTH 16 0
BBX 16 16 0 0
BITMAP
0000
7F8E
1B8E
1BFE
1B8E
1BFE
1B8E
370E
0000
3EFE
0E6C
3E6C
386C
1EFE
0000
0000
ENDCHAR
STARTCHAR char0xAF03
ENCODING 44803
SWIDTH 1333 0
DWIDTH 16 0
BBX 16 16 0 0
BITMAP
0000
7F8E
1B8E
1BFE
1B8E
1BFE
1B8E
370E
0000
3F38
07FE
3F7C
38EE
1F7C
0000
0000
ENDCHAR
STARTCHAR char0xAF04
ENCODING 44804
SWIDTH 1333 0
DWIDTH 16 0
BBX 16 16 0 0
BITMAP
0000
7F8E
1B8E
1BFE
1B8E
1BFE
1B8E
370E
0000
3FFE
380E
380E
380E
1FFC
0000
0000
ENDCHAR
STARTCHAR char0xAF05
ENCODING 44805
SWIDTH 1333 0
DWIDTH 16 0
BBX 16 16 0 0
BITMAP
0000
7F8E
1B8E
1BFE
1B8E
1BFE
1B8E
370E
0000
380E
380E
3FFE
380E
1FFC
0000
0000
ENDCHAR
STARTCHAR char0xAF06
ENCODING 44806
SWIDTH 1333 0
DWIDTH 16 0
BBX 16 16 0 0
BITMAP
0000
7F8E
1B8E
1BFE
1B8E
1BFE
1B8E
370E
0000
3B9C
3B9C
3F9C
3BBE
1F77
0000
0000
ENDCHAR
STARTCHAR char0xAF07
ENCODING 44807
SWIDTH 1333 0
DWIDTH 16 0
BBX 16 16 0 0
BITMAP
0000
7F8E
1B8E
1BFE
1B8E
1BFE
1B8E
370E
0000
01C0
01C0
03E0
0F78
380E
0000
0000
ENDCHAR
STARTCHAR char0xAF08
ENCODING 44808
SWIDTH 1333 0
DWIDTH 16 0
BBX 16 16 0 0
BITMAP
0000
7F8E
1B8E
1BFE
1B8E
1BFE
1B8E
370E
0000
0E1C
0E1C
0E1C
1F3E
3BF7
0000
0000
ENDCHAR
STARTCHAR char0xAF09
ENCODING 44809
SWIDTH 1333 0
DWIDTH 16 0
BBX 16 16 0 0
BITMAP
0000
7F8E
1B8E
1BFE
1B8E
1BFE
1B8E
370E
0000
1FFC
380E
380E
380E
1FFC
0000
0000
ENDCHAR
STARTCHAR char0xAF0A
ENCODING 44810
SWIDTH 1333 0
DWIDTH 16 0
BBX 16 16 0 0
BITMAP
0000
7F8E
1B8E
1BFE
1B8E
1BFE
1B8E
370E
0000
3FFE
01C0
03E0
0770
3E3E
0000
0000
ENDCHAR
STARTCHAR char0xAF0B
ENCODING 44811
SWIDTH 1333 0
DWIDTH 16 0
BBX 16 16 0 0
BITMAP
0000
7F8E
1B8E
1BFE
1B8E
1BFE
1B8E
370E
0000
03E0
3FFE
03E0
0770
3E3E
0000
0000
ENDCHAR
STARTCHAR char0xAF0C
ENCODING 44812
SWIDTH 1333 0
DWIDTH 16 0
BBX 16 16 0 0
BITMAP
0000
7F8E
1B8E
1BFE
1B8E
1BFE
1B8E
370E
0000
3FFE
000E
3FFE
000E
000C
0000
0000
ENDCHAR
STARTCHAR char0xAF0D
ENCODING 44813
SWIDTH 1333 0
DWIDTH 16 0
BBX 16 16 0 0
BITMAP
0000
7F8E
1B8E
1BFE
1B8E
1BFE
1B8E
370E
0000
3FFE
3800
3FFC
3800
1FFE
0000
0000
ENDCHAR
STARTCHAR char0xAF0E
ENCODING 44814
SWIDTH 1333 0
DWIDTH 16 0
BBX 16 16 0 0
BITMAP
0000
7F8E
1B8E
1BFE
1B8E
1BFE
1B8E
370E
0000
3FFE
0E38
0E38
0E38
3FFE
0000
0000
ENDCHAR
STARTCHAR char0xAF0F
ENCODING 44815
SWIDTH 1333 0
DWIDTH 16 0
BBX 16 16 0 0
BITMAP
0000
7F8E
1B8E
1BFE
1B8E
1BFE
1B8E
370E
0000
01C0
3FFE
1FFC
380E
1FFC
0000
0000
ENDCHAR
STARTCHAR char0xAF10
ENCODING 44816
SWIDTH 1333 0
DWIDTH 16 0
BBX 16 16 0 0
BITMAP
0000
0037
7FB7
1BB7
1BB7
1BF7
1BB7
1BB7
1BB7
1BF7
1BB7
33B7
6737
0037
0000
0000
ENDCHAR
STARTCHAR char0xAF11
ENCODING 44817
SWIDTH 1333 0
DWIDTH 16 0
BBX 16 16 0 0
BITMAP
0000
7FB7
1BB7
1BF7
1BB7
1BF7
1BB7
3737
0000
3FFF
0007
0007
0007
0006
0000
0000
ENDCHAR
STARTCHAR char0xAF12
ENCODING 44818
SWIDTH 1333 0
DWIDTH 16 0
BBX 16 16 0 0
BITMAP
0000
7FB7
1BB7
1BF7
1BB7
1BF7
1BB7
3737
0000
3FFF
0387
0387
0387
0306
0000
0000
ENDCHAR
STARTCHAR char0xAF13
ENCODING 44819
SWIDTH 1333 0
DWIDTH 16 0
BBX 16 16 0 0
BITMAP
0000
7FB7
1BB7
1BF7
1BB7
1BF7
1BB7
3737
0000
3F9C
039C
039C
03BE
0367
0000
0000
ENDCHAR
STARTCHAR char0xAF14
ENCODING 44820
SWIDTH 1333 0
DWIDTH 16 0
BBX 16 16 0 0
BITMAP
0000
7FB7
1BB7
1BF7
1BB7
1BF7
1BB7
3737
0000
3800
3800
3800
3800
1FFF
0000
0000
ENDCHAR
STARTCHAR char0xAF15
ENCODING 44821
SWIDTH 1333 0
DWIDTH 16 0
BBX 16 16 0 0
BITMAP
0000
7FB7
1BB7
1BF7
1BB7
1BF7
1BB7
3737
0000
387F
381C
381C
383E
1FF7
0000
0000
ENDCHAR
STARTCHAR char0xAF16
ENCODING 44822
SWIDTH 1333 0
DWIDTH 16 0
BBX 16 16 0 0
BITMAP
0000
7FB7
1BB7
1BF7
1BB7
1BF7
1BB7
3737
0000
383C
38FF
387E
38E7
1F7E
0000
0000
ENDCHAR
STARTCHAR char0xAF17
ENCODING 44823
SWIDTH 1333 0
DWIDTH 16 0
BBX 16 16 0 0
BITMAP
0000
7FB7
1BB7
1BF7
1BB7
1BF7
1BB7
3737
0000
3FFF
3800
3800
3800
1FFF
0000
0000
ENDCHAR
STARTCHAR char0xAF18
ENCODING 44824
SWIDTH 1333 0
DWIDTH 16 0
BBX 16 16 0 0
BITMAP
0000
7FB7
1BB7
1BF7
1BB7
1BF7
1BB7
3737
0000
3FFF
0007
3FFF
3800
1FFF
0000
0000
ENDCHAR
STARTCHAR char0xAF19
ENCODING 44825
SWIDTH 1333 0
DWIDTH 16 0
BBX 16 16 0 0
BITMAP
0000
7FB7
1BB7
1BF7
1BB7
1BF7
1BB7
3737
0000
3F7F
0707
3F07
3807
1F06
0000
0000
ENDCHAR
STARTCHAR char0xAF1A
ENCODING 44826
SWIDTH 1333 0
DWIDTH 16 0
BBX 16 16 0 0
BITMAP
0000
7FB7
1BB7
1BF7
1BB7
1BF7
1BB7
3737
0000
3F7F
0777
3F77
3877
1F3E
0000
0000
ENDCHAR
STARTCHAR char0xAF1B
ENCODING 44827
SWIDTH 1333 0
DWIDTH 16 0
BBX 16 16 0 0
BITMAP
0000
7FB7
1BB7
1BF7
1BB7
1BF7
1BB7
3737
0000
3F77
0777
3F7F
3877
1F3E
0000
0000
ENDCHAR
STARTCHAR char0xAF1C
ENCODING 44828
SWIDTH 1333 0
DWIDTH 16 0
BBX 16 16 0 0
BITMAP
0000
7FB7
1BB7
1BF7
1BB7
1BF7
1BB7
3737
0000
3F9C
039C
3F9C
383E
1FF7
0000
0000
ENDCHAR
STARTCHAR char0xAF1D
ENCODING 44829
SWIDTH 1333 0
DWIDTH 16 0
BBX 16 16 0 0
BITMAP
0000
7FB7
1BB7
1BF7
1BB7
1BF7
1BB7
3737
0000
3F7F
0770
3F7F
3870
1F7F
0000
0000
ENDCHAR
STARTCHAR char0xAF1E
ENCODING 44830
SWIDTH 1333 0
DWIDTH 16 0
BBX 16 16 0 0
BITMAP
0000
7FB7
1BB7
1BF7
1BB7
1BF7
1BB7
3737
0000
3F7F
0736
3F36
3836
1F7F
0000
0000
ENDCHAR
STARTCHAR char0xAF1F
ENCODING 44831
SWIDTH 1333 0
DWIDTH 16 0
BBX 16 16 0 0
BITMAP
0000
7FB7
1BB7
1BF7
1BB7
1BF7
1BB7
3737
0000
3F3C
07FF
3F7E
38E7
1F7E
0000
0000
ENDCHAR
STARTCHAR char0xAF20
ENCODING 44832
SWIDTH 1333 0
DWIDTH 16 0
BBX 16 16 0 0
BITMAP
0000
7FB7
1BB7
1BF7
1BB7
1BF7
1BB7
3737
0000
3FFF
3807
3807
3807
1FFE
0000
0000
ENDCHAR
STARTCHAR char0xAF21
ENCODING 44833
SWIDTH 1333 0
DWIDTH 16 0
BBX 16 16 0 0
BITMAP
0000
7FB7
1BB7
1BF7
1BB7
1BF7
1BB7
3737
0000
3807
3807
3FFF
3807
1FFE
0000
0000
ENDCHAR
STARTCHAR char0xAF22
ENCODING 44834
SWIDTH 1333 0
DWIDTH 16 0
BBX 16 16 0 0
BITMAP
0000
7FB7
1BB7
1BF7
1BB7
1BF7
1BB7
3737
0000
3B9C
3B9C
3F9C
3BBE
1F77
0000
0000
ENDCHAR
STARTCHAR char0xAF23
ENCODING 44835
SWIDTH 1333 0
DWIDTH 16 0
BBX 16 16 0 0
BITMAP
0000
7FB7
1BB7
1BF7
1BB7
1BF7
1BB7
3737
0000
01E0
01E0
03F0
0738
3E1F
0000
0000
ENDCHAR
STARTCHAR char0xAF24
ENCODING 44836
SWIDTH 1333 0
DWIDTH 16 0
BBX 16 16 0 0
BITMAP
0000
7FB7
1BB7
1BF7
1BB7
1BF7
1BB7
3737
0000
0E1C
0E1C
0E1C
1F3E
3BF7
0000
0000
ENDCHAR
STARTCHAR char0xAF25
ENCODING 44837
SWIDTH 1333 0
DWIDTH 16 0
BBX 16 16 0 0
BITMAP
0000
7FB7
1BB7
1BF7
1BB7
1BF7
1BB7
3737
0000
1FFE
3807
3807
3807
1FFE
0000
0000
ENDCHAR
STARTCHAR char0xAF26
ENCODING 44838
SWIDTH 1333 0
DWIDTH 16 0
BBX 16 16 0 0
BITMAP
0000
7FB7
1BB7
1BF7
1BB7
1BF7
1BB7
3737
0000
3FFF
01E0
03F0
0738
3E1F
0000
0000
ENDCHAR
STARTCHAR char0xAF27
ENCODING 44839
SWIDTH 1333 0
DWIDTH 16 0
BBX 16 16 0 0
BITMAP
0000
7FB7
1BB7
1BF7
1BB7
1BF7
1BB7
3737
0000
01E0
3FFF
03F0
0738
3E1F
0000
0000
ENDCHAR
STARTCHAR char0xAF28
ENCODING 44840
SWIDTH 1333 0
DWIDTH 16 0
BBX 16 16 0 0
BITMAP
0000
7FB7
1BB7
1BF7
1BB7
1BF7
1BB7
3737
0000
3FFF
0007
3FFF
0007
0006
0000
0000
ENDCHAR
STARTCHAR char0xAF29
ENCODING 44841
SWIDTH 1333 0
DWIDTH 16 0
BBX 16 16 0 0
BITMAP
0000
7FB7
1BB7
1BF7
1BB7
1BF7
1BB7
3737
0000
3FFF
3800
3FFF
3800
1FFF
0000
0000
ENDCHAR
STARTCHAR char0xAF2A
ENCODING 44842
SWIDTH 1333 0
DWIDTH 16 0
BBX 16 16 0 0
BITMAP
0000
7FB7
1BB7
1BF7
1BB7
1BF7
1BB7
3737
0000
3FFF
0E1C
0E1C
0E1C
3FFF
0000
0000
ENDCHAR
STARTCHAR char0xAF2B
ENCODING 44843
SWIDTH 1333 0
DWIDTH 16 0
BBX 16 16 0 0
BITMAP
0000
7FB7
1BB7
1BF7
1BB7
1BF7
1BB7
3737
0000
01E0
3FFF
1FFE
3807
1FFE
0000
0000
ENDCHAR
STARTCHAR char0xAF2C
ENCODING 44844
SWIDTH 1333 0
DWIDTH 16 0
BBX 16 16 0 0
BITMAP
0000
0000
3F7E
070E
070E
070E
070E
070E
0E1C
01C0
01C0
01C0
7FFF
0000
0000
0000
ENDCHAR
STARTCHAR char0xAF2D
ENCODING 44845
SWIDTH 1333 0
DWIDTH 16 0
BBX 16 16 0 0
BITMAP
0000
3FFE
038E
038E
038E
07DC
01C0
7FFF
0000
3FFE
000E
000E
000E
000C
0000
0000
ENDCHAR
STARTCHAR char0xAF2E
ENCODING 44846
SWIDTH 1333 0
DWIDTH 16 0
BBX 16 16 0 0
BITMAP
0000
3FFE
038E
038E
038E
07DC
01C0
7FFF
0000
3FFE
038E
038E
038E
030C
0000
0000
ENDCHAR
STARTCHAR char0xAF2F
ENCODING 44847
SWIDTH 1333 0
DWIDTH 16 0
BBX 16 16 0 0
BITMAP
0000
3FFE
038E
038E
038E
07DC
01C0
7FFF
0000
3F38
0738
0738
077C
06EE
0000
0000
ENDCHAR
STARTCHAR char0xAF30
ENCODING 44848
SWIDTH 1333 0
DWIDTH 16 0
BBX 16 16 0 0
BITMAP
0000
3FFE
038E
038E
038E
07DC
01C0
7FFF
0000
3800
3800
3800
3800
1FFE
0000
0000
ENDCHAR
STARTCHAR char0xAF31
ENCODING 44849
SWIDTH 1333 0
DWIDTH 16 0
BBX 16 16 0 0
BITMAP
0000
3FFE
038E
038E
038E
07DC
01C0
7FFF
0000
38FE
3838
3838
387C
1FEE
0000
0000
ENDCHAR
STARTCHAR char0xAF32
ENCODING 44850
SWIDTH 1333 0
DWIDTH 16 0
BBX 16 16 0 0
BITMAP
0000
3FFE
038E
038E
038E
07DC
01C0
7FFF
0000
3878
39FE
38FC
39CE
1EFC
0000
0000
ENDCHAR
STARTCHAR char0xAF33
ENCODING 44851
SWIDTH 1333 0
DWIDTH 16 0
BBX 16 16 0 0
BITMAP
0000
3FFE
038E
038E
038E
07DC
01C0
7FFF
0000
3FFE
3800
3800
3800
1FFE
0000
0000
ENDCHAR
STARTCHAR char0xAF34
ENCODING 44852
SWIDTH 1333 0
DWIDTH 16 0
BBX 16 16 0 0
BITMAP
0000
3FFE
038E
038E
038E
07DC
01C0
7FFF
0000
3FFE
000E
3FFE
3800
1FFE
0000
0000
ENDCHAR
STARTCHAR char0xAF35
ENCODING 44853
SWIDTH 1333 0
DWIDTH 16 0
BBX 16 16 0 0
BITMAP
0000
3FFE
038E
038E
038E
07DC
01C0
7FFF
0000
3FFE
038E
3F8E
380E
1F8C
0000
0000
ENDCHAR
STARTCHAR char0xAF36
ENCODING 44854
SWIDTH 1333 0
DWIDTH 16 0
BBX 16 16 0 0
BITMAP
0000
3FFE
038E
038E
038E
07DC
01C0
7FFF
0000
3EFE
0EEE
3EEE
38EE
1E7C
0000
0000
ENDCHAR
STARTCHAR char0xAF37
ENCODING 44855
SWIDTH 1333 0
DWIDTH 16 0
BBX 16 16 0 0
BITMAP
0000
3FFE
038E
038E
038E
07DC
01C0
7FFF
0000
3EEE
0EEE
3EFE
38EE
1E7C
0000
0000
ENDCHAR
STARTCHAR char0xAF38
ENCODING 44856
SWIDTH 1333 0
DWIDTH 16 0
BBX 16 16 0 0
BITMAP
0000
3FFE
038E
038E
038E
07DC
01C0
7FFF
0000
3F38
0738
3F38
387C
1FEE
0000
0000
ENDCHAR
STARTCHAR char0xAF39
ENCODING 44857
SWIDTH 1333 0
DWIDTH 16 0
BBX 16 16 0 0
BITMAP
0000
3FFE
038E
038E
038E
07DC
01C0
7FFF
0000
3F7E
0760
3F7E
3860
1F7E
0000
0000
ENDCHAR
STARTCHAR char0xAF3A
ENCODING 44858
SWIDTH 1333 0
DWIDTH 16 0
BBX 16 16 0 0
BITMAP
0000
3FFE
038E
038E
038E
07DC
01C0
7FFF
0000
3EFE
0E6C
3E6C
386C
1EFE
0000
0000
ENDCHAR
STARTCHAR char0xAF3B
ENCODING 44859
SWIDTH 1333 0
DWIDTH 16 0
BBX 16 16 0 0
BITMAP
0000
3FFE
038E
038E
038E
07DC
01C0
7FFF
0000
3F38
07FE
3F7C
38EE
1F7C
0000
0000
ENDCHAR
STARTCHAR char0xAF3C
ENCODING 44860
SWIDTH 1333 0
DWIDTH 16 0
BBX 16 16 0 0
BITMAP
0000
3FFE
038E
038E
038E
07DC
01C0
7FFF
0000
3FFE
380E
380E
380E
1FFC
0000
0000
ENDCHAR
STARTCHAR char0xAF3D
ENCODING 44861
SWIDTH 1333 0
DWIDTH 16 0
BBX 16 16 0 0
BITMAP
0000
3FFE
038E
038E
038E
07DC
01C0
7FFF
0000
380E
380E
3FFE
380E
1FFC
0000
0000
ENDCHAR
STARTCHAR char0xAF3E
ENCODING 44862
SWIDTH 1333 0
DWIDTH 16 0
BBX 16 16 0 0
BITMAP
0000
3FFE
038E
038E
038E
07DC
01C0
7FFF
0000
3738
3738
3F38
377C
1EEE
0000
0000
ENDCHAR
STARTCHAR char0xAF3F
ENCODING 44863
SWIDTH 1333 0
DWIDTH 16 0
BBX 16 16 0 0
BITMAP
0000
3FFE
038E
038E
038E
07DC
01C0
7FFF
0000
01C0
01C0
03E0
0770
3E3E
0000
0000
ENDCHAR
STARTCHAR char0xAF40
ENCODING 44864
SWIDTH 1333 0
DWIDTH 16 0
BBX 16 16 0 0
BITMAP
0000
3FFE
038E
038E
038E
07DC
01C0
7FFF
0000
0E38
0E38
0E38
1F7C
3BEE
0000
0000
ENDCHAR
STARTCHAR char0xAF41
ENCODING 44865
SWIDTH 1333 0
DWIDTH 16 0
BBX 16 16 0 0
BITMAP
0000
3FFE
038E
038E
038E
07DC
01C0
7FFF
0000
1FFC
380E
380E
380E
1FFC
0000
0000
ENDCHAR
STARTCHAR char0xAF42
ENCODING 44866
SWIDTH 1333 0
DWIDTH 16 0
BBX 16 16 0 0
BITMAP
0000
3FFE
038E
038E
038E
07DC
01C0
7FFF
0000
3FFE
01C0
03E0
0770
3E3E
0000
0000
ENDCHAR
STARTCHAR char0xAF43
ENCODING 44867
SWIDTH 1333 0
DWIDTH 16 0
BBX 16 16 0 0
BITMAP
0000
3FFE
038E
038E
038E
07DC
01C0
7FFF
0000
01C0
3FFE
03E0
0770
3E3E
0000
0000
ENDCHAR
STARTCHAR char0xAF44
ENCODING 44868
SWIDTH 1333 0
DWIDTH 16 0
BBX 16 16 0 0
BITMAP
0000
3FFE
038E
038E
038E
07DC
01C0
7FFF
0000
3FFE
000E
3FFE
000E
000C
0000
0000
ENDCHAR
STARTCHAR char0xAF45
ENCODING 44869
SWIDTH 1333 0
DWIDTH 16 0
BBX 16 16 0 0
BITMAP
0000
3FFE
038E
038E
038E
07DC
01C0
7FFF
0000
3FFE
3800
3FFE
3800
1FFE
0000
0000
ENDCHAR
STARTCHAR char0xAF46
ENCODING 44870
SWIDTH 1333 0
DWIDTH 16 0
BBX 16 16 0 0
BITMAP
0000
3FFE
038E
038E
038E
07DC
01C0
7FFF
0000
3FFE
0E38
0E38
0E38
3FFE
0000
0000
ENDCHAR
STARTCHAR char0xAF47
ENCODING 44871
SWIDTH 1333 0
DWIDTH 16 0
BBX 16 16 0 0
BITMAP
0000
3FFE
038E
038E
038E
07DC
01C0
7FFF
0000
01C0
3FFE
1FFC
380E
1FFC
0000
0000
ENDCHAR
STARTCHAR char0xAF48
ENCODING 44872
SWIDTH 1333 0
DWIDTH 16 0
BBX 16 16 0 0
BITMAP
0000
001C
7F9C
1B9C
1B9C
1B9C
1B9C
1B9F
371C
0E1C
0E1C
0E1C
7FFC
001C
0000
0000
ENDCHAR
STARTCHAR char0xAF49
ENCODING 44873
SWIDTH 1333 0
DWIDTH 16 0
BBX 16 16 0 0
BITMAP
0000
7F9C
1B9C
1B9C
1B9F
3F1C
0E1C
7FFC
001C
3FFC
001C
001C
001C
0018
0000
0000
ENDCHAR
STARTCHAR char0xAF4A
ENCODING 44874
SWIDTH 1333 0
DWIDTH 16 0
BBX 16 16 0 0
BITMAP
0000
7F9C
1B9C
1B9C
1B9F
3F1C
0E1C
7FFC
001C
3FFC
039C
039C
039C
0318
0000
0000
ENDCHAR
STARTCHAR char0xAF4B
ENCODING 44875
SWIDTH 1333 0
DWIDTH 16 0
BBX 16 16 0 0
BITMAP
0000
7F9C
1B9C
1B9C
1B9F
3F1C
0E1C
7FFC
001C
3F9C
039C
039C
03BE
0377
0000
0000
ENDCHAR
STARTCHAR char0xAF4C
ENCODING 44876
SWIDTH 1333 0
DWIDTH 16 0
BBX 16 16 0 0
BITMAP
0000
7F9C
1B9C
1B9C
1B9F
3F1C
0E1C
7FFC
001C
3800
3800
3800
3800
1FFC
0000
0000
ENDCHAR
STARTCHAR char0xAF4D
ENCODING 44877
SWIDTH 1333 0
DWIDTH 16 0
BBX 16 16 0 0
BITMAP
0000
7F9C
1B9C
1B9C
1B9F
3F1C
0E1C
7FFC
001C
39FC
3870
3870
38F8
1FDC
0000
0000
ENDCHAR
STARTCHAR char0xAF4E
ENCODING 44878
SWIDTH 1333 0
DWIDTH 16 0
BBX 16 16 0 0
BITMAP
0000
7F9C
1B9C
1B9C
1B9F
3F1C
0E1C
7FFC
001C
3870
39FC
38F8
39DC
1EF8
0000
0000
ENDCHAR
STARTCHAR char0xAF4F
ENCODING 44879
SWIDTH 1333 0
DWIDTH 16 0
BBX 16 16 0 0
BITMAP
0000
7F9C
1B9C
1B9C
1B9F
3F1C
0E1C
7FFC
001C
3FFC
3800
3800
3800
1FFC
0000
0000
ENDCHAR
STARTCHAR char0xAF50
ENCODING 44880
SWIDTH 1333 0
DWIDTH 16 0
BBX 16 16 0 0
BITMAP
0000
7F9C
1B9C
1B9C
1B9F
3F1C
0E1C
7FFC
001C
3FFC
001C
3FFC
3800
1FFC
0000
0000
ENDCHAR
STARTCHAR char0xAF51
ENCODING 44881
SWIDTH 1333 0
DWIDTH 16 0
BBX 16 16 0 0
BITMAP
0000
7F9C
1B9C
1B9C
1B9F
3F1C
0E1C
7FFC
001C
3FFC
071C
3F1C
381C
1F18
0000
0000
ENDCHAR
STARTCHAR char0xAF52
ENCODING 44882
SWIDTH 1333 0
DWIDTH 16 0
BBX 16 16 0 0
BITMAP
0000
7F9C
1B9C
1B9C
1B9F
3F1C
0E1C
7FFC
001C
3EFC
0EDC
3EDC
38DC
1E78
0000
0000
ENDCHAR
STARTCHAR char0xAF53
ENCODING 44883
SWIDTH 1333 0
DWIDTH 16 0
BBX 16 16 0 0
BITMAP
0000
7F9C
1B9C
1B9C
1B9F
3F1C
0E1C
7FFC
001C
3EDC
0EDC
3EFC
38DC
1E78
0000
0000
ENDCHAR
STARTCHAR char0xAF54
ENCODING 44884
SWIDTH 1333 0
DWIDTH 16 0
BBX 16 16 0 0
BITMAP
0000
7F9C
1B9C
1B9C
1B9F
3F1C
0E1C
7FFC
001C
3F38
0738
3F38
387C
1FEE
0000
0000
ENDCHAR
STARTCHAR char0xAF55
ENCODING 44885
SWIDTH 1333 0
DWIDTH 16 0
BBX 16 16 0 0
BITMAP
0000
7F9C
1B9C
1B9C
1B9F
3F1C
0E1C
7FFC
001C
3EFC
0EE0
3EFC
38E0
1EFC
0000
0000
ENDCHAR
STARTCHAR char0xAF56
ENCODING 44886
SWIDTH 1333 0
DWIDTH 16 0
BBX 16 16 0 0
BITMAP
0000
7F9C
1B9C
1B9C
1B9F
3F1C
0E1C
7FFC
001C
3FFC
0ED8
3ED8
38D8
1FFC
0000
0000
ENDCHAR
STARTCHAR char0xAF57
ENCODING 44887
SWIDTH 1333 0
DWIDTH 16 0
BBX 16 16 0 0
BITMAP
0000
7F9C
1B9C
1B9C
1B9F
3F1C
0E1C
7FFC
001C
3E70
0FFC
3EF8
39DC
1EF8
0000
0000
ENDCHAR
STARTCHAR char0xAF58
ENCODING 44888
SWIDTH 1333 0
DWIDTH 16 0
BBX 16 16 0 0
BITMAP
0000
7F9C
1B9C
1B9C
1B9F
3F1C
0E1C
7FFC
001C
3FFC
381C
381C
381C
1FF8
0000
0000
ENDCHAR
STARTCHAR char0xAF59
ENCODING 44889
SWIDTH 1333 0
DWIDTH 16 0
BBX 16 16 0 0
BITMAP
0000
7F9C
1B9C
1B9C
1B9F
3F1C
0E1C
7FFC
001C
381C
381C
3FFC
381C
1FF8
0000
0000
ENDCHAR
STARTCHAR char0xAF5A
ENCODING 44890
SWIDTH 1333 0
DWIDTH 16 0
BBX 16 16 0 0
BITMAP
0000
7F9C
1B9C
1B9C
1B9F
3F1C
0E1C
7FFC
001C
3738
3738
3F38
377C
1EEE
0000
0000
ENDCHAR
STARTCHAR char0xAF5B
ENCODING 44891
SWIDTH 1333 0
DWIDTH 16 0
BBX 16 16 0 0
BITMAP
0000
7F9C
1B9C
1B9C
1B9F
3F1C
0E1C
7FFC
001C
0380
0380
07C0
0EE0
7C7C
0000
0000
ENDCHAR
STARTCHAR char0xAF5C
ENCODING 44892
SWIDTH 1333 0
DWIDTH 16 0
BBX 16 16 0 0
BITMAP
0000
7F9C
1B9C
1B9C
1B9F
3F1C
0E1C
7FFC
001C
0E38
0E38
0E38
1F7C
3BEE
0000
0000
ENDCHAR
STARTCHAR char0xAF5D
ENCODING 44893
SWIDTH 1333 0
DWIDTH 16 0
BBX 16 16 0 0
BITMAP
0000
7F9C
1B9C
1B9C
1B9F
3F1C
0E1C
7FFC
001C
1FF8
381C
381C
381C
1FF8
0000
0000
ENDCHAR
STARTCHAR char0xAF5E
ENCODING 44894
SWIDTH 1333 0
DWIDTH 16 0
BBX 16 16 0 0
BITMAP
0000
7F9C
1B9C
1B9C
1B9F
3F1C
0E1C
7FFC
001C
7FFC
0380
07C0
0EE0
7C7C
0000
0000
ENDCHAR
STARTCHAR char0xAF5F
ENCODING 44895
SWIDTH 1333 0
DWIDTH 16 0
BBX 16 16 0 0
BITMAP
0000
7F9C
1B9C
1B9C
1B9F
3F1C
0E1C
7FFC
039C
7FFC
0380
07C0
0EE0
7C7C
0000
0000
ENDCHAR
STARTCHAR char0xAF60
ENCODING 44896
SWIDTH 1333 0
DWIDTH 16 0
BBX 16 16 0 0
BITMAP
0000
7F9C
1B9C
1B9C
1B9F
3F1C
0E1C
7FFC
001C
3FFC
001C
3FFC
001C
0018
0000
0000
ENDCHAR
STARTCHAR char0xAF61
ENCODING 44897
SWIDTH 1333 0
DWIDTH 16 0
BBX 16 16 0 0
BITMAP
0000
7F9C
1B9C
1B9C
1B9F
3F1C
0E1C
7FFC
001C
3FFC
3800
3FFC
3800
1FFC
0000
0000
ENDCHAR
STARTCHAR char0xAF62
ENCODING 44898
SWIDTH 1333 0
DWIDTH 16 0
BBX 16 16 0 0
BITMAP
0000
7F9C
1B9C
1B9C
1B9F
3F1C
0E1C
7FFC
001C
3FFC
0E70
0E70
0E70
3FFC
0000
0000
ENDCHAR
STARTCHAR char0xAF63
ENCODING 44899
SWIDTH 1333 0
DWIDTH 16 0
BBX 16 16 0 0
BITMAP
0000
7F9C
1B9C
1B9C
1B9F
3F1C
0E1C
7FFC
03DC
3FFC
1FF8
381C
381C
1FF8
0000
0000
ENDCHAR
STARTCHAR char0xAF64
ENCODING 44900
SWIDTH 1333 0
DWIDTH 16 0
BBX 16 16 0 0
BITMAP
0000
0037
7FB7
1BB7
1BB7
1BB7
1BB7
1BBF
3737
0E37
0E37
0E37
7FF7
0037
0000
0000
ENDCHAR
STARTCHAR char0xAF65
ENCODING 44901
SWIDTH 1333 0
DWIDTH 16 0
BBX 16 16 0 0
BITMAP
0000
7FB7
1BB7
1BB7
1BBF
3F37
0E37
7FF7
0037
3FFF
0007
0007
0007
0006
0000
0000
ENDCHAR
STARTCHAR char0xAF66
ENCODING 44902
SWIDTH 1333 0
DWIDTH 16 0
BBX 16 16 0 0
BITMAP
0000
7FB7
1BB7
1BB7
1BBF
3F37
0E37
7FF7
0037
3FFF
0387
0387
0387
0306
0000
0000
ENDCHAR
STARTCHAR char0xAF67
ENCODING 44903
SWIDTH 1333 0
DWIDTH 16 0
BBX 16 16 0 0
BITMAP
0000
7FB7
1BB7
1BB7
1BBF
3F37
0E37
7FF7
0037
3F9C
039C
039C
03BE
0367
0000
0000
ENDCHAR
STARTCHAR char0xAF68
ENCODING 44904
SWIDTH 1333 0
DWIDTH 16 0
BBX 16 16 0 0
BITMAP
0000
7FB7
1BB7
1BB7
1BBF
3F37
0E37
7FF7
0037
3800
3800
3800
3800
1FFF
0000
0000
ENDCHAR
STARTCHAR char0xAF69
ENCODING 44905
SWIDTH 1333 0
DWIDTH 16 0
BBX 16 16 0 0
BITMAP
0000
7FB7
1BB7
1BB7
1BBF
3F37
0E37
7FF7
0037
387F
381C
381C
383E
1FF7
0000
0000
ENDCHAR
STARTCHAR char0xAF6A
ENCODING 44906
SWIDTH 1333 0
DWIDTH 16 0
BBX 16 16 0 0
BITMAP
0000
7FB7
1BB7
1BB7
1BBF
3F37
0E37
7FF7
0037
383C
38FF
387E
38E7
1F7E
0000
0000
ENDCHAR
STARTCHAR char0xAF6B
ENCODING 44907
SWIDTH 1333 0
DWIDTH 16 0
BBX 16 16 0 0
BITMAP
0000
7FB7
1BB7
1BB7
1BBF
3F37
0E37
7FF7
0037
3FFF
3800
3800
3800
1FFF
0000
0000
ENDCHAR
STARTCHAR char0xAF6C
ENCODING 44908
SWIDTH 1333 0
DWIDTH 16 0
BBX 16 16 0 0
BITMAP
0000
7FB7
1BB7
1BB7
1BBF
3F37
0E37
7FF7
0037
3FFF
0007
3FFF
3800
1FFF
0000
0000
ENDCHAR
STARTCHAR char0xAF6D
ENCODING 44909
SWIDTH 1333 0
DWIDTH 16 0
BBX 16 16 0 0
BITMAP
0000
7FB7
1BB7
1BB7
1BBF
3F37
0E37
7FF7
0037
3F7F
0707
3F07
3807
1F06
0000
0000
ENDCHAR
STARTCHAR char0xAF6E
ENCODING 44910
SWIDTH 1333 0
DWIDTH 16 0
BBX 16 16 0 0
BITMAP
0000
7FB7
1BB7
1BB7
1BBF
3F37
0E37
7FF7
0037
3F7F
0777
3F77
3877
1F3E
0000
0000
ENDCHAR
STARTCHAR char0xAF6F
ENCODING 44911
SWIDTH 1333 0
DWIDTH 16 0
BBX 16 16 0 0
BITMAP
0000
7FB7
1BB7
1BB7
1BBF
3F37
0E37
7FF7
0037
3F77
0777
3F7F
3877
1F3E
0000
0000
ENDCHAR
STARTCHAR char0xAF70
ENCODING 44912
SWIDTH 1333 0
DWIDTH 16 0
BBX 16 16 0 0
BITMAP
0000
7FB7
1BB7
1BB7
1BBF
3F37
0E37
7FF7
0037
3F9C
039C
3F9C
383E
1FF7
0000
0000
ENDCHAR
STARTCHAR char0xAF71
ENCODING 44913
SWIDTH 1333 0
DWIDTH 16 0
BBX 16 16 0 0
BITMAP
0000
7FB7
1BB7
1BB7
1BBF
3F37
0E37
7FF7
0037
3F7F
0770
3F7F
3870
1F7F
0000
0000
ENDCHAR
STARTCHAR char0xAF72
ENCODING 44914
SWIDTH 1333 0
DWIDTH 16 0
BBX 16 16 0 0
BITMAP
0000
7FB7
1BB7
1BB7
1BBF
3F37
0E37
7FF7
0037
3F7F
0736
3F36
3836
1F7F
0000
0000
ENDCHAR
STARTCHAR char0xAF73
ENCODING 44915
SWIDTH 1333 0
DWIDTH 16 0
BBX 16 16 0 0
BITMAP
0000
7FB7
1BB7
1BB7
1BBF
3F37
0E37
7FF7
0037
3F3C
07FF
3F7E
38E7
1F7E
0000
0000
ENDCHAR
STARTCHAR char0xAF74
ENCODING 44916
SWIDTH 1333 0
DWIDTH 16 0
BBX 16 16 0 0
BITMAP
0000
7FB7
1BB7
1BB7
1BBF
3F37
0E37
7FF7
0037
3FFF
3807
3807
3807
1FFE
0000
0000
ENDCHAR
STARTCHAR char0xAF75
ENCODING 44917
SWIDTH 1333 0
DWIDTH 16 0
BBX 16 16 0 0
BITMAP
0000
7FB7
1BB7
1BB7
1BBF
3F37
0E37
7FF7
0037
3807
3807
3FFF
3807
1FFE
0000
0000
ENDCHAR
STARTCHAR char0xAF76
ENCODING 44918
SWIDTH 1333 0
DWIDTH 16 0
BBX 16 16 0 0
BITMAP
0000
7FB7
1BB7
1BB7
1BBF
3F37
0E37
7FF7
0037
3B9C
3B9C
3F9C
3BBE
1F77
0000
0000
ENDCHAR
STARTCHAR char0xAF77
ENCODING 44919
SWIDTH 1333 0
DWIDTH 16 0
BBX 16 16 0 0
BITMAP
0000
7FB7
1BB7
1BB7
1BBF
3F37
0E37
7FF7
0037
01E0
01E0
03F0
0738
3E1F
0000
0000
ENDCHAR
STARTCHAR char0xAF78
ENCODING 44920
SWIDTH 1333 0
DWIDTH 16 0
BBX 16 16 0 0
BITMAP
0000
7FB7
1BB7
1BB7
1BBF
3F37
0E37
7FF7
0037
0E1C
0E1C
0E1C
1F3E
3BF7
0000
0000
ENDCHAR
STARTCHAR char0xAF79
ENCODING 44921
SWIDTH 1333 0
DWIDTH 16 0
BBX 16 16 0 0
BITMAP
0000
7FB7
1BB7
1BB7
1BBF
3F37
0E37
7FF7
0037
1FFE
3807
3807
3807
1FFE
0000
0000
ENDCHAR
STARTCHAR char0xAF7A
ENCODING 44922
SWIDTH 1333 0
DWIDTH 16 0
BBX 16 16 0 0
BITMAP
0000
7FB7
1BB7
1BB7
1BBF
3F37
0E37
7FF7
0037
3FFF
01E0
03F0
0738
3E1F
0000
0000
ENDCHAR
STARTCHAR char0xAF7B
ENCODING 44923
SWIDTH 1333 0
DWIDTH 16 0
BBX 16 16 0 0
BITMAP
0000
7FB7
1BB7
1BB7
1BBF
3F37
0E37
7FF7
0037
01E0
3FFF
03F0
0738
3E1F
0000
0000
ENDCHAR
STARTCHAR char0xAF7C
ENCODING 44924
SWIDTH 1333 0
DWIDTH 16 0
BBX 16 16 0 0
BITMAP
0000
7FB7
1BB7
1BB7
1BBF
3F37
0E37
7FF7
0037
3FFF
0007
3FFF
0007
0006
0000
0000
ENDCHAR
STARTCHAR char0xAF7D
ENCODING 44925
SWIDTH 1333 0
DWIDTH 16 0
BBX 16 16 0 0
BITMAP
0000
7FB7
1BB7
1BB7
1BBF
3F37
0E37
7FF7
0037
3FFF
3800
3FFF
3800
1FFF
0000
0000
ENDCHAR
STARTCHAR char0xAF7E
ENCODING 44926
SWIDTH 1333 0
DWIDTH 16 0
BBX 16 16 0 0
BITMAP
0000
7FB7
1BB7
1BB7
1BBF
3F37
0E37
7FF7
0037
3FFF
0E1C
0E1C
0E1C
3FFF
0000
0000
ENDCHAR
STARTCHAR char0xAF7F
ENCODING 44927
SWIDTH 1333 0
DWIDTH 16 0
BBX 16 16 0 0
BITMAP
0000
7FB7
1BB7
1BB7
1BBF
3F37
0E37
7FF7
0037
01E0
3FFF
1FFE
3807
1FFE
0000
0000
ENDCHAR
STARTCHAR char0xAF80
ENCODING 44928
SWIDTH 1333 0
DWIDTH 16 0
BBX 16 16 0 0
BITMAP
0000
000E
7F8E
1B8E
1B8E
1B8E
1B8E
1B8E
370E
0E0E
0E0E
0E0E
7FFE
000E
0000
0000
ENDCHAR
STARTCHAR char0xAF81
ENCODING 44929
SWIDTH 1333 0
DWIDTH 16 0
BBX 16 16 0 0
BITMAP
0000
7F8E
1B8E
1B8E
1B8E
3F0E
0E0E
7FFE
000E
3FFE
000E
000E
000E
000C
0000
0000
ENDCHAR
STARTCHAR char0xAF82
ENCODING 44930
SWIDTH 1333 0
DWIDTH 16 0
BBX 16 16 0 0
BITMAP
0000
7F8E
1B8E
1B8E
1B8E
3F0E
0E0E
7FFE
000E
3FFE
038E
038E
038E
030C
0000
0000
ENDCHAR
STARTCHAR char0xAF83
ENCODING 44931
SWIDTH 1333 0
DWIDTH 16 0
BBX 16 16 0 0
BITMAP
0000
7F8E
1B8E
1B8E
1B8E
3F0E
0E0E
7FFE
000E
3F9C
039C
039C
03BE
0377
0000
0000
ENDCHAR
STARTCHAR char0xAF84
ENCODING 44932
SWIDTH 1333 0
DWIDTH 16 0
BBX 16 16 0 0
BITMAP
0000
7F8E
1B8E
1B8E
1B8E
3F0E
0E0E
7FFE
000E
3800
3800
3800
3800
1FFE
0000
0000
ENDCHAR
STARTCHAR char0xAF85
ENCODING 44933
SWIDTH 1333 0
DWIDTH 16 0
BBX 16 16 0 0
BITMAP
0000
7F8E
1B8E
1B8E
1B8E
3F0E
0E0E
7FFE
000E
38FE
3838
3838
387C
1FEE
0000
0000
ENDCHAR
STARTCHAR char0xAF86
ENCODING 44934
SWIDTH 1333 0
DWIDTH 16 0
BBX 16 16 0 0
BITMAP
0000
7F8E
1B8E
1B8E
1B8E
3F0E
0E0E
7FFE
000E
3878
39FE
38FC
39CE
1EFC
0000
0000
ENDCHAR
STARTCHAR char0xAF87
ENCODING 44935
SWIDTH 1333 0
DWIDTH 16 0
BBX 16 16 0 0
BITMAP
0000
7F8E
1B8E
1B8E
1B8E
3F0E
0E0E
7FFE
000E
3FFE
3800
3800
3800
1FFE
0000
0000
ENDCHAR
STARTCHAR char0xAF88
ENCODING 44936
SWIDTH 1333 0
DWIDTH 16 0
BBX 16 16 0 0
BITMAP
0000
7F8E
1B8E
1B8E
1B8E
3F0E
0E0E
7FFE
000E
3FFE
000E
3FFE
3800
1FFE
0000
0000
ENDCHAR
STARTCHAR char0xAF89
ENCODING 44937
SWIDTH 1333 0
DWIDTH 16 0
BBX 16 16 0 0
BITMAP
0000
7F8E
1B8E
1B8E
1B8E
3F0E
0E0E
7FFE
000E
3F7E
070E
3F0E
380E
1F0C
0000
0000
ENDCHAR
STARTCHAR char0xAF8A
ENCODING 44938
SWIDTH 1333 0
DWIDTH 16 0
BBX 16 16 0 0
BITMAP
0000
7F8E
1B8E
1B8E
1B8E
3F0E
0E0E
7FFE
000E
3EFE
0EEE
3EEE
38EE
1E7C
0000
0000
ENDCHAR
STARTCHAR char0xAF8B
ENCODING 44939
SWIDTH 1333 0
DWIDTH 16 0
BBX 16 16 0 0
BITMAP
0000
7F8E
1B8E
1B8E
1B8E
3F0E
0E0E
7FFE
000E
3EEE
0EEE
3EFE
38EE
1E7C
0000
0000
ENDCHAR
STARTCHAR char0xAF8C
ENCODING 44940
SWIDTH 1333 0
DWIDTH 16 0
BBX 16 16 0 0
BITMAP
0000
7F8E
1B8E
1B8E
1B8E
3F0E
0E0E
7FFE
000E
3F9C
039C
3F9C
383E
1FF7
0000
0000
ENDCHAR
STARTCHAR char0xAF8D
ENCODING 44941
SWIDTH 1333 0
DWIDTH 16 0
BBX 16 16 0 0
BITMAP
0000
7F8E
1B8E
1B8E
1B8E
3F0E
0E0E
7FFE
000E
3F7E
0770
3F7E
3870
1F7E
0000
0000
ENDCHAR
STARTCHAR char0xAF8E
ENCODING 44942
SWIDTH 1333 0
DWIDTH 16 0
BBX 16 16 0 0
BITMAP
0000
7F8E
1B8E
1B8E
1B8E
3F0E
0E0E
7FFE
000E
3EFE
0E6C
3E6C
386C
1EFE
0000
0000
ENDCHAR
STARTCHAR char0xAF8F
ENCODING 44943
SWIDTH 1333 0
DWIDTH 16 0
BBX 16 16 0 0
BITMAP
0000
7F8E
1B8E
1B8E
1B8E
3F0E
0E0E
7FFE
000E
3F38
07FE
3F7C
38EE
1F7C
0000
0000
ENDCHAR
STARTCHAR char0xAF90
ENCODING 44944
SWIDTH 1333 0
DWIDTH 16 0
BBX 16 16 0 0
BITMAP
0000
7F8E
1B8E
1B8E
1B8E
3F0E
0E0E
7FFE
000E
3FFE
380E
380E
380E
1FFC
0000
0000
ENDCHAR
STARTCHAR char0xAF91
ENCODING 44945
SWIDTH 1333 0
DWIDTH 16 0
BBX 16 16 0 0
BITMAP
0000
7F8E
1B8E
1B8E
1B8E
3F0E
0E0E
7FFE
000E
380E
380E
3FFE
380E
1FFC
0000
0000
ENDCHAR
STARTCHAR char0xAF92
ENCODING 44946
SWIDTH 1333 0
DWIDTH 16 0
BBX 16 16 0 0
BITMAP
0000
7F8E
1B8E
1B8E
1B8E
3F0E
0E0E
7FFE
000E
3B9C
3B9C
3F9C
3BBE
1F77
0000
0000
ENDCHAR
STARTCHAR char0xAF93
ENCODING 44947
SWIDTH 1333 0
DWIDTH 16 0
BBX 16 16 0 0
BITMAP
0000
7F8E
1B8E
1B8E
1B8E
3F0E
0E0E
7FFE
000E
01C0
01C0
03E0
0F78
380E
0000
0000
ENDCHAR
STARTCHAR char0xAF94
ENCODING 44948
SWIDTH 1333 0
DWIDTH 16 0
BBX 16 16 0 0
BITMAP
0000
7F8E
1B8E
1B8E
1B8E
3F0E
0E0E
7FFE
000E
0E1C
0E1C
0E1C
1F3E
3BF7
0000
0000
ENDCHAR
STARTCHAR char0xAF95
ENCODING 44949
SWIDTH 1333 0
DWIDTH 16 0
BBX 16 16 0 0
BITMAP
0000
7F8E
1B8E
1B8E
1B8E
3F0E
0E0E
7FFE
000E
1FFC
380E
380E
380E
1FFC
0000
0000
ENDCHAR
STARTCHAR char0xAF96
ENCODING 44950
SWIDTH 1333 0
DWIDTH 16 0
BBX 16 16 0 0
BITMAP
0000
7F8E
1B8E
1B8E
1B8E
3F0E
0E0E
7FFE
000E
3FFE
01C0
03E0
0770
3E3E
0000
0000
ENDCHAR
STARTCHAR char0xAF97
ENCODING 44951
SWIDTH 1333 0
DWIDTH 16 0
BBX 16 16 0 0
BITMAP
0000
7F8E
1B8E
1B8E
1B8E
3F0E
0E0E
7FFE
000E
03E0
3FFE
03E0
0770
3E3E
0000
0000
ENDCHAR
STARTCHAR char0xAF98
ENCODING 44952
SWIDTH 1333 0
DWIDTH 16 0
BBX 16 16 0 0
BITMAP
0000
7F8E
1B8E
1B8E
1B8E
3F0E
0E0E
7FFE
000E
3FFE
000E
3FFE
000E
000C
0000
0000
ENDCHAR
STARTCHAR char0xAF99
ENCODING 44953
SWIDTH 1333 0
DWIDTH 16 0
BBX 16 16 0 0
BITMAP
0000
7F8E
1B8E
1B8E
1B8E
3F0E
0E0E
7FFE
000E
3FFE
3800
3FFC
3800
1FFE
0000
0000
ENDCHAR
STARTCHAR char0xAF9A
ENCODING 44954
SWIDTH 1333 0
DWIDTH 16 0
BBX 16 16 0 0
BITMAP
0000
7F8E
1B8E
1B8E
1B8E
3F0E
0E0E
7FFE
000E
3FFE
0E38
0E38
0E38
3FFE
0000
0000
ENDCHAR
STARTCHAR char0xAF9B
ENCODING 44955
SWIDTH 1333 0
DWIDTH 16 0
BBX 16 16 0 0
BITMAP
0000
7F8E
1B8E
1B8E
1B8E
3F0E
0E0E
7FFE
000E
01C0
3FFE
1FFC
380E
1FFC
0000
0000
ENDCHAR
STARTCHAR char0xAF9C
ENCODING 44956
SWIDTH 1333 0
DWIDTH 16 0
BBX 16 16 0 0
BITMAP
0000
0000
3F7E
070E
070E
070E
070E
070E
0E1C
0E38
0E38
0E38
7FFF
0000
0000
0000
ENDCHAR
STARTCHAR char0xAF9D
ENCODING 44957
SWIDTH 1333 0
DWIDTH 16 0
BBX 16 16 0 0
BITMAP
0000
3FFE
038E
038E
038E
0F3C
0E38
7FFF
0000
3FFE
000E
000E
000E
000C
0000
0000
ENDCHAR
STARTCHAR char0xAF9E
ENCODING 44958
SWIDTH 1333 0
DWIDTH 16 0
BBX 16 16 0 0
BITMAP
0000
3FFE
038E
038E
038E
0F3C
0E38
7FFF
0000
3FFE
038E
038E
038E
030C
0000
0000
ENDCHAR
STARTCHAR char0xAF9F
ENCODING 44959
SWIDTH 1333 0
DWIDTH 16 0
BBX 16 16 0 0
BITMAP
0000
3FFE
038E
038E
038E
0F3C
0E38
7FFF
0000
3F38
0738
0738
077C
06EE
0000
0000
ENDCHAR
STARTCHAR char0xAFA0
ENCODING 44960
SWIDTH 1333 0
DWIDTH 16 0
BBX 16 16 0 0
BITMAP
0000
3FFE
038E
038E
038E
0F3C
0E38
7FFF
0000
3800
3800
3800
3800
1FFE
0000
0000
ENDCHAR
STARTCHAR char0xAFA1
ENCODING 44961
SWIDTH 1333 0
DWIDTH 16 0
BBX 16 16 0 0
BITMAP
0000
3FFE
038E
038E
038E
0F3C
0E38
7FFF
0000
38FE
3838
3838
387C
1FEE
0000
0000
ENDCHAR
STARTCHAR char0xAFA2
ENCODING 44962
SWIDTH 1333 0
DWIDTH 16 0
BBX 16 16 0 0
BITMAP
0000
3FFE
038E
038E
038E
0F3C
0E38
7FFF
0000
3878
39FE
38FC
39CE
1EFC
0000
0000
ENDCHAR
STARTCHAR char0xAFA3
ENCODING 44963
SWIDTH 1333 0
DWIDTH 16 0
BBX 16 16 0 0
BITMAP
0000
3FFE
038E
038E
038E
0F3C
0E38
7FFF
0000
3FFE
3800
3800
3800
1FFE
0000
0000
ENDCHAR
STARTCHAR char0xAFA4
ENCODING 44964
SWIDTH 1333 0
DWIDTH 16 0
BBX 16 16 0 0
BITMAP
0000
3FFE
038E
038E
038E
0F3C
0E38
7FFF
0000
3FFE
000E
3FFE
3800
1FFE
0000
0000
ENDCHAR
STARTCHAR char0xAFA5
ENCODING 44965
SWIDTH 1333 0
DWIDTH 16 0
BBX 16 16 0 0
BITMAP
0000
3FFE
038E
038E
038E
0F3C
0E38
7FFF
0000
3FFE
038E
3F8E
380E
1F8C
0000
0000
ENDCHAR
STARTCHAR char0xAFA6
ENCODING 44966
SWIDTH 1333 0
DWIDTH 16 0
BBX 16 16 0 0
BITMAP
0000
3FFE
038E
038E
038E
0F3C
0E38
7FFF
0000
3EFE
0EEE
3EEE
38EE
1E7C
0000
0000
ENDCHAR
STARTCHAR char0xAFA7
ENCODING 44967
SWIDTH 1333 0
DWIDTH 16 0
BBX 16 16 0 0
BITMAP
0000
3FFE
038E
038E
038E
0F3C
0E38
7FFF
0000
3EEE
0EEE
3EFE
38EE
1E7C
0000
0000
ENDCHAR
STARTCHAR char0xAFA8
ENCODING 44968
SWIDTH 1333 0
DWIDTH 16 0
BBX 16 16 0 0
BITMAP
0000
3FFE
038E
038E
038E
0F3C
0E38
7FFF
0000
3F38
0738
3F38
387C
1FEE
0000
0000
ENDCHAR
STARTCHAR char0xAFA9
ENCODING 44969
SWIDTH 1333 0
DWIDTH 16 0
BBX 16 16 0 0
BITMAP
0000
3FFE
038E
038E
038E
0F3C
0E38
7FFF
0000
3F7E
0760
3F7E
3860
1F7E
0000
0000
ENDCHAR
STARTCHAR char0xAFAA
ENCODING 44970
SWIDTH 1333 0
DWIDTH 16 0
BBX 16 16 0 0
BITMAP
0000
3FFE
038E
038E
038E
0F3C
0E38
7FFF
0000
3EFE
0E6C
3E6C
386C
1EFE
0000
0000
ENDCHAR
STARTCHAR char0xAFAB
ENCODING 44971
SWIDTH 1333 0
DWIDTH 16 0
BBX 16 16 0 0
BITMAP
0000
3FFE
038E
038E
038E
0F3C
0E38
7FFF
0000
3F38
07FE
3F7C
38EE
1F7C
0000
0000
ENDCHAR
STARTCHAR char0xAFAC
ENCODING 44972
SWIDTH 1333 0
DWIDTH 16 0
BBX 16 16 0 0
BITMAP
0000
3FFE
038E
038E
038E
0F3C
0E38
7FFF
0000
3FFE
380E
380E
380E
1FFC
0000
0000
ENDCHAR
STARTCHAR char0xAFAD
ENCODING 44973
SWIDTH 1333 0
DWIDTH 16 0
BBX 16 16 0 0
BITMAP
0000
3FFE
038E
038E
038E
0F3C
0E38
7FFF
0000
380E
380E
3FFE
380E
1FFC
0000
0000
ENDCHAR
STARTCHAR char0xAFAE
ENCODING 44974
SWIDTH 1333 0
DWIDTH 16 0
BBX 16 16 0 0
BITMAP
0000
3FFE
038E
038E
038E
0F3C
0E38
7FFF
0000
3738
3738
3F38
377C
1EEE
0000
0000
ENDCHAR
STARTCHAR char0xAFAF
ENCODING 44975
SWIDTH 1333 0
DWIDTH 16 0
BBX 16 16 0 0
BITMAP
0000
3FFE
038E
038E
038E
0F3C
0E38
7FFF
0000
01C0
01C0
03E0
0770
3E3E
0000
0000
ENDCHAR
STARTCHAR char0xAFB0
ENCODING 44976
SWIDTH 1333 0
DWIDTH 16 0
BBX 16 16 0 0
BITMAP
0000
3FFE
038E
038E
038E
0F3C
0E38
7FFF
0000
0E38
0E38
0E38
1F7C
3BEE
0000
0000
ENDCHAR
STARTCHAR char0xAFB1
ENCODING 44977
SWIDTH 1333 0
DWIDTH 16 0
BBX 16 16 0 0
BITMAP
0000
3FFE
038E
038E
038E
0F3C
0E38
7FFF
0000
1FFC
380E
380E
380E
1FFC
0000
0000
ENDCHAR
STARTCHAR char0xAFB2
ENCODING 44978
SWIDTH 1333 0
DWIDTH 16 0
BBX 16 16 0 0
BITMAP
0000
3FFE
038E
038E
038E
0F3C
0E38
7FFF
0000
3FFE
01C0
03E0
0770
3E3E
0000
0000
ENDCHAR
STARTCHAR char0xAFB3
ENCODING 44979
SWIDTH 1333 0
DWIDTH 16 0
BBX 16 16 0 0
BITMAP
0000
3FFE
038E
038E
038E
0F3C
0E38
7FFF
0000
01C0
3FFE
03E0
0770
3E3E
0000
0000
ENDCHAR
STARTCHAR char0xAFB4
ENCODING 44980
SWIDTH 1333 0
DWIDTH 16 0
BBX 16 16 0 0
BITMAP
0000
3FFE
038E
038E
038E
0F3C
0E38
7FFF
0000
3FFE
000E
3FFE
000E
000C
0000
0000
ENDCHAR
STARTCHAR char0xAFB5
ENCODING 44981
SWIDTH 1333 0
DWIDTH 16 0
BBX 16 16 0 0
BITMAP
0000
3FFE
038E
038E
038E
0F3C
0E38
7FFF
0000
3FFE
3800
3FFE
3800
1FFE
0000
0000
ENDCHAR
STARTCHAR char0xAFB6
ENCODING 44982
SWIDTH 1333 0
DWIDTH 16 0
BBX 16 16 0 0
BITMAP
0000
3FFE
038E
038E
038E
0F3C
0E38
7FFF
0000
3FFE
0E38
0E38
0E38
3FFE
0000
0000
ENDCHAR
STARTCHAR char0xAFB7
ENCODING 44983
SWIDTH 1333 0
DWIDTH 16 0
BBX 16 16 0 0
BITMAP
0000
3FFE
038E
038E
038E
0F3C
0E38
7FFF
0000
01C0
3FFE
1FFC
380E
1FFC
0000
0000
ENDCHAR
STARTCHAR char0xAFB8
ENCODING 44984
SWIDTH 1333 0
DWIDTH 16 0
BBX 16 16 0 0
BITMAP
0000
0000
3F7E
070E
070E
070E
070E
070E
0E1C
7FFF
01C0
01C0
01C0
01C0
0000
0000
ENDCHAR
STARTCHAR char0xAFB9
ENCODING 44985
SWIDTH 1333 0
DWIDTH 16 0
BBX 16 16 0 0
BITMAP
0000
3FFE
038E
038E
038E
071C
0000
7FFF
01C0
3FFE
000E
000E
000E
000C
0000
0000
ENDCHAR
STARTCHAR char0xAFBA
ENCODING 44986
SWIDTH 1333 0
DWIDTH 16 0
BBX 16 16 0 0
BITMAP
0000
3FFE
038E
038E
038E
071C
0000
7FFF
01C0
3FFE
038E
038E
038E
030C
0000
0000
ENDCHAR
STARTCHAR char0xAFBB
ENCODING 44987
SWIDTH 1333 0
DWIDTH 16 0
BBX 16 16 0 0
BITMAP
0000
3FFE
038E
038E
038E
071C
0000
7FFF
01C0
3FF8
0738
0738
077C
06EE
0000
0000
ENDCHAR
STARTCHAR char0xAFBC
ENCODING 44988
SWIDTH 1333 0
DWIDTH 16 0
BBX 16 16 0 0
BITMAP
0000
3FFE
038E
038E
038E
071C
0000
7FFF
01C0
39C0
3800
3800
3800
1FFE
0000
0000
ENDCHAR
STARTCHAR char0xAFBD
ENCODING 44989
SWIDTH 1333 0
DWIDTH 16 0
BBX 16 16 0 0
BITMAP
0000
3FFE
038E
038E
038E
071C
0000
7FFF
01C0
39FE
3838
3838
387C
1FEE
0000
0000
ENDCHAR
STARTCHAR char0xAFBE
ENCODING 44990
SWIDTH 1333 0
DWIDTH 16 0
BBX 16 16 0 0
BITMAP
0000
3FFE
038E
038E
038E
071C
0000
7FFF
01C0
39F8
39FE
38FC
39CE
1EFC
0000
0000
ENDCHAR
STARTCHAR char0xAFBF
ENCODING 44991
SWIDTH 1333 0
DWIDTH 16 0
BBX 16 16 0 0
BITMAP
0000
3FFE
038E
038E
038E
071C
0000
7FFF
01C0
3FFE
3800
3800
3800
1FFE
0000
0000
ENDCHAR
STARTCHAR char0xAFC0
ENCODING 44992
SWIDTH 1333 0
DWIDTH 16 0
BBX 16 16 0 0
BITMAP
0000
3FFE
038E
038E
038E
071C
0000
7FFF
01C0
3FFE
000E
3FFE
3800
1FFE
0000
0000
ENDCHAR
STARTCHAR char0xAFC1
ENCODING 44993
SWIDTH 1333 0
DWIDTH 16 0
BBX 16 16 0 0
BITMAP
0000
3FFE
038E
038E
038E
071C
0000
7FFF
01C0
3FFE
038E
3F8E
380E
1F8C
0000
0000
ENDCHAR
STARTCHAR char0xAFC2
ENCODING 44994
SWIDTH 1333 0
DWIDTH 16 0
BBX 16 16 0 0
BITMAP
0000
3FFE
038E
038E
038E
071C
0000
7FFF
01C0
3FFE
0EEE
3EEE
38EE
1E7C
0000
0000
ENDCHAR
STARTCHAR char0xAFC3
ENCODING 44995
SWIDTH 1333 0
DWIDTH 16 0
BBX 16 16 0 0
BITMAP
0000
3FFE
038E
038E
038E
071C
0000
7FFF
01C0
3FEE
0EEE
3EFE
38EE
1E7C
0000
0000
ENDCHAR
STARTCHAR char0xAFC4
ENCODING 44996
SWIDTH 1333 0
DWIDTH 16 0
BBX 16 16 0 0
BITMAP
0000
3FFE
038E
038E
038E
071C
0000
7FFF
01C0
3FF8
0738
3F38
387C
1FEE
0000
0000
ENDCHAR
STARTCHAR char0xAFC5
ENCODING 44997
SWIDTH 1333 0
DWIDTH 16 0
BBX 16 16 0 0
BITMAP
0000
3FFE
038E
038E
038E
071C
0000
7FFF
01C0
3FFE
0760
3F7E
3860
1F7E
0000
0000
ENDCHAR
STARTCHAR char0xAFC6
ENCODING 44998
SWIDTH 1333 0
DWIDTH 16 0
BBX 16 16 0 0
BITMAP
0000
3FFE
038E
038E
038E
071C
0000
7FFF
01C0
3FFE
0E6C
3E6C
386C
1EFE
0000
0000
ENDCHAR
STARTCHAR char0xAFC7
ENCODING 44999
SWIDTH 1333 0
DWIDTH 16 0
BBX 16 16 0 0
BITMAP
0000
3FFE
038E
038E
038E
071C
0000
7FFF
01C0
3FF8
07FE
3F7C
38EE
1F7C
0000
0000
ENDCHAR
STARTCHAR char0xAFC8
ENCODING 45000
SWIDTH 1333 0
DWIDTH 16 0
BBX 16 16 0 0
BITMAP
0000
3FFE
038E
038E
038E
071C
0000
7FFF
01C0
3FFE
380E
380E
380E
1FFC
0000
0000
ENDCHAR
STARTCHAR char0xAFC9
ENCODING 45001
SWIDTH 1333 0
DWIDTH 16 0
BBX 16 16 0 0
BITMAP
0000
3FFE
038E
038E
038E
071C
0000
7FFF
01C0
39CE
380E
3FFE
380E
1FFC
0000
0000
ENDCHAR
STARTCHAR char0xAFCA
ENCODING 45002
SWIDTH 1333 0
DWIDTH 16 0
BBX 16 16 0 0
BITMAP
0000
3FFE
038E
038E
038E
071C
0000
7FFF
01C0
37F8
3738
3F38
377C
1EEE
0000
0000
ENDCHAR
STARTCHAR char0xAFCB
ENCODING 45003
SWIDTH 1333 0
DWIDTH 16 0
BBX 16 16 0 0
BITMAP
0000
3FFE
038E
038E
038E
071C
0000
7FFF
01C0
01C0
01C0
03E0
0770
3E3E
0000
0000
ENDCHAR
STARTCHAR char0xAFCC
ENCODING 45004
SWIDTH 1333 0
DWIDTH 16 0
BBX 16 16 0 0
BITMAP
0000
3FFE
038E
038E
038E
071C
0000
7FFF
01C0
0FF8
0E38
0E38
1F7C
3BEE
0000
0000
ENDCHAR
STARTCHAR char0xAFCD
ENCODING 45005
SWIDTH 1333 0
DWIDTH 16 0
BBX 16 16 0 0
BITMAP
0000
3FFE
038E
038E
038E
071C
0000
7FFF
01C0
1FFC
380E
380E
380E
1FFC
0000
0000
ENDCHAR
STARTCHAR char0xAFCE
ENCODING 45006
SWIDTH 1333 0
DWIDTH 16 0
BBX 16 16 0 0
BITMAP
0000
3FFE
038E
038E
038E
071C
0000
7FFF
01C0
3FFE
01C0
03E0
0770
3E3E
0000
0000
ENDCHAR
STARTCHAR char0xAFCF
ENCODING 45007
SWIDTH 1333 0
DWIDTH 16 0
BBX 16 16 0 0
BITMAP
0000
3FFE
038E
038E
038E
071C
0000
7FFF
01C0
01C0
3FFE
03E0
0770
3E3E
0000
0000
ENDCHAR
STARTCHAR char0xAFD0
ENCODING 45008
SWIDTH 1333 0
DWIDTH 16 0
BBX 16 16 0 0
BITMAP
0000
3FFE
038E
038E
038E
071C
0000
7FFF
01C0
3FFE
000E
3FFE
000E
000C
0000
0000
ENDCHAR
STARTCHAR char0xAFD1
ENCODING 45009
SWIDTH 1333 0
DWIDTH 16 0
BBX 16 16 0 0
BITMAP
0000
3FFE
038E
038E
038E
071C
0000
7FFF
01C0
3FFE
3800
3FFE
3800
1FFE
0000
0000
ENDCHAR
STARTCHAR char0xAFD2
ENCODING 45010
SWIDTH 1333 0
DWIDTH 16 0
BBX 16 16 0 0
BITMAP
0000
3FFE
038E
038E
038E
071C
0000
7FFF
01C0
3FFE
0E38
0E38
0E38
3FFE
0000
0000
ENDCHAR
STARTCHAR char0xAFD3
ENCODING 45011
SWIDTH 1333 0
DWIDTH 16 0
BBX 16 16 0 0
BITMAP
0000
3FFE
038E
038E
038E
071C
0000
7FFF
01C0
01C0
3FFE
1FFC
380E
1FFC
0000
0000
ENDCHAR
STARTCHAR char0xAFD4
ENCODING 45012
SWIDTH 1333 0
DWIDTH 16 0
BBX 16 16 0 0
BITMAP
0000
000E
7F8E
1B8E
1B8E
1B8E
370E
000E
7FFE
0E0E
0EFE
0E0E
0E0E
0E0E
0000
0000
ENDCHAR
STARTCHAR char0xAFD5
ENCODING 45013
SWIDTH 1333 0
DWIDTH 16 0
BBX 16 16 0 0
BITMAP
0000
7F8E
1B8E
1B8E
1B8E
370E
7FFE
0E7E
0E0E
3FFE
000E
000E
000E
000C
0000
0000
ENDCHAR
STARTCHAR char0xAFD6
ENCODING 45014
SWIDTH 1333 0
DWIDTH 16 0
BBX 16 16 0 0
BITMAP
0000
7F8E
1B8E
1B8E
1B8E
370E
7FFE
0E7E
0E0E
3FFE
038E
038E
038E
030C
0000
0000
ENDCHAR
STARTCHAR char0xAFD7
ENCODING 45015
SWIDTH 1333 0
DWIDTH 16 0
BBX 16 16 0 0
BITMAP
0000
7F8E
1B8E
1B8E
1B8E
370E
7FFE
0E7E
0E0E
3F9C
039C
039C
03BE
0377
0000
0000
ENDCHAR
STARTCHAR char0xAFD8
ENCODING 45016
SWIDTH 1333 0
DWIDTH 16 0
BBX 16 16 0 0
BITMAP
0000
7F8E
1B8E
1B8E
1B8E
370E
7FFE
0E7E
0E0E
3800
3800
3800
3800
1FFE
0000
0000
ENDCHAR
STARTCHAR char0xAFD9
ENCODING 45017
SWIDTH 1333 0
DWIDTH 16 0
BBX 16 16 0 0
BITMAP
0000
7F8E
1B8E
1B8E
1B8E
370E
7FFE
0E7E
0E0E
38FE
3838
3838
387C
1FEE
0000
0000
ENDCHAR
STARTCHAR char0xAFDA
ENCODING 45018
SWIDTH 1333 0
DWIDTH 16 0
BBX 16 16 0 0
BITMAP
0000
7F8E
1B8E
1B8E
1B8E
370E
7FFE
0E7E
0E0E
3878
39FE
38FC
39CE
1EFC
0000
0000
ENDCHAR
STARTCHAR char0xAFDB
ENCODING 45019
SWIDTH 1333 0
DWIDTH 16 0
BBX 16 16 0 0
BITMAP
0000
7F8E
1B8E
1B8E
1B8E
370E
7FFE
0E7E
0E0E
3FFE
3800
3800
3800
1FFE
0000
0000
ENDCHAR
STARTCHAR char0xAFDC
ENCODING 45020
SWIDTH 1333 0
DWIDTH 16 0
BBX 16 16 0 0
BITMAP
0000
7F8E
1B8E
1B8E
1B8E
370E
7FFE
0E7E
0E0E
3FFE
000E
3FFE
3800
1FFE
0000
0000
ENDCHAR
STARTCHAR char0xAFDD
ENCODING 45021
SWIDTH 1333 0
DWIDTH 16 0
BBX 16 16 0 0
BITMAP
0000
7F8E
1B8E
1B8E
1B8E
370E
7FFE
0E7E
0E0E
3F7E
070E
3F0E
380E
1F0C
0000
0000
ENDCHAR
STARTCHAR char0xAFDE
ENCODING 45022
SWIDTH 1333 0
DWIDTH 16 0
BBX 16 16 0 0
BITMAP
0000
7F8E
1B8E
1B8E
1B8E
370E
7FFE
0E7E
0E0E
3EFE
0EEE
3EEE
38EE
1E7C
0000
0000
ENDCHAR
STARTCHAR char0xAFDF
ENCODING 45023
SWIDTH 1333 0
DWIDTH 16 0
BBX 16 16 0 0
BITMAP
0000
7F8E
1B8E
1B8E
1B8E
370E
7FFE
0E7E
0E0E
3EEE
0EEE
3EFE
38EE
1E7C
0000
0000
ENDCHAR
STARTCHAR char0xAFE0
ENCODING 45024
SWIDTH 1333 0
DWIDTH 16 0
BBX 16 16 0 0
BITMAP
0000
7F8E
1B8E
1B8E
1B8E
370E
7FFE
0E7E
0E0E
3F9C
039C
3F9C
383E
1FF7
0000
0000
ENDCHAR
STARTCHAR char0xAFE1
ENCODING 45025
SWIDTH 1333 0
DWIDTH 16 0
BBX 16 16 0 0
BITMAP
0000
7F8E
1B8E
1B8E
1B8E
370E
7FFE
0E7E
0E0E
3F7E
0770
3F7E
3870
1F7E
0000
0000
ENDCHAR
STARTCHAR char0xAFE2
ENCODING 45026
SWIDTH 1333 0
DWIDTH 16 0
BBX 16 16 0 0
BITMAP
0000
7F8E
1B8E
1B8E
1B8E
370E
7FFE
0E7E
0E0E
3EFE
0E6C
3E6C
386C
1EFE
0000
0000
ENDCHAR
STARTCHAR char0xAFE3
ENCODING 45027
SWIDTH 1333 0
DWIDTH 16 0
BBX 16 16 0 0
BITMAP
0000
7F8E
1B8E
1B8E
1B8E
370E
7FFE
0E7E
0E0E
3F38
07FE
3F7C
38EE
1F7C
0000
0000
ENDCHAR
STARTCHAR char0xAFE4
ENCODING 45028
SWIDTH 1333 0
DWIDTH 16 0
BBX 16 16 0 0
BITMAP
0000
7F8E
1B8E
1B8E
1B8E
370E
7FFE
0E7E
0E0E
3FFE
380E
380E
380E
1FFC
0000
0000
ENDCHAR
STARTCHAR char0xAFE5
ENCODING 45029
SWIDTH 1333 0
DWIDTH 16 0
BBX 16 16 0 0
BITMAP
0000
7F8E
1B8E
1B8E
1B8E
370E
7FFE
0E7E
0E0E
380E
380E
3FFE
380E
1FFC
0000
0000
ENDCHAR
STARTCHAR char0xAFE6
ENCODING 45030
SWIDTH 1333 0
DWIDTH 16 0
BBX 16 16 0 0
BITMAP
0000
7F8E
1B8E
1B8E
1B8E
370E
7FFE
0E7E
0E0E
3B9C
3B9C
3F9C
3BBE
1F77
0000
0000
ENDCHAR
STARTCHAR char0xAFE7
ENCODING 45031
SWIDTH 1333 0
DWIDTH 16 0
BBX 16 16 0 0
BITMAP
0000
7F8E
1B8E
1B8E
1B8E
370E
7FFE
0E7E
0E0E
01C0
01C0
03E0
0F78
380E
0000
0000
ENDCHAR
STARTCHAR char0xAFE8
ENCODING 45032
SWIDTH 1333 0
DWIDTH 16 0
BBX 16 16 0 0
BITMAP
0000
7F8E
1B8E
1B8E
1B8E
370E
7FFE
0E7E
0E0E
0E1C
0E1C
0E1C
1F3E
3BF7
0000
0000
ENDCHAR
STARTCHAR char0xAFE9
ENCODING 45033
SWIDTH 1333 0
DWIDTH 16 0
BBX 16 16 0 0
BITMAP
0000
7F8E
1B8E
1B8E
1B8E
370E
7FFE
0E7E
0E0E
1FFC
380E
380E
380E
1FFC
0000
0000
ENDCHAR
STARTCHAR char0xAFEA
ENCODING 45034
SWIDTH 1333 0
DWIDTH 16 0
BBX 16 16 0 0
BITMAP
0000
7F8E
1B8E
1B8E
1B8E
370E
7FFE
0E7E
0E0E
3FFE
01C0
03E0
0770
3E3E
0000
0000
ENDCHAR
STARTCHAR char0xAFEB
ENCODING 45035
SWIDTH 1333 0
DWIDTH 16 0
BBX 16 16 0 0
BITMAP
0000
7F8E
1B8E
1B8E
1B8E
370E
7FFE
0E7E
0E0E
03E0
3FFE
03E0
0770
3E3E
0000
0000
ENDCHAR
STARTCHAR char0xAFEC
ENCODING 45036
SWIDTH 1333 0
DWIDTH 16 0
BBX 16 16 0 0
BITMAP
0000
7F8E
1B8E
1B8E
1B8E
370E
7FFE
0E7E
0E0E
3FFE
000E
3FFE
000E
000C
0000
0000
ENDCHAR
STARTCHAR char0xAFED
ENCODING 45037
SWIDTH 1333 0
DWIDTH 16 0
BBX 16 16 0 0
BITMAP
0000
7F8E
1B8E
1B8E
1B8E
370E
7FFE
0E7E
0E0E
3FFE
3800
3FFC
3800
1FFE
0000
0000
ENDCHAR
STARTCHAR char0xAFEE
ENCODING 45038
SWIDTH 1333 0
DWIDTH 16 0
BBX 16 16 0 0
BITMAP
0000
7F8E
1B8E
1B8E
1B8E
370E
7FFE
0E7E
0E0E
3FFE
0E38
0E38
0E38
3FFE
0000
0000
ENDCHAR
STARTCHAR char0xAFEF
ENCODING 45039
SWIDTH 1333 0
DWIDTH 16 0
BBX 16 16 0 0
BITMAP
0000
7F8E
1B8E
1B8E
1B8E
370E
7FFE
0E7E
0E0E
01C0
3FFE
1FFC
380E
1FFC
0000
0000
ENDCHAR
STARTCHAR char0xAFF0
ENCODING 45040
SWIDTH 1333 0
DWIDTH 16 0
BBX 16 16 0 0
BITMAP
0000
0037
7FB7
1BB7
1BB7
1BB7
3737
0037
7FF7
0E37
0EF7
0E37
0E37
0E37
0000
0000
ENDCHAR
STARTCHAR char0xAFF1
ENCODING 45041
SWIDTH 1333 0
DWIDTH 16 0
BBX 16 16 0 0
BITMAP
0000
7FB7
1BB7
1BB7
1BB7
3737
7FF7
0EF7
0E37
3FFF
0007
0007
0007
0006
0000
0000
ENDCHAR
STARTCHAR char0xAFF2
ENCODING 45042
SWIDTH 1333 0
DWIDTH 16 0
BBX 16 16 0 0
BITMAP
0000
7FB7
1BB7
1BB7
1BB7
3737
7FF7
0EF7
0E37
3FFF
0387
0387
0387
0306
0000
0000
ENDCHAR
STARTCHAR char0xAFF3
ENCODING 45043
SWIDTH 1333 0
DWIDTH 16 0
BBX 16 16 0 0
BITMAP
0000
7FB7
1BB7
1BB7
1BB7
3737
7FF7
0EF7
0E37
3F9C
039C
039C
03BE
0367
0000
0000
ENDCHAR
STARTCHAR char0xAFF4
ENCODING 45044
SWIDTH 1333 0
DWIDTH 16 0
BBX 16 16 0 0
BITMAP
0000
7FB7
1BB7
1BB7
1BB7
3737
7FF7
0EF7
0E37
3800
3800
3800
3800
1FFF
0000
0000
ENDCHAR
STARTCHAR char0xAFF5
ENCODING 45045
SWIDTH 1333 0
DWIDTH 16 0
BBX 16 16 0 0
BITMAP
0000
7FB7
1BB7
1BB7
1BB7
3737
7FF7
0EF7
0E37
387F
381C
381C
383E
1FF7
0000
0000
ENDCHAR
STARTCHAR char0xAFF6
ENCODING 45046
SWIDTH 1333 0
DWIDTH 16 0
BBX 16 16 0 0
BITMAP
0000
7FB7
1BB7
1BB7
1BB7
3737
7FF7
0EF7
0E37
383C
38FF
387E
38E7
1F7E
0000
0000
ENDCHAR
STARTCHAR char0xAFF7
ENCODING 45047
SWIDTH 1333 0
DWIDTH 16 0
BBX 16 16 0 0
BITMAP
0000
7FB7
1BB7
1BB7
1BB7
3737
7FF7
0EF7
0E37
3FFF
3800
3800
3800
1FFF
0000
0000
ENDCHAR
STARTCHAR char0xAFF8
ENCODING 45048
SWIDTH 1333 0
DWIDTH 16 0
BBX 16 16 0 0
BITMAP
0000
7FB7
1BB7
1BB7
1BB7
3737
7FF7
0EF7
0E37
3FFF
0007
3FFF
3800
1FFF
0000
0000
ENDCHAR
STARTCHAR char0xAFF9
ENCODING 45049
SWIDTH 1333 0
DWIDTH 16 0
BBX 16 16 0 0
BITMAP
0000
7FB7
1BB7
1BB7
1BB7
3737
7FF7
0EF7
0E37
3F7F
0707
3F07
3807
1F06
0000
0000
ENDCHAR
STARTCHAR char0xAFFA
ENCODING 45050
SWIDTH 1333 0
DWIDTH 16 0
BBX 16 16 0 0
BITMAP
0000
7FB7
1BB7
1BB7
1BB7
3737
7FF7
0EF7
0E37
3F7F
0777
3F77
3877
1F3E
0000
0000
ENDCHAR
STARTCHAR char0xAFFB
ENCODING 45051
SWIDTH 1333 0
DWIDTH 16 0
BBX 16 16 0 0
BITMAP
0000
7FB7
1BB7
1BB7
1BB7
3737
7FF7
0EF7
0E37
3F77
0777
3F7F
3877
1F3E
0000
0000
ENDCHAR
STARTCHAR char0xAFFC
ENCODING 45052
SWIDTH 1333 0
DWIDTH 16 0
BBX 16 16 0 0
BITMAP
0000
7FB7
1BB7
1BB7
1BB7
3737
7FF7
0EF7
0E37
3F9C
039C
3F9C
383E
1FF7
0000
0000
ENDCHAR
STARTCHAR char0xAFFD
ENCODING 45053
SWIDTH 1333 0
DWIDTH 16 0
BBX 16 16 0 0
BITMAP
0000
7FB7
1BB7
1BB7
1BB7
3737
7FF7
0EF7
0E37
3F7F
0770
3F7F
3870
1F7F
0000
0000
ENDCHAR
STARTCHAR char0xAFFE
ENCODING 45054
SWIDTH 1333 0
DWIDTH 16 0
BBX 16 16 0 0
BITMAP
0000
7FB7
1BB7
1BB7
1BB7
3737
7FF7
0EF7
0E37
3F7F
0736
3F36
3836
1F7F
0000
0000
ENDCHAR
STARTCHAR char0xAFFF
ENCODING 45055
SWIDTH 1333 0
DWIDTH 16 0
BBX 16 16 0 0
BITMAP
0000
7FB7
1BB7
1BB7
1BB7
3737
7FF7
0EF7
0E37
3F3C
07FF
3F7E
38E7
1F7E
0000
0000
ENDCHAR
STARTCHAR char0xB000
ENCODING 45056
SWIDTH 1333 0
DWIDTH 16 0
BBX 16 16 0 0
BITMAP
0000
7FB7
1BB7
1BB7
1BB7
3737
7FF7
0EF7
0E37
3FFF
3807
3807
3807
1FFE
0000
0000
ENDCHAR
STARTCHAR char0xB001
ENCODING 45057
SWIDTH 1333 0
DWIDTH 16 0
BBX 16 16 0 0
BITMAP
0000
7FB7
1BB7
1BB7
1BB7
3737
7FF7
0EF7
0E37
3807
3807
3FFF
3807
1FFE
0000
0000
ENDCHAR
STARTCHAR char0xB002
ENCODING 45058
SWIDTH 1333 0
DWIDTH 16 0
BBX 16 16 0 0
BITMAP
0000
7FB7
1BB7
1BB7
1BB7
3737
7FF7
0EF7
0E37
3B9C
3B9C
3F9C
3BBE
1F77
0000
0000
ENDCHAR
STARTCHAR char0xB003
ENCODING 45059
SWIDTH 1333 0
DWIDTH 16 0
BBX 16 16 0 0
BITMAP
0000
7FB7
1BB7
1BB7
1BB7
3737
7FF7
0EF7
0E37
01E0
01E0
03F0
0738
3E1F
0000
0000
ENDCHAR
STARTCHAR char0xB004
ENCODING 45060
SWIDTH 1333 0
DWIDTH 16 0
BBX 16 16 0 0
BITMAP
0000
7FB7
1BB7
1BB7
1BB7
3737
7FF7
0EF7
0E37
0E1C
0E1C
0E1C
1F3E
3BF7
0000
0000
ENDCHAR
STARTCHAR char0xB005
ENCODING 45061
SWIDTH 1333 0
DWIDTH 16 0
BBX 16 16 0 0
BITMAP
0000
7FB7
1BB7
1BB7
1BB7
3737
7FF7
0EF7
0E37
1FFE
3807
3807
3807
1FFE
0000
0000
ENDCHAR
STARTCHAR char0xB006
ENCODING 45062
SWIDTH 1333 0
DWIDTH 16 0
BBX 16 16 0 0
BITMAP
0000
7FB7
1BB7
1BB7
1BB7
3737
7FF7
0EF7
0E37
3FFF
01E0
03F0
0738
3E1F
0000
0000
ENDCHAR
STARTCHAR char0xB007
ENCODING 45063
SWIDTH 1333 0
DWIDTH 16 0
BBX 16 16 0 0
BITMAP
0000
7FB7
1BB7
1BB7
1BB7
3737
7FF7
0EF7
0E37
01E0
3FFF
03F0
0738
3E1F
0000
0000
ENDCHAR
STARTCHAR char0xB008
ENCODING 45064
SWIDTH 1333 0
DWIDTH 16 0
BBX 16 16 0 0
BITMAP
0000
7FB7
1BB7
1BB7
1BB7
3737
7FF7
0EF7
0E37
3FFF
0007
3FFF
0007
0006
0000
0000
ENDCHAR
STARTCHAR char0xB009
ENCODING 45065
SWIDTH 1333 0
DWIDTH 16 0
BBX 16 16 0 0
BITMAP
0000
7FB7
1BB7
1BB7
1BB7
3737
7FF7
0EF7
0E37
3FFF
3800
3FFF
3800
1FFF
0000
0000
ENDCHAR
STARTCHAR char0xB00A
ENCODING 45066
SWIDTH 1333 0
DWIDTH 16 0
BBX 16 16 0 0
BITMAP
0000
7FB7
1BB7
1BB7
1BB7
3737
7FF7
0EF7
0E37
3FFF
0E1C
0E1C
0E1C
3FFF
0000
0000
ENDCHAR
STARTCHAR char0xB00B
ENCODING 45067
SWIDTH 1333 0
DWIDTH 16 0
BBX 16 16 0 0
BITMAP
0000
7FB7
1BB7
1BB7
1BB7
3737
7FF7
0EF7
0E37
01E0
3FFF
1FFE
3807
1FFE
0000
0000
ENDCHAR
STARTCHAR char0xB00C
ENCODING 45068
SWIDTH 1333 0
DWIDTH 16 0
BBX 16 16 0 0
BITMAP
0000
000E
7F8E
1B8E
1B8E
1B8E
370E
000E
7FFE
0E0E
0E0E
0E0E
0E0E
0E0E
0000
0000
ENDCHAR
STARTCHAR char0xB00D
ENCODING 45069
SWIDTH 1333 0
DWIDTH 16 0
BBX 16 16 0 0
BITMAP
0000
7F8E
1B8E
1B8E
1B8E
370E
7FFE
0E0E
0E0E
3FFE
000E
000E
000E
000C
0000
0000
ENDCHAR
STARTCHAR char0xB00E
ENCODING 45070
SWIDTH 1333 0
DWIDTH 16 0
BBX 16 16 0 0
BITMAP
0000
7F8E
1B8E
1B8E
1B8E
370E
7FFE
0E0E
0E0E
3FFE
038E
038E
038E
030C
0000
0000
ENDCHAR
STARTCHAR char0xB00F
ENCODING 45071
SWIDTH 1333 0
DWIDTH 16 0
BBX 16 16 0 0
BITMAP
0000
7F8E
1B8E
1B8E
1B8E
370E
7FFE
0E0E
0E0E
3F9C
039C
039C
03BE
0377
0000
0000
ENDCHAR
STARTCHAR char0xB010
ENCODING 45072
SWIDTH 1333 0
DWIDTH 16 0
BBX 16 16 0 0
BITMAP
0000
7F8E
1B8E
1B8E
1B8E
370E
7FFE
0E0E
0E0E
3800
3800
3800
3800
1FFE
0000
0000
ENDCHAR
STARTCHAR char0xB011
ENCODING 45073
SWIDTH 1333 0
DWIDTH 16 0
BBX 16 16 0 0
BITMAP
0000
7F8E
1B8E
1B8E
1B8E
370E
7FFE
0E0E
0E0E
38FE
3838
3838
387C
1FEE
0000
0000
ENDCHAR
STARTCHAR char0xB012
ENCODING 45074
SWIDTH 1333 0
DWIDTH 16 0
BBX 16 16 0 0
BITMAP
0000
7F8E
1B8E
1B8E
1B8E
370E
7FFE
0E0E
0E0E
3878
39FE
38FC
39CE
1EFC
0000
0000
ENDCHAR
STARTCHAR char0xB013
ENCODING 45075
SWIDTH 1333 0
DWIDTH 16 0
BBX 16 16 0 0
BITMAP
0000
7F8E
1B8E
1B8E
1B8E
370E
7FFE
0E0E
0E0E
3FFE
3800
3800
3800
1FFE
0000
0000
ENDCHAR
STARTCHAR char0xB014
ENCODING 45076
SWIDTH 1333 0
DWIDTH 16 0
BBX 16 16 0 0
BITMAP
0000
7F8E
1B8E
1B8E
1B8E
370E
7FFE
0E0E
0E0E
3FFE
000E
3FFE
3800
1FFE
0000
0000
ENDCHAR
STARTCHAR char0xB015
ENCODING 45077
SWIDTH 1333 0
DWIDTH 16 0
BBX 16 16 0 0
BITMAP
0000
7F8E
1B8E
1B8E
1B8E
370E
7FFE
0E0E
0E0E
3F7E
070E
3F0E
380E
1F0C
0000
0000
ENDCHAR
STARTCHAR char0xB016
ENCODING 45078
SWIDTH 1333 0
DWIDTH 16 0
BBX 16 16 0 0
BITMAP
0000
7F8E
1B8E
1B8E
1B8E
370E
7FFE
0E0E
0E0E
3EFE
0EEE
3EEE
38EE
1E7C
0000
0000
ENDCHAR
STARTCHAR char0xB017
ENCODING 45079
SWIDTH 1333 0
DWIDTH 16 0
BBX 16 16 0 0
BITMAP
0000
7F8E
1B8E
1B8E
1B8E
370E
7FFE
0E0E
0E0E
3EEE
0EEE
3EFE
38EE
1E7C
0000
0000
ENDCHAR
STARTCHAR char0xB018
ENCODING 45080
SWIDTH 1333 0
DWIDTH 16 0
BBX 16 16 0 0
BITMAP
0000
7F8E
1B8E
1B8E
1B8E
370E
7FFE
0E0E
0E0E
3F9C
039C
3F9C
383E
1FF7
0000
0000
ENDCHAR
STARTCHAR char0xB019
ENCODING 45081
SWIDTH 1333 0
DWIDTH 16 0
BBX 16 16 0 0
BITMAP
0000
7F8E
1B8E
1B8E
1B8E
370E
7FFE
0E0E
0E0E
3F7E
0770
3F7E
3870
1F7E
0000
0000
ENDCHAR
STARTCHAR char0xB01A
ENCODING 45082
SWIDTH 1333 0
DWIDTH 16 0
BBX 16 16 0 0
BITMAP
0000
7F8E
1B8E
1B8E
1B8E
370E
7FFE
0E0E
0E0E
3EFE
0E6C
3E6C
386C
1EFE
0000
0000
ENDCHAR
STARTCHAR char0xB01B
ENCODING 45083
SWIDTH 1333 0
DWIDTH 16 0
BBX 16 16 0 0
BITMAP
0000
7F8E
1B8E
1B8E
1B8E
370E
7FFE
0E0E
0E0E
3F38
07FE
3F7C
38EE
1F7C
0000
0000
ENDCHAR
STARTCHAR char0xB01C
ENCODING 45084
SWIDTH 1333 0
DWIDTH 16 0
BBX 16 16 0 0
BITMAP
0000
7F8E
1B8E
1B8E
1B8E
370E
7FFE
0E0E
0E0E
3FFE
380E
380E
380E
1FFC
0000
0000
ENDCHAR
STARTCHAR char0xB01D
ENCODING 45085
SWIDTH 1333 0
DWIDTH 16 0
BBX 16 16 0 0
BITMAP
0000
7F8E
1B8E
1B8E
1B8E
370E
7FFE
0E0E
0E0E
380E
380E
3FFE
380E
1FFC
0000
0000
ENDCHAR
STARTCHAR char0xB01E
ENCODING 45086
SWIDTH 1333 0
DWIDTH 16 0
BBX 16 16 0 0
BITMAP
0000
7F8E
1B8E
1B8E
1B8E
370E
7FFE
0E0E
0E0E
3B9C
3B9C
3F9C
3BBE
1F77
0000
0000
ENDCHAR
STARTCHAR char0xB01F
ENCODING 45087
SWIDTH 1333 0
DWIDTH 16 0
BBX 16 16 0 0
BITMAP
0000
7F8E
1B8E
1B8E
1B8E
370E
7FFE
0E0E
0E0E
01C0
01C0
03E0
0F78
380E
0000
0000
ENDCHAR
STARTCHAR char0xB020
ENCODING 45088
SWIDTH 1333 0
DWIDTH 16 0
BBX 16 16 0 0
BITMAP
0000
7F8E
1B8E
1B8E
1B8E
370E
7FFE
0E0E
0E0E
0E1C
0E1C
0E1C
1F3E
3BF7
0000
0000
ENDCHAR
STARTCHAR char0xB021
ENCODING 45089
SWIDTH 1333 0
DWIDTH 16 0
BBX 16 16 0 0
BITMAP
0000
7F8E
1B8E
1B8E
1B8E
370E
7FFE
0E0E
0E0E
1FFC
380E
380E
380E
1FFC
0000
0000
ENDCHAR
STARTCHAR char0xB022
ENCODING 45090
SWIDTH 1333 0
DWIDTH 16 0
BBX 16 16 0 0
BITMAP
0000
7F8E
1B8E
1B8E
1B8E
370E
7FFE
0E0E
0E0E
3FFE
01C0
03E0
0770
3E3E
0000
0000
ENDCHAR
STARTCHAR char0xB023
ENCODING 45091
SWIDTH 1333 0
DWIDTH 16 0
BBX 16 16 0 0
BITMAP
0000
7F8E
1B8E
1B8E
1B8E
370E
7FFE
0E0E
0E0E
03E0
3FFE
03E0
0770
3E3E
0000
0000
ENDCHAR
STARTCHAR char0xB024
ENCODING 45092
SWIDTH 1333 0
DWIDTH 16 0
BBX 16 16 0 0
BITMAP
0000
7F8E
1B8E
1B8E
1B8E
370E
7FFE
0E0E
0E0E
3FFE
000E
3FFE
000E
000C
0000
0000
ENDCHAR
STARTCHAR char0xB025
ENCODING 45093
SWIDTH 1333 0
DWIDTH 16 0
BBX 16 16 0 0
BITMAP
0000
7F8E
1B8E
1B8E
1B8E
370E
7FFE
0E0E
0E0E
3FFE
3800
3FFC
3800
1FFE
0000
0000
ENDCHAR
STARTCHAR char0xB026
ENCODING 45094
SWIDTH 1333 0
DWIDTH 16 0
BBX 16 16 0 0
BITMAP
0000
7F8E
1B8E
1B8E
1B8E
370E
7FFE
0E0E
0E0E
3FFE
0E38
0E38
0E38
3FFE
0000
0000
ENDCHAR
STARTCHAR char0xB027
ENCODING 45095
SWIDTH 1333 0
DWIDTH 16 0
BBX 16 16 0 0
BITMAP
0000
7F8E
1B8E
1B8E
1B8E
370E
7FFE
0E0E
0E0E
01C0
3FFE
1FFC
380E
1FFC
0000
0000
ENDCHAR
STARTCHAR char0xB028
ENCODING 45096
SWIDTH 1333 0
DWIDTH 16 0
BBX 16 16 0 0
BITMAP
0000
0000
3F7E
070E
070E
070E
070E
070E
0E1C
7FFF
0E38
0E38
0E38
0E38
0000
0000
ENDCHAR
STARTCHAR char0xB029
ENCODING 45097
SWIDTH 1333 0
DWIDTH 16 0
BBX 16 16 0 0
BITMAP
0000
3FFE
038E
038E
038E
071C
0000
7FFF
0E38
3FFE
000E
000E
000E
000C
0000
0000
ENDCHAR
STARTCHAR char0xB02A
ENCODING 45098
SWIDTH 1333 0
DWIDTH 16 0
BBX 16 16 0 0
BITMAP
0000
3FFE
038E
038E
038E
071C
0000
7FFF
0E38
3FFE
038E
038E
038E
030C
0000
0000
ENDCHAR
STARTCHAR char0xB02B
ENCODING 45099
SWIDTH 1333 0
DWIDTH 16 0
BBX 16 16 0 0
BITMAP
0000
3FFE
038E
038E
038E
071C
0000
7FFF
0E38
3F38
0738
0738
077C
06EE
0000
0000
ENDCHAR
STARTCHAR char0xB02C
ENCODING 45100
SWIDTH 1333 0
DWIDTH 16 0
BBX 16 16 0 0
BITMAP
0000
3FFE
038E
038E
038E
071C
0000
7FFF
0E38
3E38
3800
3800
3800
1FFE
0000
0000
ENDCHAR
STARTCHAR char0xB02D
ENCODING 45101
SWIDTH 1333 0
DWIDTH 16 0
BBX 16 16 0 0
BITMAP
0000
3FFE
038E
038E
038E
071C
0000
7FFF
0E38
3EFE
3838
3838
387C
1FEE
0000
0000
ENDCHAR
STARTCHAR char0xB02E
ENCODING 45102
SWIDTH 1333 0
DWIDTH 16 0
BBX 16 16 0 0
BITMAP
0000
3FFE
038E
038E
038E
071C
0000
7FFF
0E38
3E78
39FE
38FC
39CE
1EFC
0000
0000
ENDCHAR
STARTCHAR char0xB02F
ENCODING 45103
SWIDTH 1333 0
DWIDTH 16 0
BBX 16 16 0 0
BITMAP
0000
3FFE
038E
038E
038E
071C
0000
7FFF
0E38
3FFE
3800
3800
3800
1FFE
0000
0000
ENDCHAR
STARTCHAR char0xB030
ENCODING 45104
SWIDTH 1333 0
DWIDTH 16 0
BBX 16 16 0 0
BITMAP
0000
3FFE
038E
038E
038E
071C
0000
7FFF
0E38
3FFE
000E
3FFE
3800
1FFE
0000
0000
ENDCHAR
STARTCHAR char0xB031
ENCODING 45105
SWIDTH 1333 0
DWIDTH 16 0
BBX 16 16 0 0
BITMAP
0000
3FFE
038E
038E
038E
071C
0000
7FFF
0E38
3FFE
038E
3F8E
380E
1F8C
0000
0000
ENDCHAR
STARTCHAR char0xB032
ENCODING 45106
SWIDTH 1333 0
DWIDTH 16 0
BBX 16 16 0 0
BITMAP
0000
3FFE
038E
038E
038E
071C
0000
7FFF
0E38
3EFE
0EEE
3EEE
38EE
1E7C
0000
0000
ENDCHAR
STARTCHAR char0xB033
ENCODING 45107
SWIDTH 1333 0
DWIDTH 16 0
BBX 16 16 0 0
BITMAP
0000
3FFE
038E
038E
038E
071C
0000
7FFF
0E38
3EFE
0EEE
3EFE
38EE
1E7C
0000
0000
ENDCHAR
STARTCHAR char0xB034
ENCODING 45108
SWIDTH 1333 0
DWIDTH 16 0
BBX 16 16 0 0
BITMAP
0000
3FFE
038E
038E
038E
071C
0000
7FFF
0E38
3F38
0738
3F38
387C
1FEE
0000
0000
ENDCHAR
STARTCHAR char0xB035
ENCODING 45109
SWIDTH 1333 0
DWIDTH 16 0
BBX 16 16 0 0
BITMAP
0000
3FFE
038E
038E
038E
071C
0000
7FFF
0E38
3F7E
0760
3F7E
3860
1F7E
0000
0000
ENDCHAR
STARTCHAR char0xB036
ENCODING 45110
SWIDTH 1333 0
DWIDTH 16 0
BBX 16 16 0 0
BITMAP
0000
3FFE
038E
038E
038E
071C
0000
7FFF
0E38
3EFE
0E6C
3E6C
386C
1EFE
0000
0000
ENDCHAR
STARTCHAR char0xB037
ENCODING 45111
SWIDTH 1333 0
DWIDTH 16 0
BBX 16 16 0 0
BITMAP
0000
3FFE
038E
038E
038E
071C
0000
7FFF
0E38
3F38
07FE
3F7C
38EE
1F7C
0000
0000
ENDCHAR
STARTCHAR char0xB038
ENCODING 45112
SWIDTH 1333 0
DWIDTH 16 0
BBX 16 16 0 0
BITMAP
0000
3FFE
038E
038E
038E
071C
0000
7FFF
0E38
3FFE
380E
380E
380E
1FFC
0000
0000
ENDCHAR
STARTCHAR char0xB039
ENCODING 45113
SWIDTH 1333 0
DWIDTH 16 0
BBX 16 16 0 0
BITMAP
0000
3FFE
038E
038E
038E
071C
0000
7FFF
0E38
3E3E
380E
3FFE
380E
1FFC
0000
0000
ENDCHAR
STARTCHAR char0xB03A
ENCODING 45114
SWIDTH 1333 0
DWIDTH 16 0
BBX 16 16 0 0
BITMAP
0000
3FFE
038E
038E
038E
071C
0000
7FFF
0E38
3F38
3738
3F38
377C
1EEE
0000
0000
ENDCHAR
STARTCHAR char0xB03B
ENCODING 45115
SWIDTH 1333 0
DWIDTH 16 0
BBX 16 16 0 0
BITMAP
0000
3FFE
038E
038E
038E
071C
0000
7FFF
0E38
0FF8
01C0
03E0
0770
3E3E
0000
0000
ENDCHAR
STARTCHAR char0xB03C
ENCODING 45116
SWIDTH 1333 0
DWIDTH 16 0
BBX 16 16 0 0
BITMAP
0000
3FFE
038E
038E
038E
071C
0000
7FFF
0E38
0E38
0E38
0E38
1F7C
3BEE
0000
0000
ENDCHAR
STARTCHAR char0xB03D
ENCODING 45117
SWIDTH 1333 0
DWIDTH 16 0
BBX 16 16 0 0
BITMAP
0000
3FFE
038E
038E
038E
071C
0000
7FFF
0E38
1FFC
380E
380E
380E
1FFC
0000
0000
ENDCHAR
STARTCHAR char0xB03E
ENCODING 45118
SWIDTH 1333 0
DWIDTH 16 0
BBX 16 16 0 0
BITMAP
0000
3FFE
038E
038E
038E
071C
0000
7FFF
0E38
3FFE
01C0
03E0
0770
3E3E
0000
0000
ENDCHAR
STARTCHAR char0xB03F
ENCODING 45119
SWIDTH 1333 0
DWIDTH 16 0
BBX 16 16 0 0
BITMAP
0000
3FFE
038E
038E
038E
071C
0000
7FFF
0E38
0FF8
3FFE
03E0
0770
3E3E
0000
0000
ENDCHAR
STARTCHAR char0xB040
ENCODING 45120
SWIDTH 1333 0
DWIDTH 16 0
BBX 16 16 0 0
BITMAP
0000
3FFE
038E
038E
038E
071C
0000
7FFF
0E38
3FFE
000E
3FFE
000E
000C
0000
0000
ENDCHAR
STARTCHAR char0xB041
ENCODING 45121
SWIDTH 1333 0
DWIDTH 16 0
BBX 16 16 0 0
BITMAP
0000
3FFE
038E
038E
038E
071C
0000
7FFF
0E38
3FFE
3800
3FFE
3800
1FFE
0000
0000
ENDCHAR
STARTCHAR char0xB042
ENCODING 45122
SWIDTH 1333 0
DWIDTH 16 0
BBX 16 16 0 0
BITMAP
0000
3FFE
038E
038E
038E
071C
0000
7FFF
0E38
3FFE
0E38
0E38
0E38
3FFE
0000
0000
ENDCHAR
STARTCHAR char0xB043
ENCODING 45123
SWIDTH 1333 0
DWIDTH 16 0
BBX 16 16 0 0
BITMAP
0000
3FFE
038E
038E
038E
071C
0000
7FFF
0E38
0FF8
3FFE
1FFC
380E
1FFC
0000
0000
ENDCHAR
STARTCHAR char0xB044
ENCODING 45124
SWIDTH 1333 0
DWIDTH 16 0
BBX 16 16 0 0
BITMAP
0000
0000
3F7E
070E
070E
070E
070E
070E
0E1C
0000
0000
0000
7FFF
0000
0000
0000
ENDCHAR
STARTCHAR char0xB045
ENCODING 45125
SWIDTH 1333 0
DWIDTH 16 0
BBX 16 16 0 0
BITMAP
0000
3FFE
038E
038E
038E
071C
0000
7FFF
0000
3FFE
000E
000E
000E
000C
0000
0000
ENDCHAR
STARTCHAR char0xB046
ENCODING 45126
SWIDTH 1333 0
DWIDTH 16 0
BBX 16 16 0 0
BITMAP
0000
3FFE
038E
038E
038E
071C
0000
7FFF
0000
3FFE
038E
038E
038E
030C
0000
0000
ENDCHAR
STARTCHAR char0xB047
ENCODING 45127
SWIDTH 1333 0
DWIDTH 16 0
BBX 16 16 0 0
BITMAP
0000
3FFE
038E
038E
038E
071C
0000
7FFF
0000
3F38
0738
0738
077C
06EE
0000
0000
ENDCHAR
STARTCHAR char0xB048
ENCODING 45128
SWIDTH 1333 0
DWIDTH 16 0
BBX 16 16 0 0
BITMAP
0000
3FFE
038E
038E
038E
071C
0000
7FFF
0000
3800
3800
3800
3800
1FFE
0000
0000
ENDCHAR
STARTCHAR char0xB049
ENCODING 45129
SWIDTH 1333 0
DWIDTH 16 0
BBX 16 16 0 0
BITMAP
0000
3FFE
038E
038E
038E
071C
0000
7FFF
0000
38FE
3838
3838
387C
1FEE
0000
0000
ENDCHAR
STARTCHAR char0xB04A
ENCODING 45130
SWIDTH 1333 0
DWIDTH 16 0
BBX 16 16 0 0
BITMAP
0000
3FFE
038E
038E
038E
071C
0000
7FFF
0000
3878
39FE
38FC
39CE
1EFC
0000
0000
ENDCHAR
STARTCHAR char0xB04B
ENCODING 45131
SWIDTH 1333 0
DWIDTH 16 0
BBX 16 16 0 0
BITMAP
0000
3FFE
038E
038E
038E
071C
0000
7FFF
0000
3FFE
3800
3800
3800
1FFE
0000
0000
ENDCHAR
STARTCHAR char0xB04C
ENCODING 45132
SWIDTH 1333 0
DWIDTH 16 0
BBX 16 16 0 0
BITMAP
0000
3FFE
038E
038E
038E
071C
0000
7FFF
0000
3FFE
000E
3FFE
3800
1FFE
0000
0000
ENDCHAR
STARTCHAR char0xB04D
ENCODING 45133
SWIDTH 1333 0
DWIDTH 16 0
BBX 16 16 0 0
BITMAP
0000
3FFE
038E
038E
038E
071C
0000
7FFF
0000
3FFE
038E
3F8E
380E
1F8C
0000
0000
ENDCHAR
STARTCHAR char0xB04E
ENCODING 45134
SWIDTH 1333 0
DWIDTH 16 0
BBX 16 16 0 0
BITMAP
0000
3FFE
038E
038E
038E
071C
0000
7FFF
0000
3EFE
0EEE
3EEE
38EE
1E7C
0000
0000
ENDCHAR
STARTCHAR char0xB04F
ENCODING 45135
SWIDTH 1333 0
DWIDTH 16 0
BBX 16 16 0 0
BITMAP
0000
3FFE
038E
038E
038E
071C
0000
7FFF
0000
3EEE
0EEE
3EFE
38EE
1E7C
0000
0000
ENDCHAR
STARTCHAR char0xB050
ENCODING 45136
SWIDTH 1333 0
DWIDTH 16 0
BBX 16 16 0 0
BITMAP
0000
3FFE
038E
038E
038E
071C
0000
7FFF
0000
3F38
0738
3F38
387C
1FEE
0000
0000
ENDCHAR
STARTCHAR char0xB051
ENCODING 45137
SWIDTH 1333 0
DWIDTH 16 0
BBX 16 16 0 0
BITMAP
0000
3FFE
038E
038E
038E
071C
0000
7FFF
0000
3F7E
0760
3F7E
3860
1F7E
0000
0000
ENDCHAR
STARTCHAR char0xB052
ENCODING 45138
SWIDTH 1333 0
DWIDTH 16 0
BBX 16 16 0 0
BITMAP
0000
3FFE
038E
038E
038E
071C
0000
7FFF
0000
3EFE
0E6C
3E6C
386C
1EFE
0000
0000
ENDCHAR
STARTCHAR char0xB053
ENCODING 45139
SWIDTH 1333 0
DWIDTH 16 0
BBX 16 16 0 0
BITMAP
0000
3FFE
038E
038E
038E
071C
0000
7FFF
0000
3F38
07FE
3F7C
38EE
1F7C
0000
0000
ENDCHAR
STARTCHAR char0xB054
ENCODING 45140
SWIDTH 1333 0
DWIDTH 16 0
BBX 16 16 0 0
BITMAP
0000
3FFE
038E
038E
038E
071C
0000
7FFF
0000
3FFE
380E
380E
380E
1FFC
0000
0000
ENDCHAR
STARTCHAR char0xB055
ENCODING 45141
SWIDTH 1333 0
DWIDTH 16 0
BBX 16 16 0 0
BITMAP
0000
3FFE
038E
038E
038E
071C
0000
7FFF
0000
380E
380E
3FFE
380E
1FFC
0000
0000
ENDCHAR
STARTCHAR char0xB056
ENCODING 45142
SWIDTH 1333 0
DWIDTH 16 0
BBX 16 16 0 0
BITMAP
0000
3FFE
038E
038E
038E
071C
0000
7FFF
0000
3738
3738
3F38
377C
1EEE
0000
0000
ENDCHAR
STARTCHAR char0xB057
ENCODING 45143
SWIDTH 1333 0
DWIDTH 16 0
BBX 16 16 0 0
BITMAP
0000
3FFE
038E
038E
038E
071C
0000
7FFF
0000
01C0
01C0
03E0
0770
3E3E
0000
0000
ENDCHAR
STARTCHAR char0xB058
ENCODING 45144
SWIDTH 1333 0
DWIDTH 16 0
BBX 16 16 0 0
BITMAP
0000
3FFE
038E
038E
038E
071C
0000
7FFF
0000
0E38
0E38
0E38
1F7C
3BEE
0000
0000
ENDCHAR
STARTCHAR char0xB059
ENCODING 45145
SWIDTH 1333 0
DWIDTH 16 0
BBX 16 16 0 0
BITMAP
0000
3FFE
038E
038E
038E
071C
0000
7FFF
0000
1FFC
380E
380E
380E
1FFC
0000
0000
ENDCHAR
STARTCHAR char0xB05A
ENCODING 45146
SWIDTH 1333 0
DWIDTH 16 0
BBX 16 16 0 0
BITMAP
0000
3FFE
038E
038E
038E
071C
0000
7FFF
0000
3FFE
01C0
03E0
0770
3E3E
0000
0000
ENDCHAR
ENDFONT
